<?xml version="1.0" standalone="no"?>
 <!DOCTYPE svg PUBLIC "-//W3C//DTD SVG 1.1//EN" 
 "http://www.w3.org/Graphics/SVG/1.1/DTD/svg11.dtd"> 
<svg
  xmlns:svg="http://www.w3.org/2000/svg"
  xmlns="http://www.w3.org/2000/svg"
  xmlns:xlink="http://www.w3.org/1999/xlink"
  version="1.1"
  width="40.0304mm" height="60.5282mm" viewBox="0.0000 0.0000 40.0304 60.5282">
<title>SVG Image created as delivery-box-reporter-brd.svg date 2024/11/29 17:16:07 </title>
  <desc>Image generated by PCBNEW </desc>
<g style="fill:#000000; fill-opacity:1.0000;stroke:#000000; stroke-opacity:1.0000;
stroke-linecap:round; stroke-linejoin:round;"
 transform="translate(0 0) scale(1 1)">
</g>
<g style="fill:none; 
stroke:#0CE5D1; stroke-width:0.1500; stroke-opacity:1; 
stroke-linecap:round; stroke-linejoin:round;">
<text x="20.0250" y="57.0250"
textLength="2.2500" font-size="1.3333" lengthAdjust="spacingAndGlyphs"
text-anchor="middle" opacity="0" stroke-opacity="0">U2</text>
<g class="stroked-text"><desc>U2</desc>
<path d="M19.2631 55.9798
L19.2631 56.7893
" />
<path d="M19.2631 56.7893
L19.3107 56.8846
" />
<path d="M19.3107 56.8846
L19.3583 56.9322
" />
<path d="M19.3583 56.9322
L19.4536 56.9798
" />
<path d="M19.4536 56.9798
L19.6440 56.9798
" />
<path d="M19.6440 56.9798
L19.7393 56.9322
" />
<path d="M19.7393 56.9322
L19.7869 56.8846
" />
<path d="M19.7869 56.8846
L19.8345 56.7893
" />
<path d="M19.8345 56.7893
L19.8345 55.9798
" />
<path d="M20.2631 56.0751
L20.3107 56.0274
" />
<path d="M20.3107 56.0274
L20.4060 55.9798
" />
<path d="M20.4060 55.9798
L20.6440 55.9798
" />
<path d="M20.6440 55.9798
L20.7393 56.0274
" />
<path d="M20.7393 56.0274
L20.7869 56.0751
" />
<path d="M20.7869 56.0751
L20.8345 56.1703
" />
<path d="M20.8345 56.1703
L20.8345 56.2655
" />
<path d="M20.8345 56.2655
L20.7869 56.4084
" />
<path d="M20.7869 56.4084
L20.2155 56.9798
" />
<path d="M20.2155 56.9798
L20.8345 56.9798
" />
</g></g>
<g style="fill:none; 
stroke:#0CE5D1; stroke-width:0.1000; stroke-opacity:1; 
stroke-linecap:round; stroke-linejoin:round;">
<g transform="rotate(-270.000000 23.2750 51.2750)">
<text x="23.2750" y="51.2750"
textLength="2.9095" font-size="1.3333" lengthAdjust="spacingAndGlyphs"
text-anchor="start" opacity="0" stroke-opacity="0">Gnd</text>
</g>
<g class="stroked-text"><desc>Gnd</desc>
<path d="M24.3550 52.1027
L24.4026 52.0075
" />
<path d="M24.4026 52.0075
L24.4026 51.8646
" />
<path d="M24.4026 51.8646
L24.3550 51.7217
" />
<path d="M24.3550 51.7217
L24.2597 51.6265
" />
<path d="M24.2597 51.6265
L24.1645 51.5789
" />
<path d="M24.1645 51.5789
L23.9740 51.5313
" />
<path d="M23.9740 51.5313
L23.8312 51.5313
" />
<path d="M23.8312 51.5313
L23.6407 51.5789
" />
<path d="M23.6407 51.5789
L23.5454 51.6265
" />
<path d="M23.5454 51.6265
L23.4502 51.7217
" />
<path d="M23.4502 51.7217
L23.4026 51.8646
" />
<path d="M23.4026 51.8646
L23.4026 51.9598
" />
<path d="M23.4026 51.9598
L23.4502 52.1027
" />
<path d="M23.4502 52.1027
L23.4978 52.1503
" />
<path d="M23.4978 52.1503
L23.8312 52.1503
" />
<path d="M23.8312 52.1503
L23.8312 51.9598
" />
<path d="M24.0692 52.5789
L23.4026 52.5789
" />
<path d="M23.9740 52.5789
L24.0216 52.6265
" />
<path d="M24.0216 52.6265
L24.0692 52.7217
" />
<path d="M24.0692 52.7217
L24.0692 52.8646
" />
<path d="M24.0692 52.8646
L24.0216 52.9598
" />
<path d="M24.0216 52.9598
L23.9264 53.0075
" />
<path d="M23.9264 53.0075
L23.4026 53.0075
" />
<path d="M23.4026 53.9122
L24.4026 53.9122
" />
<path d="M23.4502 53.9122
L23.4026 53.8170
" />
<path d="M23.4026 53.8170
L23.4026 53.6265
" />
<path d="M23.4026 53.6265
L23.4502 53.5313
" />
<path d="M23.4502 53.5313
L23.4978 53.4836
" />
<path d="M23.4978 53.4836
L23.5931 53.4360
" />
<path d="M23.5931 53.4360
L23.8788 53.4360
" />
<path d="M23.8788 53.4360
L23.9740 53.4836
" />
<path d="M23.9740 53.4836
L24.0216 53.5313
" />
<path d="M24.0216 53.5313
L24.0692 53.6265
" />
<path d="M24.0692 53.6265
L24.0692 53.8170
" />
<path d="M24.0692 53.8170
L24.0216 53.9122
" />
</g><g transform="rotate(-270.000000 25.7750 51.5250)">
<text x="25.7750" y="51.5250"
textLength="2.3381" font-size="1.3333" lengthAdjust="spacingAndGlyphs"
text-anchor="start" opacity="0" stroke-opacity="0">Vin</text>
</g>
<g class="stroked-text"><desc>Vin</desc>
<path d="M26.9026 51.6860
L25.9026 52.0194
" />
<path d="M25.9026 52.0194
L26.9026 52.3527
" />
<path d="M25.9026 52.6860
L26.5692 52.6860
" />
<path d="M26.9026 52.6860
L26.8550 52.6384
" />
<path d="M26.8550 52.6384
L26.8073 52.6860
" />
<path d="M26.8073 52.6860
L26.8550 52.7336
" />
<path d="M26.8550 52.7336
L26.9026 52.6860
" />
<path d="M26.9026 52.6860
L26.8073 52.6860
" />
<path d="M26.5692 53.1622
L25.9026 53.1622
" />
<path d="M26.4740 53.1622
L26.5216 53.2098
" />
<path d="M26.5216 53.2098
L26.5692 53.3051
" />
<path d="M26.5692 53.3051
L26.5692 53.4479
" />
<path d="M26.5692 53.4479
L26.5216 53.5432
" />
<path d="M26.5216 53.5432
L26.4264 53.5908
" />
<path d="M26.4264 53.5908
L25.9026 53.5908
" />
</g><g transform="rotate(-270.000000 18.2750 51.5250)">
<text x="18.2750" y="51.5250"
textLength="2.9095" font-size="1.3333" lengthAdjust="spacingAndGlyphs"
text-anchor="start" opacity="0" stroke-opacity="0">SDA</text>
</g>
<g class="stroked-text"><desc>SDA</desc>
<path d="M18.4502 51.7813
L18.4026 51.9241
" />
<path d="M18.4026 51.9241
L18.4026 52.1622
" />
<path d="M18.4026 52.1622
L18.4502 52.2575
" />
<path d="M18.4502 52.2575
L18.4978 52.3051
" />
<path d="M18.4978 52.3051
L18.5931 52.3527
" />
<path d="M18.5931 52.3527
L18.6883 52.3527
" />
<path d="M18.6883 52.3527
L18.7835 52.3051
" />
<path d="M18.7835 52.3051
L18.8312 52.2575
" />
<path d="M18.8312 52.2575
L18.8788 52.1622
" />
<path d="M18.8788 52.1622
L18.9264 51.9717
" />
<path d="M18.9264 51.9717
L18.9740 51.8765
" />
<path d="M18.9740 51.8765
L19.0216 51.8289
" />
<path d="M19.0216 51.8289
L19.1169 51.7813
" />
<path d="M19.1169 51.7813
L19.2121 51.7813
" />
<path d="M19.2121 51.7813
L19.3073 51.8289
" />
<path d="M19.3073 51.8289
L19.3550 51.8765
" />
<path d="M19.3550 51.8765
L19.4026 51.9717
" />
<path d="M19.4026 51.9717
L19.4026 52.2098
" />
<path d="M19.4026 52.2098
L19.3550 52.3527
" />
<path d="M18.4026 52.7813
L19.4026 52.7813
" />
<path d="M19.4026 52.7813
L19.4026 53.0194
" />
<path d="M19.4026 53.0194
L19.3550 53.1622
" />
<path d="M19.3550 53.1622
L19.2597 53.2575
" />
<path d="M19.2597 53.2575
L19.1645 53.3051
" />
<path d="M19.1645 53.3051
L18.9740 53.3527
" />
<path d="M18.9740 53.3527
L18.8312 53.3527
" />
<path d="M18.8312 53.3527
L18.6407 53.3051
" />
<path d="M18.6407 53.3051
L18.5454 53.2575
" />
<path d="M18.5454 53.2575
L18.4502 53.1622
" />
<path d="M18.4502 53.1622
L18.4026 53.0194
" />
<path d="M18.4026 53.0194
L18.4026 52.7813
" />
<path d="M18.6883 53.7336
L18.6883 54.2098
" />
<path d="M18.4026 53.6384
L19.4026 53.9717
" />
<path d="M19.4026 53.9717
L18.4026 54.3051
" />
</g><g transform="rotate(-270.000000 15.7750 51.5250)">
<text x="15.7750" y="51.5250"
textLength="4.4810" font-size="1.3333" lengthAdjust="spacingAndGlyphs"
text-anchor="start" opacity="0" stroke-opacity="0">GPI01</text>
</g>
<g class="stroked-text"><desc>GPI01</desc>
<path d="M16.8550 52.3527
L16.9026 52.2575
" />
<path d="M16.9026 52.2575
L16.9026 52.1146
" />
<path d="M16.9026 52.1146
L16.8550 51.9717
" />
<path d="M16.8550 51.9717
L16.7597 51.8765
" />
<path d="M16.7597 51.8765
L16.6645 51.8289
" />
<path d="M16.6645 51.8289
L16.4740 51.7813
" />
<path d="M16.4740 51.7813
L16.3312 51.7813
" />
<path d="M16.3312 51.7813
L16.1407 51.8289
" />
<path d="M16.1407 51.8289
L16.0454 51.8765
" />
<path d="M16.0454 51.8765
L15.9502 51.9717
" />
<path d="M15.9502 51.9717
L15.9026 52.1146
" />
<path d="M15.9026 52.1146
L15.9026 52.2098
" />
<path d="M15.9026 52.2098
L15.9502 52.3527
" />
<path d="M15.9502 52.3527
L15.9978 52.4003
" />
<path d="M15.9978 52.4003
L16.3312 52.4003
" />
<path d="M16.3312 52.4003
L16.3312 52.2098
" />
<path d="M15.9026 52.8289
L16.9026 52.8289
" />
<path d="M16.9026 52.8289
L16.9026 53.2098
" />
<path d="M16.9026 53.2098
L16.8550 53.3051
" />
<path d="M16.8550 53.3051
L16.8073 53.3527
" />
<path d="M16.8073 53.3527
L16.7121 53.4003
" />
<path d="M16.7121 53.4003
L16.5692 53.4003
" />
<path d="M16.5692 53.4003
L16.4740 53.3527
" />
<path d="M16.4740 53.3527
L16.4264 53.3051
" />
<path d="M16.4264 53.3051
L16.3788 53.2098
" />
<path d="M16.3788 53.2098
L16.3788 52.8289
" />
<path d="M15.9026 53.8289
L16.9026 53.8289
" />
<path d="M16.9026 54.4955
L16.9026 54.5908
" />
<path d="M16.9026 54.5908
L16.8550 54.6860
" />
<path d="M16.8550 54.6860
L16.8073 54.7336
" />
<path d="M16.8073 54.7336
L16.7121 54.7813
" />
<path d="M16.7121 54.7813
L16.5216 54.8289
" />
<path d="M16.5216 54.8289
L16.2835 54.8289
" />
<path d="M16.2835 54.8289
L16.0931 54.7813
" />
<path d="M16.0931 54.7813
L15.9978 54.7336
" />
<path d="M15.9978 54.7336
L15.9502 54.6860
" />
<path d="M15.9502 54.6860
L15.9026 54.5908
" />
<path d="M15.9026 54.5908
L15.9026 54.4955
" />
<path d="M15.9026 54.4955
L15.9502 54.4003
" />
<path d="M15.9502 54.4003
L15.9978 54.3527
" />
<path d="M15.9978 54.3527
L16.0931 54.3051
" />
<path d="M16.0931 54.3051
L16.2835 54.2575
" />
<path d="M16.2835 54.2575
L16.5216 54.2575
" />
<path d="M16.5216 54.2575
L16.7121 54.3051
" />
<path d="M16.7121 54.3051
L16.8073 54.3527
" />
<path d="M16.8073 54.3527
L16.8550 54.4003
" />
<path d="M16.8550 54.4003
L16.9026 54.4955
" />
<path d="M15.9026 55.7813
L15.9026 55.2098
" />
<path d="M15.9026 55.4955
L16.9026 55.4955
" />
<path d="M16.9026 55.4955
L16.7597 55.4003
" />
<path d="M16.7597 55.4003
L16.6645 55.3051
" />
<path d="M16.6645 55.3051
L16.6169 55.2098
" />
</g><g transform="rotate(-270.000000 20.7750 51.5250)">
<text x="20.7750" y="51.5250"
textLength="2.8619" font-size="1.3333" lengthAdjust="spacingAndGlyphs"
text-anchor="start" opacity="0" stroke-opacity="0">SCL</text>
</g>
<g class="stroked-text"><desc>SCL</desc>
<path d="M20.9502 51.7813
L20.9026 51.9241
" />
<path d="M20.9026 51.9241
L20.9026 52.1622
" />
<path d="M20.9026 52.1622
L20.9502 52.2575
" />
<path d="M20.9502 52.2575
L20.9978 52.3051
" />
<path d="M20.9978 52.3051
L21.0931 52.3527
" />
<path d="M21.0931 52.3527
L21.1883 52.3527
" />
<path d="M21.1883 52.3527
L21.2835 52.3051
" />
<path d="M21.2835 52.3051
L21.3312 52.2575
" />
<path d="M21.3312 52.2575
L21.3788 52.1622
" />
<path d="M21.3788 52.1622
L21.4264 51.9717
" />
<path d="M21.4264 51.9717
L21.4740 51.8765
" />
<path d="M21.4740 51.8765
L21.5216 51.8289
" />
<path d="M21.5216 51.8289
L21.6169 51.7813
" />
<path d="M21.6169 51.7813
L21.7121 51.7813
" />
<path d="M21.7121 51.7813
L21.8073 51.8289
" />
<path d="M21.8073 51.8289
L21.8550 51.8765
" />
<path d="M21.8550 51.8765
L21.9026 51.9717
" />
<path d="M21.9026 51.9717
L21.9026 52.2098
" />
<path d="M21.9026 52.2098
L21.8550 52.3527
" />
<path d="M20.9978 53.3527
L20.9502 53.3051
" />
<path d="M20.9502 53.3051
L20.9026 53.1622
" />
<path d="M20.9026 53.1622
L20.9026 53.0670
" />
<path d="M20.9026 53.0670
L20.9502 52.9241
" />
<path d="M20.9502 52.9241
L21.0454 52.8289
" />
<path d="M21.0454 52.8289
L21.1407 52.7813
" />
<path d="M21.1407 52.7813
L21.3312 52.7336
" />
<path d="M21.3312 52.7336
L21.4740 52.7336
" />
<path d="M21.4740 52.7336
L21.6645 52.7813
" />
<path d="M21.6645 52.7813
L21.7597 52.8289
" />
<path d="M21.7597 52.8289
L21.8550 52.9241
" />
<path d="M21.8550 52.9241
L21.9026 53.0670
" />
<path d="M21.9026 53.0670
L21.9026 53.1622
" />
<path d="M21.9026 53.1622
L21.8550 53.3051
" />
<path d="M21.8550 53.3051
L21.8073 53.3527
" />
<path d="M20.9026 54.2575
L20.9026 53.7813
" />
<path d="M20.9026 53.7813
L21.9026 53.7813
" />
</g><g transform="rotate(-270.000000 13.2750 51.5250)">
<text x="13.2750" y="51.5250"
textLength="4.8619" font-size="1.3333" lengthAdjust="spacingAndGlyphs"
text-anchor="start" opacity="0" stroke-opacity="0">XSHUT</text>
</g>
<g class="stroked-text"><desc>XSHUT</desc>
<path d="M14.4026 51.7336
L13.4026 52.4003
" />
<path d="M14.4026 52.4003
L13.4026 51.7336
" />
<path d="M13.4502 52.7336
L13.4026 52.8765
" />
<path d="M13.4026 52.8765
L13.4026 53.1146
" />
<path d="M13.4026 53.1146
L13.4502 53.2098
" />
<path d="M13.4502 53.2098
L13.4978 53.2575
" />
<path d="M13.4978 53.2575
L13.5931 53.3051
" />
<path d="M13.5931 53.3051
L13.6883 53.3051
" />
<path d="M13.6883 53.3051
L13.7835 53.2575
" />
<path d="M13.7835 53.2575
L13.8312 53.2098
" />
<path d="M13.8312 53.2098
L13.8788 53.1146
" />
<path d="M13.8788 53.1146
L13.9264 52.9241
" />
<path d="M13.9264 52.9241
L13.9740 52.8289
" />
<path d="M13.9740 52.8289
L14.0216 52.7813
" />
<path d="M14.0216 52.7813
L14.1169 52.7336
" />
<path d="M14.1169 52.7336
L14.2121 52.7336
" />
<path d="M14.2121 52.7336
L14.3073 52.7813
" />
<path d="M14.3073 52.7813
L14.3550 52.8289
" />
<path d="M14.3550 52.8289
L14.4026 52.9241
" />
<path d="M14.4026 52.9241
L14.4026 53.1622
" />
<path d="M14.4026 53.1622
L14.3550 53.3051
" />
<path d="M13.4026 53.7336
L14.4026 53.7336
" />
<path d="M13.9264 53.7336
L13.9264 54.3051
" />
<path d="M13.4026 54.3051
L14.4026 54.3051
" />
<path d="M14.4026 54.7813
L13.5931 54.7813
" />
<path d="M13.5931 54.7813
L13.4978 54.8289
" />
<path d="M13.4978 54.8289
L13.4502 54.8765
" />
<path d="M13.4502 54.8765
L13.4026 54.9717
" />
<path d="M13.4026 54.9717
L13.4026 55.1622
" />
<path d="M13.4026 55.1622
L13.4502 55.2575
" />
<path d="M13.4502 55.2575
L13.4978 55.3051
" />
<path d="M13.4978 55.3051
L13.5931 55.3527
" />
<path d="M13.5931 55.3527
L14.4026 55.3527
" />
<path d="M14.4026 55.6860
L14.4026 56.2575
" />
<path d="M13.4026 55.9717
L14.4026 55.9717
" />
</g></g>
<g style="fill:none; 
stroke:#0CE5D1; stroke-width:0.1500; stroke-opacity:1; 
stroke-linecap:round; stroke-linejoin:round;">
<text x="19.5250" y="46.0250"
textLength="2.2024" font-size="1.3333" lengthAdjust="spacingAndGlyphs"
text-anchor="middle" opacity="0" stroke-opacity="0">R2</text>
<g class="stroked-text"><desc>R2</desc>
<path d="M19.3583 45.9798
L19.0250 45.5036
" />
<path d="M18.7869 45.9798
L18.7869 44.9798
" />
<path d="M18.7869 44.9798
L19.1679 44.9798
" />
<path d="M19.1679 44.9798
L19.2631 45.0274
" />
<path d="M19.2631 45.0274
L19.3107 45.0751
" />
<path d="M19.3107 45.0751
L19.3583 45.1703
" />
<path d="M19.3583 45.1703
L19.3583 45.3132
" />
<path d="M19.3583 45.3132
L19.3107 45.4084
" />
<path d="M19.3107 45.4084
L19.2631 45.4560
" />
<path d="M19.2631 45.4560
L19.1679 45.5036
" />
<path d="M19.1679 45.5036
L18.7869 45.5036
" />
<path d="M19.7393 45.0751
L19.7869 45.0274
" />
<path d="M19.7869 45.0274
L19.8821 44.9798
" />
<path d="M19.8821 44.9798
L20.1202 44.9798
" />
<path d="M20.1202 44.9798
L20.2155 45.0274
" />
<path d="M20.2155 45.0274
L20.2631 45.0751
" />
<path d="M20.2631 45.0751
L20.3107 45.1703
" />
<path d="M20.3107 45.1703
L20.3107 45.2655
" />
<path d="M20.3107 45.2655
L20.2631 45.4084
" />
<path d="M20.2631 45.4084
L19.6917 45.9798
" />
<path d="M19.6917 45.9798
L20.3107 45.9798
" />
</g><text x="6.5250" y="50.0250"
textLength="2.2024" font-size="1.3333" lengthAdjust="spacingAndGlyphs"
text-anchor="middle" opacity="0" stroke-opacity="0">R1</text>
<g class="stroked-text"><desc>R1</desc>
<path d="M6.3583 49.9798
L6.0250 49.5036
" />
<path d="M5.7869 49.9798
L5.7869 48.9798
" />
<path d="M5.7869 48.9798
L6.1679 48.9798
" />
<path d="M6.1679 48.9798
L6.2631 49.0274
" />
<path d="M6.2631 49.0274
L6.3107 49.0751
" />
<path d="M6.3107 49.0751
L6.3583 49.1703
" />
<path d="M6.3583 49.1703
L6.3583 49.3132
" />
<path d="M6.3583 49.3132
L6.3107 49.4084
" />
<path d="M6.3107 49.4084
L6.2631 49.4560
" />
<path d="M6.2631 49.4560
L6.1679 49.5036
" />
<path d="M6.1679 49.5036
L5.7869 49.5036
" />
<path d="M7.3107 49.9798
L6.7393 49.9798
" />
<path d="M7.0250 49.9798
L7.0250 48.9798
" />
<path d="M7.0250 48.9798
L6.9298 49.1227
" />
<path d="M6.9298 49.1227
L6.8345 49.2179
" />
<path d="M6.8345 49.2179
L6.7393 49.2655
" />
</g><text x="6.0250" y="46.5250"
textLength="2.2500" font-size="1.3333" lengthAdjust="spacingAndGlyphs"
text-anchor="middle" opacity="0" stroke-opacity="0">Q2</text>
<g class="stroked-text"><desc>Q2</desc>
<path d="M5.9298 46.5751
L5.8345 46.5274
" />
<path d="M5.8345 46.5274
L5.7393 46.4322
" />
<path d="M5.7393 46.4322
L5.5964 46.2893
" />
<path d="M5.5964 46.2893
L5.5012 46.2417
" />
<path d="M5.5012 46.2417
L5.4060 46.2417
" />
<path d="M5.4536 46.4798
L5.3583 46.4322
" />
<path d="M5.3583 46.4322
L5.2631 46.3370
" />
<path d="M5.2631 46.3370
L5.2155 46.1465
" />
<path d="M5.2155 46.1465
L5.2155 45.8132
" />
<path d="M5.2155 45.8132
L5.2631 45.6227
" />
<path d="M5.2631 45.6227
L5.3583 45.5274
" />
<path d="M5.3583 45.5274
L5.4536 45.4798
" />
<path d="M5.4536 45.4798
L5.6440 45.4798
" />
<path d="M5.6440 45.4798
L5.7393 45.5274
" />
<path d="M5.7393 45.5274
L5.8345 45.6227
" />
<path d="M5.8345 45.6227
L5.8821 45.8132
" />
<path d="M5.8821 45.8132
L5.8821 46.1465
" />
<path d="M5.8821 46.1465
L5.8345 46.3370
" />
<path d="M5.8345 46.3370
L5.7393 46.4322
" />
<path d="M5.7393 46.4322
L5.6440 46.4798
" />
<path d="M5.6440 46.4798
L5.4536 46.4798
" />
<path d="M6.2631 45.5751
L6.3107 45.5274
" />
<path d="M6.3107 45.5274
L6.4060 45.4798
" />
<path d="M6.4060 45.4798
L6.6440 45.4798
" />
<path d="M6.6440 45.4798
L6.7393 45.5274
" />
<path d="M6.7393 45.5274
L6.7869 45.5751
" />
<path d="M6.7869 45.5751
L6.8345 45.6703
" />
<path d="M6.8345 45.6703
L6.8345 45.7655
" />
<path d="M6.8345 45.7655
L6.7869 45.9084
" />
<path d="M6.7869 45.9084
L6.2155 46.4798
" />
<path d="M6.2155 46.4798
L6.8345 46.4798
" />
</g><text x="19.5250" y="32.5250"
textLength="4.6310" font-size="1.3333" lengthAdjust="spacingAndGlyphs"
text-anchor="middle" opacity="0" stroke-opacity="0">DISP1</text>
<g class="stroked-text"><desc>DISP1</desc>
<path d="M17.5726 32.4798
L17.5726 31.4798
" />
<path d="M17.5726 31.4798
L17.8107 31.4798
" />
<path d="M17.8107 31.4798
L17.9536 31.5274
" />
<path d="M17.9536 31.5274
L18.0488 31.6227
" />
<path d="M18.0488 31.6227
L18.0964 31.7179
" />
<path d="M18.0964 31.7179
L18.1440 31.9084
" />
<path d="M18.1440 31.9084
L18.1440 32.0512
" />
<path d="M18.1440 32.0512
L18.0964 32.2417
" />
<path d="M18.0964 32.2417
L18.0488 32.3370
" />
<path d="M18.0488 32.3370
L17.9536 32.4322
" />
<path d="M17.9536 32.4322
L17.8107 32.4798
" />
<path d="M17.8107 32.4798
L17.5726 32.4798
" />
<path d="M18.5726 32.4798
L18.5726 31.4798
" />
<path d="M19.0012 32.4322
L19.1440 32.4798
" />
<path d="M19.1440 32.4798
L19.3821 32.4798
" />
<path d="M19.3821 32.4798
L19.4774 32.4322
" />
<path d="M19.4774 32.4322
L19.5250 32.3846
" />
<path d="M19.5250 32.3846
L19.5726 32.2893
" />
<path d="M19.5726 32.2893
L19.5726 32.1941
" />
<path d="M19.5726 32.1941
L19.5250 32.0989
" />
<path d="M19.5250 32.0989
L19.4774 32.0512
" />
<path d="M19.4774 32.0512
L19.3821 32.0036
" />
<path d="M19.3821 32.0036
L19.1917 31.9560
" />
<path d="M19.1917 31.9560
L19.0964 31.9084
" />
<path d="M19.0964 31.9084
L19.0488 31.8608
" />
<path d="M19.0488 31.8608
L19.0012 31.7655
" />
<path d="M19.0012 31.7655
L19.0012 31.6703
" />
<path d="M19.0012 31.6703
L19.0488 31.5751
" />
<path d="M19.0488 31.5751
L19.0964 31.5274
" />
<path d="M19.0964 31.5274
L19.1917 31.4798
" />
<path d="M19.1917 31.4798
L19.4298 31.4798
" />
<path d="M19.4298 31.4798
L19.5726 31.5274
" />
<path d="M20.0012 32.4798
L20.0012 31.4798
" />
<path d="M20.0012 31.4798
L20.3821 31.4798
" />
<path d="M20.3821 31.4798
L20.4774 31.5274
" />
<path d="M20.4774 31.5274
L20.5250 31.5751
" />
<path d="M20.5250 31.5751
L20.5726 31.6703
" />
<path d="M20.5726 31.6703
L20.5726 31.8132
" />
<path d="M20.5726 31.8132
L20.5250 31.9084
" />
<path d="M20.5250 31.9084
L20.4774 31.9560
" />
<path d="M20.4774 31.9560
L20.3821 32.0036
" />
<path d="M20.3821 32.0036
L20.0012 32.0036
" />
<path d="M21.5250 32.4798
L20.9536 32.4798
" />
<path d="M21.2393 32.4798
L21.2393 31.4798
" />
<path d="M21.2393 31.4798
L21.1440 31.6227
" />
<path d="M21.1440 31.6227
L21.0488 31.7179
" />
<path d="M21.0488 31.7179
L20.9536 31.7655
" />
</g><text x="21.9562" y="36.2496"
textLength="16.4881" font-size="1.3333" lengthAdjust="spacingAndGlyphs"
text-anchor="middle" opacity="0" stroke-opacity="0">128x32 OLED Display</text>
<g class="stroked-text"><desc>128x32 OLED Display</desc>
<path d="M14.5991 36.2044
L14.0276 36.2044
" />
<path d="M14.3133 36.2044
L14.3133 35.2044
" />
<path d="M14.3133 35.2044
L14.2181 35.3473
" />
<path d="M14.2181 35.3473
L14.1229 35.4425
" />
<path d="M14.1229 35.4425
L14.0276 35.4901
" />
<path d="M14.9800 35.2997
L15.0276 35.2520
" />
<path d="M15.0276 35.2520
L15.1229 35.2044
" />
<path d="M15.1229 35.2044
L15.3610 35.2044
" />
<path d="M15.3610 35.2044
L15.4562 35.2520
" />
<path d="M15.4562 35.2520
L15.5038 35.2997
" />
<path d="M15.5038 35.2997
L15.5514 35.3949
" />
<path d="M15.5514 35.3949
L15.5514 35.4901
" />
<path d="M15.5514 35.4901
L15.5038 35.6330
" />
<path d="M15.5038 35.6330
L14.9324 36.2044
" />
<path d="M14.9324 36.2044
L15.5514 36.2044
" />
<path d="M16.1229 35.6330
L16.0276 35.5854
" />
<path d="M16.0276 35.5854
L15.9800 35.5378
" />
<path d="M15.9800 35.5378
L15.9324 35.4425
" />
<path d="M15.9324 35.4425
L15.9324 35.3949
" />
<path d="M15.9324 35.3949
L15.9800 35.2997
" />
<path d="M15.9800 35.2997
L16.0276 35.2520
" />
<path d="M16.0276 35.2520
L16.1229 35.2044
" />
<path d="M16.1229 35.2044
L16.3133 35.2044
" />
<path d="M16.3133 35.2044
L16.4086 35.2520
" />
<path d="M16.4086 35.2520
L16.4562 35.2997
" />
<path d="M16.4562 35.2997
L16.5038 35.3949
" />
<path d="M16.5038 35.3949
L16.5038 35.4425
" />
<path d="M16.5038 35.4425
L16.4562 35.5378
" />
<path d="M16.4562 35.5378
L16.4086 35.5854
" />
<path d="M16.4086 35.5854
L16.3133 35.6330
" />
<path d="M16.3133 35.6330
L16.1229 35.6330
" />
<path d="M16.1229 35.6330
L16.0276 35.6806
" />
<path d="M16.0276 35.6806
L15.9800 35.7282
" />
<path d="M15.9800 35.7282
L15.9324 35.8235
" />
<path d="M15.9324 35.8235
L15.9324 36.0139
" />
<path d="M15.9324 36.0139
L15.9800 36.1092
" />
<path d="M15.9800 36.1092
L16.0276 36.1568
" />
<path d="M16.0276 36.1568
L16.1229 36.2044
" />
<path d="M16.1229 36.2044
L16.3133 36.2044
" />
<path d="M16.3133 36.2044
L16.4086 36.1568
" />
<path d="M16.4086 36.1568
L16.4562 36.1092
" />
<path d="M16.4562 36.1092
L16.5038 36.0139
" />
<path d="M16.5038 36.0139
L16.5038 35.8235
" />
<path d="M16.5038 35.8235
L16.4562 35.7282
" />
<path d="M16.4562 35.7282
L16.4086 35.6806
" />
<path d="M16.4086 35.6806
L16.3133 35.6330
" />
<path d="M16.8372 36.2044
L17.3610 35.5378
" />
<path d="M16.8372 35.5378
L17.3610 36.2044
" />
<path d="M17.6467 35.2044
L18.2657 35.2044
" />
<path d="M18.2657 35.2044
L17.9324 35.5854
" />
<path d="M17.9324 35.5854
L18.0752 35.5854
" />
<path d="M18.0752 35.5854
L18.1705 35.6330
" />
<path d="M18.1705 35.6330
L18.2181 35.6806
" />
<path d="M18.2181 35.6806
L18.2657 35.7758
" />
<path d="M18.2657 35.7758
L18.2657 36.0139
" />
<path d="M18.2657 36.0139
L18.2181 36.1092
" />
<path d="M18.2181 36.1092
L18.1705 36.1568
" />
<path d="M18.1705 36.1568
L18.0752 36.2044
" />
<path d="M18.0752 36.2044
L17.7895 36.2044
" />
<path d="M17.7895 36.2044
L17.6943 36.1568
" />
<path d="M17.6943 36.1568
L17.6467 36.1092
" />
<path d="M18.6467 35.2997
L18.6943 35.2520
" />
<path d="M18.6943 35.2520
L18.7895 35.2044
" />
<path d="M18.7895 35.2044
L19.0276 35.2044
" />
<path d="M19.0276 35.2044
L19.1229 35.2520
" />
<path d="M19.1229 35.2520
L19.1705 35.2997
" />
<path d="M19.1705 35.2997
L19.2181 35.3949
" />
<path d="M19.2181 35.3949
L19.2181 35.4901
" />
<path d="M19.2181 35.4901
L19.1705 35.6330
" />
<path d="M19.1705 35.6330
L18.5991 36.2044
" />
<path d="M18.5991 36.2044
L19.2181 36.2044
" />
<path d="M20.5991 35.2044
L20.7895 35.2044
" />
<path d="M20.7895 35.2044
L20.8848 35.2520
" />
<path d="M20.8848 35.2520
L20.9800 35.3473
" />
<path d="M20.9800 35.3473
L21.0276 35.5378
" />
<path d="M21.0276 35.5378
L21.0276 35.8711
" />
<path d="M21.0276 35.8711
L20.9800 36.0616
" />
<path d="M20.9800 36.0616
L20.8848 36.1568
" />
<path d="M20.8848 36.1568
L20.7895 36.2044
" />
<path d="M20.7895 36.2044
L20.5991 36.2044
" />
<path d="M20.5991 36.2044
L20.5038 36.1568
" />
<path d="M20.5038 36.1568
L20.4086 36.0616
" />
<path d="M20.4086 36.0616
L20.3610 35.8711
" />
<path d="M20.3610 35.8711
L20.3610 35.5378
" />
<path d="M20.3610 35.5378
L20.4086 35.3473
" />
<path d="M20.4086 35.3473
L20.5038 35.2520
" />
<path d="M20.5038 35.2520
L20.5991 35.2044
" />
<path d="M21.9324 36.2044
L21.4562 36.2044
" />
<path d="M21.4562 36.2044
L21.4562 35.2044
" />
<path d="M22.2657 35.6806
L22.5991 35.6806
" />
<path d="M22.7419 36.2044
L22.2657 36.2044
" />
<path d="M22.2657 36.2044
L22.2657 35.2044
" />
<path d="M22.2657 35.2044
L22.7419 35.2044
" />
<path d="M23.1705 36.2044
L23.1705 35.2044
" />
<path d="M23.1705 35.2044
L23.4086 35.2044
" />
<path d="M23.4086 35.2044
L23.5514 35.2520
" />
<path d="M23.5514 35.2520
L23.6467 35.3473
" />
<path d="M23.6467 35.3473
L23.6943 35.4425
" />
<path d="M23.6943 35.4425
L23.7419 35.6330
" />
<path d="M23.7419 35.6330
L23.7419 35.7758
" />
<path d="M23.7419 35.7758
L23.6943 35.9663
" />
<path d="M23.6943 35.9663
L23.6467 36.0616
" />
<path d="M23.6467 36.0616
L23.5514 36.1568
" />
<path d="M23.5514 36.1568
L23.4086 36.2044
" />
<path d="M23.4086 36.2044
L23.1705 36.2044
" />
<path d="M24.9324 36.2044
L24.9324 35.2044
" />
<path d="M24.9324 35.2044
L25.1705 35.2044
" />
<path d="M25.1705 35.2044
L25.3133 35.2520
" />
<path d="M25.3133 35.2520
L25.4086 35.3473
" />
<path d="M25.4086 35.3473
L25.4562 35.4425
" />
<path d="M25.4562 35.4425
L25.5038 35.6330
" />
<path d="M25.5038 35.6330
L25.5038 35.7758
" />
<path d="M25.5038 35.7758
L25.4562 35.9663
" />
<path d="M25.4562 35.9663
L25.4086 36.0616
" />
<path d="M25.4086 36.0616
L25.3133 36.1568
" />
<path d="M25.3133 36.1568
L25.1705 36.2044
" />
<path d="M25.1705 36.2044
L24.9324 36.2044
" />
<path d="M25.9324 36.2044
L25.9324 35.5378
" />
<path d="M25.9324 35.2044
L25.8848 35.2520
" />
<path d="M25.8848 35.2520
L25.9324 35.2997
" />
<path d="M25.9324 35.2997
L25.9800 35.2520
" />
<path d="M25.9800 35.2520
L25.9324 35.2044
" />
<path d="M25.9324 35.2044
L25.9324 35.2997
" />
<path d="M26.3610 36.1568
L26.4562 36.2044
" />
<path d="M26.4562 36.2044
L26.6467 36.2044
" />
<path d="M26.6467 36.2044
L26.7419 36.1568
" />
<path d="M26.7419 36.1568
L26.7895 36.0616
" />
<path d="M26.7895 36.0616
L26.7895 36.0139
" />
<path d="M26.7895 36.0139
L26.7419 35.9187
" />
<path d="M26.7419 35.9187
L26.6467 35.8711
" />
<path d="M26.6467 35.8711
L26.5038 35.8711
" />
<path d="M26.5038 35.8711
L26.4086 35.8235
" />
<path d="M26.4086 35.8235
L26.3610 35.7282
" />
<path d="M26.3610 35.7282
L26.3610 35.6806
" />
<path d="M26.3610 35.6806
L26.4086 35.5854
" />
<path d="M26.4086 35.5854
L26.5038 35.5378
" />
<path d="M26.5038 35.5378
L26.6467 35.5378
" />
<path d="M26.6467 35.5378
L26.7419 35.5854
" />
<path d="M27.2181 35.5378
L27.2181 36.5378
" />
<path d="M27.2181 35.5854
L27.3133 35.5378
" />
<path d="M27.3133 35.5378
L27.5038 35.5378
" />
<path d="M27.5038 35.5378
L27.5991 35.5854
" />
<path d="M27.5991 35.5854
L27.6467 35.6330
" />
<path d="M27.6467 35.6330
L27.6943 35.7282
" />
<path d="M27.6943 35.7282
L27.6943 36.0139
" />
<path d="M27.6943 36.0139
L27.6467 36.1092
" />
<path d="M27.6467 36.1092
L27.5991 36.1568
" />
<path d="M27.5991 36.1568
L27.5038 36.2044
" />
<path d="M27.5038 36.2044
L27.3133 36.2044
" />
<path d="M27.3133 36.2044
L27.2181 36.1568
" />
<path d="M28.2657 36.2044
L28.1705 36.1568
" />
<path d="M28.1705 36.1568
L28.1229 36.0616
" />
<path d="M28.1229 36.0616
L28.1229 35.2044
" />
<path d="M29.0752 36.2044
L29.0752 35.6806
" />
<path d="M29.0752 35.6806
L29.0276 35.5854
" />
<path d="M29.0276 35.5854
L28.9324 35.5378
" />
<path d="M28.9324 35.5378
L28.7419 35.5378
" />
<path d="M28.7419 35.5378
L28.6467 35.5854
" />
<path d="M29.0752 36.1568
L28.9800 36.2044
" />
<path d="M28.9800 36.2044
L28.7419 36.2044
" />
<path d="M28.7419 36.2044
L28.6467 36.1568
" />
<path d="M28.6467 36.1568
L28.5991 36.0616
" />
<path d="M28.5991 36.0616
L28.5991 35.9663
" />
<path d="M28.5991 35.9663
L28.6467 35.8711
" />
<path d="M28.6467 35.8711
L28.7419 35.8235
" />
<path d="M28.7419 35.8235
L28.9800 35.8235
" />
<path d="M28.9800 35.8235
L29.0752 35.7758
" />
<path d="M29.4562 35.5378
L29.6943 36.2044
" />
<path d="M29.9324 35.5378
L29.6943 36.2044
" />
<path d="M29.6943 36.2044
L29.5991 36.4425
" />
<path d="M29.5991 36.4425
L29.5514 36.4901
" />
<path d="M29.5514 36.4901
L29.4562 36.5378
" />
</g><text x="22.0250" y="14.0250"
textLength="2.2500" font-size="1.3333" lengthAdjust="spacingAndGlyphs"
text-anchor="middle" opacity="0" stroke-opacity="0">U1</text>
<g class="stroked-text"><desc>U1</desc>
<path d="M21.2631 12.9798
L21.2631 13.7893
" />
<path d="M21.2631 13.7893
L21.3107 13.8846
" />
<path d="M21.3107 13.8846
L21.3583 13.9322
" />
<path d="M21.3583 13.9322
L21.4536 13.9798
" />
<path d="M21.4536 13.9798
L21.6440 13.9798
" />
<path d="M21.6440 13.9798
L21.7393 13.9322
" />
<path d="M21.7393 13.9322
L21.7869 13.8846
" />
<path d="M21.7869 13.8846
L21.8345 13.7893
" />
<path d="M21.8345 13.7893
L21.8345 12.9798
" />
<path d="M22.8345 13.9798
L22.2631 13.9798
" />
<path d="M22.5488 13.9798
L22.5488 12.9798
" />
<path d="M22.5488 12.9798
L22.4536 13.1227
" />
<path d="M22.4536 13.1227
L22.3583 13.2179
" />
<path d="M22.3583 13.2179
L22.2631 13.2655
" />
</g><text x="17.0250" y="29.0250"
textLength="2.2024" font-size="1.3333" lengthAdjust="spacingAndGlyphs"
text-anchor="middle" opacity="0" stroke-opacity="0">D1</text>
<g class="stroked-text"><desc>D1</desc>
<path d="M16.2869 28.9798
L16.2869 27.9798
" />
<path d="M16.2869 27.9798
L16.5250 27.9798
" />
<path d="M16.5250 27.9798
L16.6679 28.0274
" />
<path d="M16.6679 28.0274
L16.7631 28.1227
" />
<path d="M16.7631 28.1227
L16.8107 28.2179
" />
<path d="M16.8107 28.2179
L16.8583 28.4084
" />
<path d="M16.8583 28.4084
L16.8583 28.5512
" />
<path d="M16.8583 28.5512
L16.8107 28.7417
" />
<path d="M16.8107 28.7417
L16.7631 28.8370
" />
<path d="M16.7631 28.8370
L16.6679 28.9322
" />
<path d="M16.6679 28.9322
L16.5250 28.9798
" />
<path d="M16.5250 28.9798
L16.2869 28.9798
" />
<path d="M17.8107 28.9798
L17.2393 28.9798
" />
<path d="M17.5250 28.9798
L17.5250 27.9798
" />
<path d="M17.5250 27.9798
L17.4298 28.1227
" />
<path d="M17.4298 28.1227
L17.3345 28.2179
" />
<path d="M17.3345 28.2179
L17.2393 28.2655
" />
</g></g>
<g style="fill:none; 
stroke:#0CE5D1; stroke-width:0.1000; stroke-opacity:1; 
stroke-linecap:round; stroke-linejoin:round;">
<path d="M29.5750 51.5250
L27.2750 51.5250
" />
<path d="M29.5250 56.5250
L27.2750 56.5250
" />
</g>
<g style="fill:none; 
stroke:#0CE5D1; stroke-width:0.1200; stroke-opacity:1; 
stroke-linecap:round; stroke-linejoin:round;">
<path d="M27.2750 59.5250
L12.7750 59.5250
" />
<path d="M27.2750 56.5250
L27.2750 59.5250
" />
</g>
<g style="fill:none; 
stroke:#0CE5D1; stroke-width:0.1000; stroke-opacity:1; 
stroke-linecap:round; stroke-linejoin:round;">
<path d="M27.2750 48.5250
L27.2750 51.5250
" />
</g>
<g style="fill:none; 
stroke:#0CE5D1; stroke-width:0.1200; stroke-opacity:1; 
stroke-linecap:round; stroke-linejoin:round;">
<path d="M12.7750 56.5250
L12.7750 59.5250
" />
<path d="M12.7750 48.5250
L27.2750 48.5250
" />
</g>
<g style="fill:none; 
stroke:#0CE5D1; stroke-width:0.1000; stroke-opacity:1; 
stroke-linecap:round; stroke-linejoin:round;">
<path d="M12.7750 48.5250
L12.7750 51.5250
" />
<path d="M10.5250 56.5250
L12.7750 56.5250
" />
<path d="M10.5250 51.5250
L12.7750 51.5250
" />
<path d="M29.5250 56.5250 A2.5000 2.5000 0.0 0 0 29.5250 51.5250" />
<path d="M10.5250 51.5250 A2.5000 2.5000 0.0 0 0 10.5250 56.5250" />
<circle cx="29.5250" cy="54.0250" r="1.2500" /> 
<circle cx="10.5250" cy="54.0250" r="1.2500" /> 
</g>
<g style="fill:none; 
stroke:#0CE5D1; stroke-width:0.1200; stroke-opacity:1; 
stroke-linecap:round; stroke-linejoin:round;">
<path d="M15.8854 44.7900
L16.3396 44.7900
" />
<path d="M15.8854 46.2600
L16.3396 46.2600
" />
<path d="M9.3854 48.7900
L9.8396 48.7900
" />
<path d="M9.3854 50.2600
L9.8396 50.2600
" />
<path d="M10.0250 44.0275
L9.3750 44.0275
" />
<path d="M10.0250 44.0275
L10.6750 44.0275
" />
<path d="M10.0250 47.1475
L9.3750 47.1475
" />
<path d="M10.0250 47.1475
L10.6750 47.1475
" />
<path style="fill:#0CE5D1; fill-opacity:1.0000; 
stroke:#0CE5D1; stroke-width:0.1200; stroke-opacity:1; 
stroke-linecap:round; stroke-linejoin:round;fill-rule:evenodd;"
d="M 11.4275,47.4275
10.9475,47.4275
11.1875,47.0975
Z" /> 
<path style="fill:none; 
stroke:#0CE5D1; stroke-width:0.1200; stroke-opacity:1; 
stroke-linecap:round; stroke-linejoin:round;fill:none"
d="M 0.9250,42.1250
39.1250,42.1250
39.1250,29.9250
0.9250,29.9250
Z" /> 
</g>
<g style="fill:none; 
stroke:#0CE5D1; stroke-width:0.1200; stroke-opacity:1; 
stroke-linecap:round; stroke-linejoin:round;">
<path d="M2.5250 3.2850
L2.5250 24.8950
" />
<path d="M30.0850 24.4850
L36.9850 24.4850
" />
<path d="M30.0850 27.0250
L4.6550 27.0250
" />
<path d="M30.0850 27.0250
L30.0850 24.4850
" />
<path d="M36.9850 1.1650
L4.6550 1.1650
" />
<path d="M36.9850 24.4850
L36.9850 1.1650
" />
<path d="M4.6550 1.1650 A2.1300 2.1300 0.0 0 0 2.5250 3.2950" />
<path d="M2.5250 24.8950 A2.1300 2.1300 0.0 0 0 4.6550 27.0250" />
<path style="fill:#0CE5D1; fill-opacity:1.0000; 
stroke:#0CE5D1; stroke-width:0.1500; stroke-opacity:1; 
stroke-linecap:round; stroke-linejoin:round;fill-rule:evenodd;"
d="M 11.5000,28.0650
10.2300,28.0650
10.8650,27.4300
Z" /> 
</g>
<g style="fill:none; 
stroke:#0CE5D1; stroke-width:0.1200; stroke-opacity:1; 
stroke-linecap:round; stroke-linejoin:round;">
<path d="M14.3396 27.7900
L13.8854 27.7900
" />
<path d="M14.3396 29.2600
L13.8854 29.2600
" />
</g>
<g style="fill:#0CE5D1; fill-opacity:1.0000; stroke:none;">
<circle cx="26.3750" cy="49.7750" r="0.4000" /> 
</g>
<g style="fill:#0CE5D1; fill-opacity:1.0000; stroke:none;">
<circle cx="23.8350" cy="49.7750" r="0.4000" /> 
</g>
<g style="fill:#0CE5D1; fill-opacity:1.0000; stroke:none;">
<circle cx="21.2950" cy="49.7750" r="0.4000" /> 
</g>
<g style="fill:#0CE5D1; fill-opacity:1.0000; stroke:none;">
<circle cx="18.7550" cy="49.7750" r="0.4000" /> 
</g>
<g style="fill:#0CE5D1; fill-opacity:1.0000; stroke:none;">
<circle cx="16.2150" cy="49.7750" r="0.4000" /> 
</g>
<g style="fill:#0CE5D1; fill-opacity:1.0000; stroke:none;">
<circle cx="13.6750" cy="49.7750" r="0.4000" /> 
</g>
<g style="fill:#0CE5D1; fill-opacity:1.0000; stroke:none;">
<circle cx="2.4250" cy="39.9250" r="0.3810" /> 
</g>
<g style="fill:#0CE5D1; fill-opacity:1.0000; stroke:none;">
<circle cx="2.4250" cy="37.3850" r="0.3810" /> 
</g>
<g style="fill:#0CE5D1; fill-opacity:1.0000; stroke:none;">
<circle cx="2.4250" cy="34.8450" r="0.3810" /> 
</g>
<g style="fill:#0CE5D1; fill-opacity:1.0000; stroke:none;">
<circle cx="2.4250" cy="32.3050" r="0.3810" /> 
</g>
<g style="fill:#0CE5D1; fill-opacity:1.0000; stroke:none;">
<circle cx="10.8650" cy="25.5250" r="0.5000" /> 
</g>
<g style="fill:#0CE5D1; fill-opacity:1.0000; stroke:none;">
<circle cx="13.4050" cy="25.5250" r="0.5000" /> 
</g>
<g style="fill:#0CE5D1; fill-opacity:1.0000; stroke:none;">
<circle cx="15.9450" cy="25.5250" r="0.5000" /> 
</g>
<g style="fill:#0CE5D1; fill-opacity:1.0000; stroke:none;">
<circle cx="18.4850" cy="25.5250" r="0.5000" /> 
</g>
<g style="fill:#0CE5D1; fill-opacity:1.0000; stroke:none;">
<circle cx="21.0250" cy="25.5250" r="0.5000" /> 
</g>
<g style="fill:#0CE5D1; fill-opacity:1.0000; stroke:none;">
<circle cx="23.5650" cy="25.5250" r="0.5000" /> 
</g>
<g style="fill:#0CE5D1; fill-opacity:1.0000; stroke:none;">
<circle cx="26.1050" cy="25.5250" r="0.5000" /> 
</g>
<g style="fill:#0CE5D1; fill-opacity:1.0000; stroke:none;">
<circle cx="28.6450" cy="25.5250" r="0.5000" /> 
</g>
<g style="fill:#0CE5D1; fill-opacity:1.0000; stroke:none;">
<circle cx="28.6450" cy="2.6650" r="0.5000" /> 
</g>
<g style="fill:#0CE5D1; fill-opacity:1.0000; stroke:none;">
<circle cx="26.1050" cy="2.6650" r="0.5000" /> 
</g>
<g style="fill:#0CE5D1; fill-opacity:1.0000; stroke:none;">
<circle cx="23.5650" cy="2.6650" r="0.5000" /> 
</g>
<g style="fill:#0CE5D1; fill-opacity:1.0000; stroke:none;">
<circle cx="21.0250" cy="2.6650" r="0.5000" /> 
</g>
<g style="fill:#0CE5D1; fill-opacity:1.0000; stroke:none;">
<circle cx="18.4850" cy="2.6650" r="0.5000" /> 
</g>
<g style="fill:#0CE5D1; fill-opacity:1.0000; stroke:none;">
<circle cx="15.9450" cy="2.6650" r="0.5000" /> 
</g>
<g style="fill:#0CE5D1; fill-opacity:1.0000; stroke:none;">
<circle cx="13.4050" cy="2.6650" r="0.5000" /> 
</g>
<g style="fill:#0CE5D1; fill-opacity:1.0000; stroke:none;">
<circle cx="10.8650" cy="2.6650" r="0.5000" /> 
</g>
<g style="fill:none; 
stroke:#FF26E2; stroke-width:0.1000; stroke-opacity:1; 
stroke-linecap:round; stroke-linejoin:round;">
<path d="M29.5250 56.5250
L27.2750 56.5250
" />
<path d="M29.5250 51.5250
L27.2750 51.5250
" />
</g>
<g style="fill:none; 
stroke:#FF26E2; stroke-width:0.1200; stroke-opacity:1; 
stroke-linecap:round; stroke-linejoin:round;">
<path d="M27.2750 59.5250
L12.7750 59.5250
" />
<path d="M27.2750 56.5250
L27.2750 59.5250
" />
</g>
<g style="fill:none; 
stroke:#FF26E2; stroke-width:0.1000; stroke-opacity:1; 
stroke-linecap:round; stroke-linejoin:round;">
<path d="M27.2750 48.5250
L27.2750 51.5250
" />
</g>
<g style="fill:none; 
stroke:#FF26E2; stroke-width:0.1200; stroke-opacity:1; 
stroke-linecap:round; stroke-linejoin:round;">
<path d="M12.7750 56.5250
L12.7750 59.5250
" />
<path d="M12.7750 48.5250
L27.2750 48.5250
" />
</g>
<g style="fill:none; 
stroke:#FF26E2; stroke-width:0.1000; stroke-opacity:1; 
stroke-linecap:round; stroke-linejoin:round;">
<path d="M12.7750 48.5250
L12.7750 51.5250
" />
<path d="M10.5250 56.5250
L12.7750 56.5250
" />
<path d="M10.5250 51.5250
L12.7750 51.5250
" />
<path d="M29.5250 56.5250 A2.5000 2.5000 0.0 0 0 29.5250 51.5250" />
<path d="M10.5250 51.5250 A2.5000 2.5000 0.0 0 0 10.5250 56.5250" />
<circle cx="29.5250" cy="54.0250" r="1.2500" /> 
<circle cx="10.5250" cy="54.0250" r="1.2500" /> 
</g>
<g style="fill:none; 
stroke:#FF26E2; stroke-width:0.0500; stroke-opacity:1; 
stroke-linecap:round; stroke-linejoin:round;">
<path d="M14.4325 44.5750
L17.7925 44.5750
" />
<path d="M14.4325 46.4750
L14.4325 44.5750
" />
<path d="M17.7925 44.5750
L17.7925 46.4750
" />
<path d="M17.7925 46.4750
L14.4325 46.4750
" />
<path d="M7.9325 48.5750
L11.2925 48.5750
" />
<path d="M7.9325 50.4750
L7.9325 48.5750
" />
<path d="M11.2925 48.5750
L11.2925 50.4750
" />
<path d="M11.2925 50.4750
L7.9325 50.4750
" />
<path d="M8.1050 43.8875
L8.1050 47.2875
" />
<path d="M8.1050 47.2875
L11.9450 47.2875
" />
<path d="M11.9450 43.8875
L8.1050 43.8875
" />
<path d="M11.9450 47.2875
L11.9450 43.8875
" />
<path d="M2.4050 1.0450
L37.1050 1.0450
" />
<path d="M2.4050 27.1450
L2.4050 1.0450
" />
<path d="M37.1050 1.0450
L37.1050 27.1450
" />
<path d="M37.1050 27.1450
L2.4050 27.1450
" />
<path d="M12.4325 27.5750
L15.7925 27.5750
" />
<path d="M12.4325 29.4750
L12.4325 27.5750
" />
<path d="M15.7925 27.5750
L15.7925 29.4750
" />
<path d="M15.7925 29.4750
L12.4325 29.4750
" />
</g>
<g style="fill:#FF26E2; fill-opacity:1.0000; stroke:none;">
<circle cx="26.3750" cy="49.7750" r="0.4000" /> 
</g>
<g style="fill:#FF26E2; fill-opacity:1.0000; stroke:none;">
<circle cx="23.8350" cy="49.7750" r="0.4000" /> 
</g>
<g style="fill:#FF26E2; fill-opacity:1.0000; stroke:none;">
<circle cx="21.2950" cy="49.7750" r="0.4000" /> 
</g>
<g style="fill:#FF26E2; fill-opacity:1.0000; stroke:none;">
<circle cx="18.7550" cy="49.7750" r="0.4000" /> 
</g>
<g style="fill:#FF26E2; fill-opacity:1.0000; stroke:none;">
<circle cx="16.2150" cy="49.7750" r="0.4000" /> 
</g>
<g style="fill:#FF26E2; fill-opacity:1.0000; stroke:none;">
<circle cx="13.6750" cy="49.7750" r="0.4000" /> 
</g>
<g style="fill:#FF26E2; fill-opacity:1.0000; stroke:none;">
<circle cx="2.4250" cy="39.9250" r="0.3810" /> 
</g>
<g style="fill:#FF26E2; fill-opacity:1.0000; stroke:none;">
<circle cx="2.4250" cy="37.3850" r="0.3810" /> 
</g>
<g style="fill:#FF26E2; fill-opacity:1.0000; stroke:none;">
<circle cx="2.4250" cy="34.8450" r="0.3810" /> 
</g>
<g style="fill:#FF26E2; fill-opacity:1.0000; stroke:none;">
<circle cx="2.4250" cy="32.3050" r="0.3810" /> 
</g>
<g style="fill:#FF26E2; fill-opacity:1.0000; stroke:none;">
<circle cx="10.8650" cy="25.5250" r="0.5000" /> 
</g>
<g style="fill:#FF26E2; fill-opacity:1.0000; stroke:none;">
<circle cx="13.4050" cy="25.5250" r="0.5000" /> 
</g>
<g style="fill:#FF26E2; fill-opacity:1.0000; stroke:none;">
<circle cx="15.9450" cy="25.5250" r="0.5000" /> 
</g>
<g style="fill:#FF26E2; fill-opacity:1.0000; stroke:none;">
<circle cx="18.4850" cy="25.5250" r="0.5000" /> 
</g>
<g style="fill:#FF26E2; fill-opacity:1.0000; stroke:none;">
<circle cx="21.0250" cy="25.5250" r="0.5000" /> 
</g>
<g style="fill:#FF26E2; fill-opacity:1.0000; stroke:none;">
<circle cx="23.5650" cy="25.5250" r="0.5000" /> 
</g>
<g style="fill:#FF26E2; fill-opacity:1.0000; stroke:none;">
<circle cx="26.1050" cy="25.5250" r="0.5000" /> 
</g>
<g style="fill:#FF26E2; fill-opacity:1.0000; stroke:none;">
<circle cx="28.6450" cy="25.5250" r="0.5000" /> 
</g>
<g style="fill:#FF26E2; fill-opacity:1.0000; stroke:none;">
<circle cx="28.6450" cy="2.6650" r="0.5000" /> 
</g>
<g style="fill:#FF26E2; fill-opacity:1.0000; stroke:none;">
<circle cx="26.1050" cy="2.6650" r="0.5000" /> 
</g>
<g style="fill:#FF26E2; fill-opacity:1.0000; stroke:none;">
<circle cx="23.5650" cy="2.6650" r="0.5000" /> 
</g>
<g style="fill:#FF26E2; fill-opacity:1.0000; stroke:none;">
<circle cx="21.0250" cy="2.6650" r="0.5000" /> 
</g>
<g style="fill:#FF26E2; fill-opacity:1.0000; stroke:none;">
<circle cx="18.4850" cy="2.6650" r="0.5000" /> 
</g>
<g style="fill:#FF26E2; fill-opacity:1.0000; stroke:none;">
<circle cx="15.9450" cy="2.6650" r="0.5000" /> 
</g>
<g style="fill:#FF26E2; fill-opacity:1.0000; stroke:none;">
<circle cx="13.4050" cy="2.6650" r="0.5000" /> 
</g>
<g style="fill:#FF26E2; fill-opacity:1.0000; stroke:none;">
<circle cx="10.8650" cy="2.6650" r="0.5000" /> 
<path style="fill:none; 
stroke:#0B0B0B; stroke-width:0.0500; stroke-opacity:1; 
stroke-linecap:round; stroke-linejoin:round;fill:none"
d="M 0.0250,0.0250
40.0250,0.0250
40.0250,60.5250
0.0250,60.5250
Z" /> 
</g>
<g style="fill:#0B0B0B; fill-opacity:1.0000; stroke:none;">
<circle cx="26.3750" cy="49.7750" r="0.4000" /> 
</g>
<g style="fill:#0B0B0B; fill-opacity:1.0000; stroke:none;">
<circle cx="23.8350" cy="49.7750" r="0.4000" /> 
</g>
<g style="fill:#0B0B0B; fill-opacity:1.0000; stroke:none;">
<circle cx="21.2950" cy="49.7750" r="0.4000" /> 
</g>
<g style="fill:#0B0B0B; fill-opacity:1.0000; stroke:none;">
<circle cx="18.7550" cy="49.7750" r="0.4000" /> 
</g>
<g style="fill:#0B0B0B; fill-opacity:1.0000; stroke:none;">
<circle cx="16.2150" cy="49.7750" r="0.4000" /> 
</g>
<g style="fill:#0B0B0B; fill-opacity:1.0000; stroke:none;">
<circle cx="13.6750" cy="49.7750" r="0.4000" /> 
</g>
<g style="fill:#0B0B0B; fill-opacity:1.0000; stroke:none;">
<circle cx="2.4250" cy="39.9250" r="0.3810" /> 
</g>
<g style="fill:#0B0B0B; fill-opacity:1.0000; stroke:none;">
<circle cx="2.4250" cy="37.3850" r="0.3810" /> 
</g>
<g style="fill:#0B0B0B; fill-opacity:1.0000; stroke:none;">
<circle cx="2.4250" cy="34.8450" r="0.3810" /> 
</g>
<g style="fill:#0B0B0B; fill-opacity:1.0000; stroke:none;">
<circle cx="2.4250" cy="32.3050" r="0.3810" /> 
</g>
<g style="fill:#0B0B0B; fill-opacity:1.0000; stroke:none;">
<circle cx="10.8650" cy="25.5250" r="0.5000" /> 
</g>
<g style="fill:#0B0B0B; fill-opacity:1.0000; stroke:none;">
<circle cx="13.4050" cy="25.5250" r="0.5000" /> 
</g>
<g style="fill:#0B0B0B; fill-opacity:1.0000; stroke:none;">
<circle cx="15.9450" cy="25.5250" r="0.5000" /> 
</g>
<g style="fill:#0B0B0B; fill-opacity:1.0000; stroke:none;">
<circle cx="18.4850" cy="25.5250" r="0.5000" /> 
</g>
<g style="fill:#0B0B0B; fill-opacity:1.0000; stroke:none;">
<circle cx="21.0250" cy="25.5250" r="0.5000" /> 
</g>
<g style="fill:#0B0B0B; fill-opacity:1.0000; stroke:none;">
<circle cx="23.5650" cy="25.5250" r="0.5000" /> 
</g>
<g style="fill:#0B0B0B; fill-opacity:1.0000; stroke:none;">
<circle cx="26.1050" cy="25.5250" r="0.5000" /> 
</g>
<g style="fill:#0B0B0B; fill-opacity:1.0000; stroke:none;">
<circle cx="28.6450" cy="25.5250" r="0.5000" /> 
</g>
<g style="fill:#0B0B0B; fill-opacity:1.0000; stroke:none;">
<circle cx="28.6450" cy="2.6650" r="0.5000" /> 
</g>
<g style="fill:#0B0B0B; fill-opacity:1.0000; stroke:none;">
<circle cx="26.1050" cy="2.6650" r="0.5000" /> 
</g>
<g style="fill:#0B0B0B; fill-opacity:1.0000; stroke:none;">
<circle cx="23.5650" cy="2.6650" r="0.5000" /> 
</g>
<g style="fill:#0B0B0B; fill-opacity:1.0000; stroke:none;">
<circle cx="21.0250" cy="2.6650" r="0.5000" /> 
</g>
<g style="fill:#0B0B0B; fill-opacity:1.0000; stroke:none;">
<circle cx="18.4850" cy="2.6650" r="0.5000" /> 
</g>
<g style="fill:#0B0B0B; fill-opacity:1.0000; stroke:none;">
<circle cx="15.9450" cy="2.6650" r="0.5000" /> 
</g>
<g style="fill:#0B0B0B; fill-opacity:1.0000; stroke:none;">
<circle cx="13.4050" cy="2.6650" r="0.5000" /> 
</g>
<g style="fill:#0B0B0B; fill-opacity:1.0000; stroke:none;">
<circle cx="10.8650" cy="2.6650" r="0.5000" /> 
<path style="fill:#C83434; fill-opacity:1.0000; stroke:none;fill-rule:evenodd;"
d="M 26.9750,48.7750
26.9750,50.7750
25.7750,50.7750
25.7750,48.7750
Z" /> 
</g>
<g style="fill:none; 
stroke:#C83434; stroke-width:1.2000; stroke-opacity:1; 
stroke-linecap:round; stroke-linejoin:round;">
<path d="M23.8350 50.1750
L23.8350 49.3750
" />
<path d="M21.2950 50.1750
L21.2950 49.3750
" />
<path d="M18.7550 50.1750
L18.7550 49.3750
" />
<path d="M16.2150 50.1750
L16.2150 49.3750
" />
<path d="M13.6750 50.1750
L13.6750 49.3750
" />
<path style="fill:#C83434; fill-opacity:1.0000; stroke:none;fill-rule:evenodd;"
d="M 14.6875,45.0750
14.7065,44.9793
14.7607,44.8982
14.8418,44.8440
14.9375,44.8250
15.4625,44.8250
15.5582,44.8440
15.6393,44.8982
15.6935,44.9793
15.7125,45.0750
15.7125,45.9750
15.6935,46.0707
15.6393,46.1518
15.5582,46.2060
15.4625,46.2250
14.9375,46.2250
14.8418,46.2060
14.7607,46.1518
14.7065,46.0707
14.6875,45.9750
Z" /> 
<path style="fill:#C83434; fill-opacity:1.0000; stroke:none;fill-rule:evenodd;"
d="M 16.5125,45.0750
16.5315,44.9793
16.5857,44.8982
16.6668,44.8440
16.7625,44.8250
17.2875,44.8250
17.3832,44.8440
17.4643,44.8982
17.5185,44.9793
17.5375,45.0750
17.5375,45.9750
17.5185,46.0707
17.4643,46.1518
17.3832,46.2060
17.2875,46.2250
16.7625,46.2250
16.6668,46.2060
16.5857,46.1518
16.5315,46.0707
16.5125,45.9750
Z" /> 
<path style="fill:#C83434; fill-opacity:1.0000; stroke:none;fill-rule:evenodd;"
d="M 8.1875,49.0750
8.2065,48.9793
8.2607,48.8982
8.3418,48.8440
8.4375,48.8250
8.9625,48.8250
9.0582,48.8440
9.1393,48.8982
9.1935,48.9793
9.2125,49.0750
9.2125,49.9750
9.1935,50.0707
9.1393,50.1518
9.0582,50.2060
8.9625,50.2250
8.4375,50.2250
8.3418,50.2060
8.2607,50.1518
8.2065,50.0707
8.1875,49.9750
Z" /> 
<path style="fill:#C83434; fill-opacity:1.0000; stroke:none;fill-rule:evenodd;"
d="M 10.0125,49.0750
10.0315,48.9793
10.0857,48.8982
10.1668,48.8440
10.2625,48.8250
10.7875,48.8250
10.8832,48.8440
10.9643,48.8982
11.0185,48.9793
11.0375,49.0750
11.0375,49.9750
11.0185,50.0707
10.9643,50.1518
10.8832,50.2060
10.7875,50.2250
10.2625,50.2250
10.1668,50.2060
10.0857,50.1518
10.0315,50.0707
10.0125,49.9750
Z" /> 
<path style="fill:#C83434; fill-opacity:1.0000; stroke:none;fill-rule:evenodd;"
d="M 11.7000,46.6875
11.6886,46.7449
11.6561,46.7936
11.6074,46.8261
11.5500,46.8375
10.3750,46.8375
10.3176,46.8261
10.2689,46.7936
10.2364,46.7449
10.2250,46.6875
10.2250,46.3875
10.2364,46.3301
10.2689,46.2814
10.3176,46.2489
10.3750,46.2375
11.5500,46.2375
11.6074,46.2489
11.6561,46.2814
11.6886,46.3301
11.7000,46.3875
Z" /> 
<path style="fill:#C83434; fill-opacity:1.0000; stroke:none;fill-rule:evenodd;"
d="M 11.7000,44.7875
11.6886,44.8449
11.6561,44.8936
11.6074,44.9261
11.5500,44.9375
10.3750,44.9375
10.3176,44.9261
10.2689,44.8936
10.2364,44.8449
10.2250,44.7875
10.2250,44.4875
10.2364,44.4301
10.2689,44.3814
10.3176,44.3489
10.3750,44.3375
11.5500,44.3375
11.6074,44.3489
11.6561,44.3814
11.6886,44.4301
11.7000,44.4875
Z" /> 
<path style="fill:#C83434; fill-opacity:1.0000; stroke:none;fill-rule:evenodd;"
d="M 9.8250,45.7375
9.8136,45.7949
9.7811,45.8436
9.7324,45.8761
9.6750,45.8875
8.5000,45.8875
8.4426,45.8761
8.3939,45.8436
8.3614,45.7949
8.3500,45.7375
8.3500,45.4375
8.3614,45.3801
8.3939,45.3314
8.4426,45.2989
8.5000,45.2875
9.6750,45.2875
9.7324,45.2989
9.7811,45.3314
9.8136,45.3801
9.8250,45.4375
Z" /> 
<path style="fill:#C83434; fill-opacity:1.0000; stroke:none;fill-rule:evenodd;"
d="M 1.6630,40.6870
1.6630,39.1630
3.1870,39.1630
3.1870,40.6870
Z" /> 
</g>
<g style="fill:#C83434; fill-opacity:1.0000; stroke:none;">
<circle cx="2.4250" cy="37.3850" r="0.7620" /> 
</g>
<g style="fill:#C83434; fill-opacity:1.0000; stroke:none;">
<circle cx="2.4250" cy="34.8450" r="0.7620" /> 
</g>
<g style="fill:#C83434; fill-opacity:1.0000; stroke:none;">
<circle cx="2.4250" cy="32.3050" r="0.7620" /> 
<path style="fill:#C83434; fill-opacity:1.0000; stroke:none;fill-rule:evenodd;"
d="M 11.8650,26.5250
9.8650,26.5250
9.8650,24.5250
11.8650,24.5250
Z" /> 
</g>
<g style="fill:none; 
stroke:#C83434; stroke-width:1.6000; stroke-opacity:1; 
stroke-linecap:round; stroke-linejoin:round;">
<path d="M13.4050 25.7250
L13.4050 25.3250
" />
<path d="M15.9450 25.7250
L15.9450 25.3250
" />
<path d="M18.4850 25.7250
L18.4850 25.3250
" />
<path d="M21.0250 25.7250
L21.0250 25.3250
" />
<path d="M23.5650 25.7250
L23.5650 25.3250
" />
<path d="M26.1050 25.7250
L26.1050 25.3250
" />
<path d="M28.6450 25.7250
L28.6450 25.3250
" />
<path d="M28.6450 2.8650
L28.6450 2.4650
" />
<path d="M26.1050 2.8650
L26.1050 2.4650
" />
<path d="M23.5650 2.8650
L23.5650 2.4650
" />
<path d="M21.0250 2.8650
L21.0250 2.4650
" />
<path d="M18.4850 2.8650
L18.4850 2.4650
" />
<path d="M15.9450 2.8650
L15.9450 2.4650
" />
<path d="M13.4050 2.8650
L13.4050 2.4650
" />
<path d="M10.8650 2.8650
L10.8650 2.4650
" />
<path style="fill:#C83434; fill-opacity:1.0000; stroke:none;fill-rule:evenodd;"
d="M 15.5375,28.9750
15.5185,29.0707
15.4643,29.1518
15.3832,29.2060
15.2875,29.2250
14.7625,29.2250
14.6668,29.2060
14.5857,29.1518
14.5315,29.0707
14.5125,28.9750
14.5125,28.0750
14.5315,27.9793
14.5857,27.8982
14.6668,27.8440
14.7625,27.8250
15.2875,27.8250
15.3832,27.8440
15.4643,27.8982
15.5185,27.9793
15.5375,28.0750
Z" /> 
<path style="fill:#C83434; fill-opacity:1.0000; stroke:none;fill-rule:evenodd;"
d="M 13.7125,28.9750
13.6935,29.0707
13.6393,29.1518
13.5582,29.2060
13.4625,29.2250
12.9375,29.2250
12.8418,29.2060
12.7607,29.1518
12.7065,29.0707
12.6875,28.9750
12.6875,28.0750
12.7065,27.9793
12.7607,27.8982
12.8418,27.8440
12.9375,27.8250
13.4625,27.8250
13.5582,27.8440
13.6393,27.8982
13.6935,27.9793
13.7125,28.0750
Z" /> 
</g>
<g style="fill:none; 
stroke:#C83434; stroke-width:0.2000; stroke-opacity:1; 
stroke-linecap:round; stroke-linejoin:round;">
<path d="M15.9450 25.5250
L15.9450 27.6050
" />
<path d="M15.9450 27.6050
L15.0250 28.5250
" />
<path d="M13.2000 27.8600
L10.8650 25.5250
" />
<path d="M13.2000 28.5250
L13.2000 27.8600
" />
<path d="M18.5250 57.0250
L23.8350 51.7150
" />
<path d="M8.7000 48.8000
L10.9625 46.5375
" />
<path d="M23.8350 51.7150
L23.8350 49.7750
" />
<path d="M8.7000 49.5250
L8.7000 48.8000
" />
<path d="M8.7000 54.7000
L11.0250 57.0250
" />
<path d="M8.7000 49.5250
L8.7000 54.7000
" />
<path d="M11.0250 57.0250
L18.5250 57.0250
" />
<path d="M10.9625 44.6375
L14.3125 44.6375
" />
<path d="M14.3125 44.6375
L15.2000 45.5250
" />
<path d="M9.0875 45.5875
L8.0875 45.5875
" />
<path d="M8.0875 45.5875
L2.4250 39.9250
" />
<path d="M21.9335 51.5493
L22.9350 50.5478
" />
<path d="M13.6750 49.7750
L15.4493 51.5493
" />
<path d="M15.4493 51.5493
L21.9335 51.5493
" />
<path d="M13.4250 49.5250
L13.6750 49.7750
" />
<path d="M24.7350 24.9394
L24.0206 24.2250
" />
<path d="M10.5250 49.5250
L13.4250 49.5250
" />
<path d="M22.9350 41.3250
L24.7350 39.5250
" />
<path d="M22.3250 24.2250
L21.0250 25.5250
" />
<path d="M22.9350 50.5478
L22.9350 41.3250
" />
<path d="M24.7350 39.5250
L24.7350 24.9394
" />
<path d="M24.0206 24.2250
L22.3250 24.2250
" />
<path d="M17.0250 43.5250
L23.5650 36.9850
" />
<path d="M17.0250 45.5250
L17.0250 43.5250
" />
<path d="M23.5650 36.9850
L23.5650 25.5250
" />
<path d="M2.2850 37.5250
L1.5250 37.5250
" />
<path d="M2.4250 37.3850
L2.2850 37.5250
" />
<path d="M26.3750 52.1750
L26.3750 49.7750
" />
<path d="M26.3750 48.6750
L28.6450 46.4050
" />
<path d="M2.0250 57.5250
L21.0250 57.5250
" />
<path d="M28.6450 46.4050
L28.6450 25.5250
" />
<path d="M0.6250 38.4250
L0.6250 56.1250
" />
<path d="M0.6250 56.1250
L2.0250 57.5250
" />
<path d="M1.5250 37.5250
L0.6250 38.4250
" />
<path d="M21.0250 57.5250
L26.3750 52.1750
" />
<path d="M26.3750 49.7750
L26.3750 48.6750
" />
<path d="M9.9250 42.3450
L9.9250 44.9781
" />
<path d="M2.4250 34.8450
L9.9250 42.3450
" />
<path d="M14.5250 0.6250
L15.9450 2.0450
" />
<path d="M1.3630 1.1870
L1.9250 0.6250
" />
<path d="M10.1844 45.2375
L13.4153 45.2375
" />
<path d="M1.3630 33.7830
L1.3630 1.1870
" />
<path d="M18.3822 51.0750
L19.9950 51.0750
" />
<path d="M19.9950 51.0750
L21.2950 49.7750
" />
<path d="M9.9250 44.9781
L10.1844 45.2375
" />
<path d="M2.4250 34.8450
L1.3630 33.7830
" />
<path d="M13.4153 45.2375
L17.8550 49.6772
" />
<path d="M1.9250 0.6250
L14.5250 0.6250
" />
<path d="M15.9450 2.0450
L15.9450 2.6650
" />
<path d="M17.8550 50.5478
L18.3822 51.0750
" />
<path d="M17.8550 49.6772
L17.8550 50.5478
" />
<path d="M2.4250 32.3050
L4.2450 32.3050
" />
<path d="M16.0125 44.8149
L16.0125 47.0325
" />
<path d="M18.4850 11.4850
L18.4850 2.6650
" />
<path d="M18.5250 11.5250
L18.4850 11.4850
" />
<path d="M9.5250 27.0250
L9.5250 23.5250
" />
<path d="M4.2450 32.3050
L9.5250 27.0250
" />
<path d="M2.4250 32.3050
L3.5026 32.3050
" />
<path d="M9.5250 23.5250
L18.5250 14.5250
" />
<path d="M16.0125 47.0325
L18.7550 49.7750
" />
<path d="M3.5026 32.3050
L16.0125 44.8149
" />
<path d="M18.5250 14.5250
L18.5250 11.5250
" />
</g>
<g style="fill:#FFFFFF; fill-opacity:1.0000; stroke:none;">
<circle cx="26.3750" cy="49.7750" r="0.4000" /> 
</g>
<g style="fill:#FFFFFF; fill-opacity:1.0000; stroke:none;">
<circle cx="23.8350" cy="49.7750" r="0.4000" /> 
</g>
<g style="fill:#FFFFFF; fill-opacity:1.0000; stroke:none;">
<circle cx="21.2950" cy="49.7750" r="0.4000" /> 
</g>
<g style="fill:#FFFFFF; fill-opacity:1.0000; stroke:none;">
<circle cx="18.7550" cy="49.7750" r="0.4000" /> 
</g>
<g style="fill:#FFFFFF; fill-opacity:1.0000; stroke:none;">
<circle cx="16.2150" cy="49.7750" r="0.4000" /> 
</g>
<g style="fill:#FFFFFF; fill-opacity:1.0000; stroke:none;">
<circle cx="13.6750" cy="49.7750" r="0.4000" /> 
</g>
<g style="fill:#FFFFFF; fill-opacity:1.0000; stroke:none;">
<circle cx="2.4250" cy="39.9250" r="0.3810" /> 
</g>
<g style="fill:#FFFFFF; fill-opacity:1.0000; stroke:none;">
<circle cx="2.4250" cy="37.3850" r="0.3810" /> 
</g>
<g style="fill:#FFFFFF; fill-opacity:1.0000; stroke:none;">
<circle cx="2.4250" cy="34.8450" r="0.3810" /> 
</g>
<g style="fill:#FFFFFF; fill-opacity:1.0000; stroke:none;">
<circle cx="2.4250" cy="32.3050" r="0.3810" /> 
</g>
<g style="fill:#FFFFFF; fill-opacity:1.0000; stroke:none;">
<circle cx="10.8650" cy="25.5250" r="0.5000" /> 
</g>
<g style="fill:#FFFFFF; fill-opacity:1.0000; stroke:none;">
<circle cx="13.4050" cy="25.5250" r="0.5000" /> 
</g>
<g style="fill:#FFFFFF; fill-opacity:1.0000; stroke:none;">
<circle cx="15.9450" cy="25.5250" r="0.5000" /> 
</g>
<g style="fill:#FFFFFF; fill-opacity:1.0000; stroke:none;">
<circle cx="18.4850" cy="25.5250" r="0.5000" /> 
</g>
<g style="fill:#FFFFFF; fill-opacity:1.0000; stroke:none;">
<circle cx="21.0250" cy="25.5250" r="0.5000" /> 
</g>
<g style="fill:#FFFFFF; fill-opacity:1.0000; stroke:none;">
<circle cx="23.5650" cy="25.5250" r="0.5000" /> 
</g>
<g style="fill:#FFFFFF; fill-opacity:1.0000; stroke:none;">
<circle cx="26.1050" cy="25.5250" r="0.5000" /> 
</g>
<g style="fill:#FFFFFF; fill-opacity:1.0000; stroke:none;">
<circle cx="28.6450" cy="25.5250" r="0.5000" /> 
</g>
<g style="fill:#FFFFFF; fill-opacity:1.0000; stroke:none;">
<circle cx="28.6450" cy="2.6650" r="0.5000" /> 
</g>
<g style="fill:#FFFFFF; fill-opacity:1.0000; stroke:none;">
<circle cx="26.1050" cy="2.6650" r="0.5000" /> 
</g>
<g style="fill:#FFFFFF; fill-opacity:1.0000; stroke:none;">
<circle cx="23.5650" cy="2.6650" r="0.5000" /> 
</g>
<g style="fill:#FFFFFF; fill-opacity:1.0000; stroke:none;">
<circle cx="21.0250" cy="2.6650" r="0.5000" /> 
</g>
<g style="fill:#FFFFFF; fill-opacity:1.0000; stroke:none;">
<circle cx="18.4850" cy="2.6650" r="0.5000" /> 
</g>
<g style="fill:#FFFFFF; fill-opacity:1.0000; stroke:none;">
<circle cx="15.9450" cy="2.6650" r="0.5000" /> 
</g>
<g style="fill:#FFFFFF; fill-opacity:1.0000; stroke:none;">
<circle cx="13.4050" cy="2.6650" r="0.5000" /> 
</g>
<g style="fill:#FFFFFF; fill-opacity:1.0000; stroke:none;">
<circle cx="10.8650" cy="2.6650" r="0.5000" /> 
</g> 
</svg>
