%TF.GenerationSoftware,KiCad,Pcbnew,8.0.8-unknown-202501290020~8b811aa383~ubuntu24.04.1*%
%TF.CreationDate,2025-02-10T17:26:24-05:00*%
%TF.ProjectId,deleteme,64656c65-7465-46d6-952e-6b696361645f,rev?*%
%TF.SameCoordinates,Original*%
%TF.FileFunction,Copper,L2,Bot*%
%TF.FilePolarity,Positive*%
%FSLAX46Y46*%
G04 Gerber Fmt 4.6, Leading zero omitted, Abs format (unit mm)*
G04 Created by KiCad (PCBNEW 8.0.8-unknown-202501290020~8b811aa383~ubuntu24.04.1) date 2025-02-10 17:26:24*
%MOMM*%
%LPD*%
G01*
G04 APERTURE LIST*
%TA.AperFunction,ComponentPad*%
%ADD10R,1.524000X1.524000*%
%TD*%
%TA.AperFunction,ComponentPad*%
%ADD11C,1.524000*%
%TD*%
%TA.AperFunction,ComponentPad*%
%ADD12R,1.600000X1.700000*%
%TD*%
%TA.AperFunction,ComponentPad*%
%ADD13O,1.500000X2.000000*%
%TD*%
%TA.AperFunction,ComponentPad*%
%ADD14R,2.000000X2.000000*%
%TD*%
%TA.AperFunction,ComponentPad*%
%ADD15O,1.600000X2.000000*%
%TD*%
%TA.AperFunction,ComponentPad*%
%ADD16R,2.000000X1.600000*%
%TD*%
%TA.AperFunction,ComponentPad*%
%ADD17O,2.000000X1.600000*%
%TD*%
%TA.AperFunction,ComponentPad*%
%ADD18R,1.700000X1.700000*%
%TD*%
%TA.AperFunction,ComponentPad*%
%ADD19O,1.700000X1.700000*%
%TD*%
%TA.AperFunction,ComponentPad*%
%ADD20R,1.050000X1.500000*%
%TD*%
%TA.AperFunction,ComponentPad*%
%ADD21O,1.050000X1.500000*%
%TD*%
%TA.AperFunction,Conductor*%
%ADD22C,0.200000*%
%TD*%
G04 APERTURE END LIST*
D10*
%TO.P,J1,1,Pin_1*%
%TO.N,N/C*%
X132590000Y-123726409D03*
D11*
%TO.P,J1,2,Pin_2*%
X132590000Y-127226409D03*
%TD*%
D12*
%TO.P,U3,1,Vin*%
%TO.N,N/C*%
X154890000Y-136626409D03*
D13*
%TO.P,U3,2,GND*%
X152350000Y-136626409D03*
%TO.P,U3,3,SCL*%
X149810000Y-136626409D03*
%TO.P,U3,4,SDA*%
X147270000Y-136626409D03*
%TO.P,U3,5,GPIO1*%
X144730000Y-136626409D03*
%TO.P,U3,6,XSHUT*%
X142190000Y-136626409D03*
%TD*%
D12*
%TO.P,U3,1,Vin*%
%TO.N,N/C*%
X154890000Y-128126409D03*
D13*
%TO.P,U3,2,GND*%
X152350000Y-128126409D03*
%TO.P,U3,3,SCL*%
X149810000Y-128126409D03*
%TO.P,U3,4,SDA*%
X147270000Y-128126409D03*
%TO.P,U3,5,GPIO1*%
X144730000Y-128126409D03*
%TO.P,U3,6,XSHUT*%
X142190000Y-128126409D03*
%TD*%
D14*
%TO.P,U1,1,~{RST}*%
%TO.N,N/C*%
X139380000Y-103876409D03*
D15*
%TO.P,U1,2,A0*%
X141920000Y-103876409D03*
%TO.P,U1,3,D0*%
X144460000Y-103876409D03*
%TO.P,U1,4,SCK/D5*%
X147000000Y-103876409D03*
%TO.P,U1,5,MISO/D6*%
X149540000Y-103876409D03*
%TO.P,U1,6,MOSI/D7*%
X152080000Y-103876409D03*
%TO.P,U1,7,CS/D8*%
X154620000Y-103876409D03*
%TO.P,U1,8,3V3*%
X157160000Y-103876409D03*
%TO.P,U1,9,5V*%
X157160000Y-81016409D03*
%TO.P,U1,10,GND*%
X154620000Y-81016409D03*
%TO.P,U1,11,D4*%
X152080000Y-81016409D03*
%TO.P,U1,12,D3*%
X149540000Y-81016409D03*
%TO.P,U1,13,SDA/D2*%
X147000000Y-81016409D03*
%TO.P,U1,14,SCL/D1*%
X144460000Y-81016409D03*
%TO.P,U1,15,RX*%
X141920000Y-81016409D03*
%TO.P,U1,16,TX*%
X139380000Y-81016409D03*
%TD*%
D16*
%TO.P,DISP1,1,Gnd*%
%TO.N,N/C*%
X130940000Y-118276409D03*
D17*
%TO.P,DISP1,2,Vcc*%
X130940000Y-115736409D03*
%TO.P,DISP1,3,SCL*%
X130940000Y-113196409D03*
%TO.P,DISP1,4,SDA*%
X130940000Y-110656409D03*
%TD*%
D18*
%TO.P,U6,1,GND*%
%TO.N,N/C*%
X164850000Y-75026409D03*
D19*
%TO.P,U6,2,TX*%
X162310000Y-75026409D03*
%TO.P,U6,3,RX*%
X159770000Y-75026409D03*
%TO.P,U6,4,RST*%
X157230000Y-75026409D03*
%TO.P,U6,5,3.3v*%
X154690000Y-75026409D03*
%TD*%
D20*
%TO.P,U5,1,GND*%
%TO.N,N/C*%
X161875000Y-125326409D03*
D21*
%TO.P,U5,2,VI*%
X163145000Y-125326409D03*
%TO.P,U5,3,VO*%
X164415000Y-125326409D03*
%TD*%
D22*
%TO.N,*%
X163145000Y-124376409D02*
X163145000Y-125326409D01*
X132540000Y-123726409D02*
X131578000Y-123726409D01*
X147445000Y-108676409D02*
X163145000Y-124376409D01*
X129340000Y-121488409D02*
X129340000Y-109526409D01*
X130190000Y-108676409D02*
X147445000Y-108676409D01*
X129340000Y-109526409D02*
X130190000Y-108676409D01*
X131578000Y-123726409D02*
X129340000Y-121488409D01*
X149540000Y-103876409D02*
X153180000Y-100236409D01*
X159615000Y-76026409D02*
X159615000Y-75181409D01*
X153180000Y-100236409D02*
X153180000Y-80700774D01*
X153180000Y-80700774D02*
X156254365Y-77626409D01*
X156254365Y-77626409D02*
X158015000Y-77626409D01*
X158015000Y-77626409D02*
X159615000Y-76026409D01*
X159615000Y-75181409D02*
X159770000Y-75026409D01*
X144730000Y-136626409D02*
X144730000Y-128126409D01*
X147270000Y-136626409D02*
X147270000Y-128126409D01*
X142190000Y-136626409D02*
X142190000Y-128126409D01*
X147610000Y-113196409D02*
X130940000Y-113196409D01*
X149810000Y-136626409D02*
X149810000Y-128126409D01*
X149810000Y-128126409D02*
X149810000Y-115396409D01*
X149810000Y-115396409D02*
X147610000Y-113196409D01*
X159140000Y-128676409D02*
X158590000Y-128126409D01*
X162990000Y-128676409D02*
X159140000Y-128676409D01*
X154890000Y-136626409D02*
X154890000Y-128126409D01*
X164415000Y-127251409D02*
X162990000Y-128676409D01*
X158590000Y-128126409D02*
X154890000Y-128126409D01*
X164415000Y-125326409D02*
X164415000Y-127251409D01*
X152350000Y-128126409D02*
X155150000Y-125326409D01*
X164850000Y-101386409D02*
X165240000Y-101776409D01*
X165240000Y-130376409D02*
X157640000Y-137976409D01*
X153700000Y-137976409D02*
X152350000Y-136626409D01*
X164850000Y-75026409D02*
X164850000Y-101386409D01*
X157640000Y-137976409D02*
X153700000Y-137976409D01*
X152350000Y-136626409D02*
X152350000Y-128126409D01*
X154620000Y-81206409D02*
X154620000Y-81016409D01*
X155150000Y-125326409D02*
X161875000Y-125326409D01*
X165240000Y-101776409D02*
X165240000Y-130376409D01*
%TD*%
M02*
