M48
; DRILL file {KiCad 8.0.8-unknown-202501290020~8b811aa383~ubuntu24.04.1} date 2025-02-10T17:26:16-0500
; FORMAT={-:-/ absolute / inch / decimal}
; #@! TF.CreationDate,2025-02-10T17:26:16-05:00
; #@! TF.GenerationSoftware,Kicad,Pcbnew,8.0.8-unknown-202501290020~8b811aa383~ubuntu24.04.1
; #@! TF.FileFunction,Plated,1,2,PTH
FMAT,2
INCH
; #@! TA.AperFunction,Plated,PTH,ComponentDrill
T1C0.0295
; #@! TA.AperFunction,Plated,PTH,ComponentDrill
T2C0.0394
%
G90
G05
T1
X6.373Y-4.9341
X6.423Y-4.9341
X6.473Y-4.9341
T2
X5.1551Y-4.3566
X5.1551Y-4.4566
X5.1551Y-4.5566
X5.1551Y-4.6566
X5.2201Y-4.8711
X5.2201Y-5.0089
X5.4874Y-3.1896
X5.4874Y-4.0896
X5.5874Y-3.1896
X5.5874Y-4.0896
X5.598Y-5.0443
X5.598Y-5.379
X5.6874Y-3.1896
X5.6874Y-4.0896
X5.698Y-5.0443
X5.698Y-5.379
X5.7874Y-3.1896
X5.7874Y-4.0896
X5.798Y-5.0443
X5.798Y-5.379
X5.8874Y-3.1896
X5.8874Y-4.0896
X5.898Y-5.0443
X5.898Y-5.379
X5.9874Y-3.1896
X5.9874Y-4.0896
X5.998Y-5.0443
X5.998Y-5.379
X6.0874Y-3.1896
X6.0874Y-4.0896
X6.0902Y-2.9538
X6.098Y-5.0443
X6.098Y-5.379
X6.1874Y-3.1896
X6.1874Y-4.0896
X6.1902Y-2.9538
X6.2902Y-2.9538
X6.3902Y-2.9538
X6.4902Y-2.9538
M30
