%TF.GenerationSoftware,KiCad,Pcbnew,8.0.8-unknown-202501290020~8b811aa383~ubuntu24.04.1*%
%TF.CreationDate,2025-02-10T17:26:24-05:00*%
%TF.ProjectId,deleteme,64656c65-7465-46d6-952e-6b696361645f,rev?*%
%TF.SameCoordinates,Original*%
%TF.FileFunction,Soldermask,Top*%
%TF.FilePolarity,Negative*%
%FSLAX46Y46*%
G04 Gerber Fmt 4.6, Leading zero omitted, Abs format (unit mm)*
G04 Created by KiCad (PCBNEW 8.0.8-unknown-202501290020~8b811aa383~ubuntu24.04.1) date 2025-02-10 17:26:24*
%MOMM*%
%LPD*%
G01*
G04 APERTURE LIST*
G04 Aperture macros list*
%AMRoundRect*
0 Rectangle with rounded corners*
0 $1 Rounding radius*
0 $2 $3 $4 $5 $6 $7 $8 $9 X,Y pos of 4 corners*
0 Add a 4 corners polygon primitive as box body*
4,1,4,$2,$3,$4,$5,$6,$7,$8,$9,$2,$3,0*
0 Add four circle primitives for the rounded corners*
1,1,$1+$1,$2,$3*
1,1,$1+$1,$4,$5*
1,1,$1+$1,$6,$7*
1,1,$1+$1,$8,$9*
0 Add four rect primitives between the rounded corners*
20,1,$1+$1,$2,$3,$4,$5,0*
20,1,$1+$1,$4,$5,$6,$7,0*
20,1,$1+$1,$6,$7,$8,$9,0*
20,1,$1+$1,$8,$9,$2,$3,0*%
G04 Aperture macros list end*
%ADD10R,1.524000X1.524000*%
%ADD11C,1.524000*%
%ADD12R,1.600000X1.700000*%
%ADD13O,1.500000X2.000000*%
%ADD14RoundRect,0.150000X-0.512500X-0.150000X0.512500X-0.150000X0.512500X0.150000X-0.512500X0.150000X0*%
%ADD15RoundRect,0.250000X0.262500X0.450000X-0.262500X0.450000X-0.262500X-0.450000X0.262500X-0.450000X0*%
%ADD16RoundRect,0.250000X0.375000X0.625000X-0.375000X0.625000X-0.375000X-0.625000X0.375000X-0.625000X0*%
%ADD17R,2.000000X2.000000*%
%ADD18O,1.600000X2.000000*%
%ADD19R,2.000000X1.600000*%
%ADD20O,2.000000X1.600000*%
%ADD21RoundRect,0.250000X-0.262500X-0.450000X0.262500X-0.450000X0.262500X0.450000X-0.262500X0.450000X0*%
%ADD22R,1.700000X1.700000*%
%ADD23O,1.700000X1.700000*%
%ADD24RoundRect,0.150000X-0.587500X-0.150000X0.587500X-0.150000X0.587500X0.150000X-0.587500X0.150000X0*%
%ADD25R,1.050000X1.500000*%
%ADD26O,1.050000X1.500000*%
%ADD27RoundRect,0.250000X0.450000X-0.262500X0.450000X0.262500X-0.450000X0.262500X-0.450000X-0.262500X0*%
G04 APERTURE END LIST*
D10*
%TO.C,J1*%
X132590000Y-123726409D03*
D11*
X132590000Y-127226409D03*
%TD*%
D12*
%TO.C,U3*%
X154890000Y-136626409D03*
D13*
X152350000Y-136626409D03*
X149810000Y-136626409D03*
X147270000Y-136626409D03*
X144730000Y-136626409D03*
X142190000Y-136626409D03*
%TD*%
D12*
%TO.C,U3*%
X154890000Y-128126409D03*
D13*
X152350000Y-128126409D03*
X149810000Y-128126409D03*
X147270000Y-128126409D03*
X144730000Y-128126409D03*
X142190000Y-128126409D03*
%TD*%
D14*
%TO.C,Q2*%
X137415000Y-123176409D03*
X137415000Y-125076409D03*
X139690000Y-124126409D03*
%TD*%
D15*
%TO.C,R5*%
X149270000Y-76666409D03*
X147445000Y-76666409D03*
%TD*%
D16*
%TO.C,D1*%
X144027500Y-106876409D03*
X141227500Y-106876409D03*
%TD*%
D17*
%TO.C,U1*%
X139380000Y-103876409D03*
D18*
X141920000Y-103876409D03*
X144460000Y-103876409D03*
X147000000Y-103876409D03*
X149540000Y-103876409D03*
X152080000Y-103876409D03*
X154620000Y-103876409D03*
X157160000Y-103876409D03*
X157160000Y-81016409D03*
X154620000Y-81016409D03*
X152080000Y-81016409D03*
X149540000Y-81016409D03*
X147000000Y-81016409D03*
X144460000Y-81016409D03*
X141920000Y-81016409D03*
X139380000Y-81016409D03*
%TD*%
D19*
%TO.C,DISP1*%
X130940000Y-118276409D03*
D20*
X130940000Y-115736409D03*
X130940000Y-113196409D03*
X130940000Y-110656409D03*
%TD*%
D14*
%TO.C,Q1*%
X147375000Y-71406409D03*
X147375000Y-73306409D03*
X149650000Y-72356409D03*
%TD*%
D21*
%TO.C,R3*%
X142490000Y-125276409D03*
X144315000Y-125276409D03*
%TD*%
D15*
%TO.C,R4*%
X158100000Y-123976409D03*
X156275000Y-123976409D03*
%TD*%
D21*
%TO.C,R1*%
X137215000Y-127876409D03*
X139040000Y-127876409D03*
%TD*%
D22*
%TO.C,U6*%
X164850000Y-75026409D03*
D23*
X162310000Y-75026409D03*
X159770000Y-75026409D03*
X157230000Y-75026409D03*
X154690000Y-75026409D03*
%TD*%
D24*
%TO.C,U4*%
X162415000Y-130526409D03*
X162415000Y-132426409D03*
X164290000Y-131476409D03*
%TD*%
D25*
%TO.C,U5*%
X161875000Y-125326409D03*
D26*
X163145000Y-125326409D03*
X164415000Y-125326409D03*
%TD*%
D27*
%TO.C,R6*%
X143410000Y-73011409D03*
X143410000Y-71186409D03*
%TD*%
D21*
%TO.C,R2*%
X148315000Y-123826409D03*
X150140000Y-123826409D03*
%TD*%
M02*
