%TF.GenerationSoftware,KiCad,Pcbnew,8.0.8-unknown-202501290020~8b811aa383~ubuntu24.04.1*%
%TF.CreationDate,2025-02-10T17:26:23-05:00*%
%TF.ProjectId,deleteme,64656c65-7465-46d6-952e-6b696361645f,rev?*%
%TF.SameCoordinates,Original*%
%TF.FileFunction,Copper,L1,Top*%
%TF.FilePolarity,Positive*%
%FSLAX46Y46*%
G04 Gerber Fmt 4.6, Leading zero omitted, Abs format (unit mm)*
G04 Created by KiCad (PCBNEW 8.0.8-unknown-202501290020~8b811aa383~ubuntu24.04.1) date 2025-02-10 17:26:23*
%MOMM*%
%LPD*%
G01*
G04 APERTURE LIST*
G04 Aperture macros list*
%AMRoundRect*
0 Rectangle with rounded corners*
0 $1 Rounding radius*
0 $2 $3 $4 $5 $6 $7 $8 $9 X,Y pos of 4 corners*
0 Add a 4 corners polygon primitive as box body*
4,1,4,$2,$3,$4,$5,$6,$7,$8,$9,$2,$3,0*
0 Add four circle primitives for the rounded corners*
1,1,$1+$1,$2,$3*
1,1,$1+$1,$4,$5*
1,1,$1+$1,$6,$7*
1,1,$1+$1,$8,$9*
0 Add four rect primitives between the rounded corners*
20,1,$1+$1,$2,$3,$4,$5,0*
20,1,$1+$1,$4,$5,$6,$7,0*
20,1,$1+$1,$6,$7,$8,$9,0*
20,1,$1+$1,$8,$9,$2,$3,0*%
G04 Aperture macros list end*
%TA.AperFunction,ComponentPad*%
%ADD10R,1.524000X1.524000*%
%TD*%
%TA.AperFunction,ComponentPad*%
%ADD11C,1.524000*%
%TD*%
%TA.AperFunction,ComponentPad*%
%ADD12R,1.600000X1.700000*%
%TD*%
%TA.AperFunction,ComponentPad*%
%ADD13O,1.500000X2.000000*%
%TD*%
%TA.AperFunction,SMDPad,CuDef*%
%ADD14RoundRect,0.150000X-0.512500X-0.150000X0.512500X-0.150000X0.512500X0.150000X-0.512500X0.150000X0*%
%TD*%
%TA.AperFunction,SMDPad,CuDef*%
%ADD15RoundRect,0.250000X0.262500X0.450000X-0.262500X0.450000X-0.262500X-0.450000X0.262500X-0.450000X0*%
%TD*%
%TA.AperFunction,SMDPad,CuDef*%
%ADD16RoundRect,0.250000X0.375000X0.625000X-0.375000X0.625000X-0.375000X-0.625000X0.375000X-0.625000X0*%
%TD*%
%TA.AperFunction,ComponentPad*%
%ADD17R,2.000000X2.000000*%
%TD*%
%TA.AperFunction,ComponentPad*%
%ADD18O,1.600000X2.000000*%
%TD*%
%TA.AperFunction,ComponentPad*%
%ADD19R,2.000000X1.600000*%
%TD*%
%TA.AperFunction,ComponentPad*%
%ADD20O,2.000000X1.600000*%
%TD*%
%TA.AperFunction,SMDPad,CuDef*%
%ADD21RoundRect,0.250000X-0.262500X-0.450000X0.262500X-0.450000X0.262500X0.450000X-0.262500X0.450000X0*%
%TD*%
%TA.AperFunction,ComponentPad*%
%ADD22R,1.700000X1.700000*%
%TD*%
%TA.AperFunction,ComponentPad*%
%ADD23O,1.700000X1.700000*%
%TD*%
%TA.AperFunction,SMDPad,CuDef*%
%ADD24RoundRect,0.150000X-0.587500X-0.150000X0.587500X-0.150000X0.587500X0.150000X-0.587500X0.150000X0*%
%TD*%
%TA.AperFunction,ComponentPad*%
%ADD25R,1.050000X1.500000*%
%TD*%
%TA.AperFunction,ComponentPad*%
%ADD26O,1.050000X1.500000*%
%TD*%
%TA.AperFunction,SMDPad,CuDef*%
%ADD27RoundRect,0.250000X0.450000X-0.262500X0.450000X0.262500X-0.450000X0.262500X-0.450000X-0.262500X0*%
%TD*%
%TA.AperFunction,Conductor*%
%ADD28C,0.200000*%
%TD*%
G04 APERTURE END LIST*
D10*
%TO.P,J1,1,Pin_1*%
%TO.N,N/C*%
X132590000Y-123726409D03*
D11*
%TO.P,J1,2,Pin_2*%
X132590000Y-127226409D03*
%TD*%
D12*
%TO.P,U3,1,Vin*%
%TO.N,N/C*%
X154890000Y-136626409D03*
D13*
%TO.P,U3,2,GND*%
X152350000Y-136626409D03*
%TO.P,U3,3,SCL*%
X149810000Y-136626409D03*
%TO.P,U3,4,SDA*%
X147270000Y-136626409D03*
%TO.P,U3,5,GPIO1*%
X144730000Y-136626409D03*
%TO.P,U3,6,XSHUT*%
X142190000Y-136626409D03*
%TD*%
D12*
%TO.P,U3,1,Vin*%
%TO.N,N/C*%
X154890000Y-128126409D03*
D13*
%TO.P,U3,2,GND*%
X152350000Y-128126409D03*
%TO.P,U3,3,SCL*%
X149810000Y-128126409D03*
%TO.P,U3,4,SDA*%
X147270000Y-128126409D03*
%TO.P,U3,5,GPIO1*%
X144730000Y-128126409D03*
%TO.P,U3,6,XSHUT*%
X142190000Y-128126409D03*
%TD*%
D14*
%TO.P,Q2,1,B*%
%TO.N,N/C*%
X137415000Y-123176409D03*
%TO.P,Q2,2,E*%
X137415000Y-125076409D03*
%TO.P,Q2,3,C*%
X139690000Y-124126409D03*
%TD*%
D15*
%TO.P,R5,1*%
%TO.N,N/C*%
X149270000Y-76666409D03*
%TO.P,R5,2*%
X147445000Y-76666409D03*
%TD*%
D16*
%TO.P,D1,1,K*%
%TO.N,N/C*%
X144027500Y-106876409D03*
%TO.P,D1,2,A*%
X141227500Y-106876409D03*
%TD*%
D17*
%TO.P,U1,1,~{RST}*%
%TO.N,N/C*%
X139380000Y-103876409D03*
D18*
%TO.P,U1,2,A0*%
X141920000Y-103876409D03*
%TO.P,U1,3,D0*%
X144460000Y-103876409D03*
%TO.P,U1,4,SCK/D5*%
X147000000Y-103876409D03*
%TO.P,U1,5,MISO/D6*%
X149540000Y-103876409D03*
%TO.P,U1,6,MOSI/D7*%
X152080000Y-103876409D03*
%TO.P,U1,7,CS/D8*%
X154620000Y-103876409D03*
%TO.P,U1,8,3V3*%
X157160000Y-103876409D03*
%TO.P,U1,9,5V*%
X157160000Y-81016409D03*
%TO.P,U1,10,GND*%
X154620000Y-81016409D03*
%TO.P,U1,11,D4*%
X152080000Y-81016409D03*
%TO.P,U1,12,D3*%
X149540000Y-81016409D03*
%TO.P,U1,13,SDA/D2*%
X147000000Y-81016409D03*
%TO.P,U1,14,SCL/D1*%
X144460000Y-81016409D03*
%TO.P,U1,15,RX*%
X141920000Y-81016409D03*
%TO.P,U1,16,TX*%
X139380000Y-81016409D03*
%TD*%
D19*
%TO.P,DISP1,1,Gnd*%
%TO.N,N/C*%
X130940000Y-118276409D03*
D20*
%TO.P,DISP1,2,Vcc*%
X130940000Y-115736409D03*
%TO.P,DISP1,3,SCL*%
X130940000Y-113196409D03*
%TO.P,DISP1,4,SDA*%
X130940000Y-110656409D03*
%TD*%
D14*
%TO.P,Q1,1,E*%
%TO.N,N/C*%
X147375000Y-71406409D03*
%TO.P,Q1,2,B*%
X147375000Y-73306409D03*
%TO.P,Q1,3,C*%
X149650000Y-72356409D03*
%TD*%
D21*
%TO.P,R3,1*%
%TO.N,N/C*%
X142490000Y-125276409D03*
%TO.P,R3,2*%
X144315000Y-125276409D03*
%TD*%
D15*
%TO.P,R4,1*%
%TO.N,N/C*%
X158100000Y-123976409D03*
%TO.P,R4,2*%
X156275000Y-123976409D03*
%TD*%
D21*
%TO.P,R1,1*%
%TO.N,N/C*%
X137215000Y-127876409D03*
%TO.P,R1,2*%
X139040000Y-127876409D03*
%TD*%
D22*
%TO.P,U6,1,GND*%
%TO.N,N/C*%
X164850000Y-75026409D03*
D23*
%TO.P,U6,2,TX*%
X162310000Y-75026409D03*
%TO.P,U6,3,RX*%
X159770000Y-75026409D03*
%TO.P,U6,4,RST*%
X157230000Y-75026409D03*
%TO.P,U6,5,3.3v*%
X154690000Y-75026409D03*
%TD*%
D24*
%TO.P,U4,1,RESET*%
%TO.N,N/C*%
X162415000Y-130526409D03*
%TO.P,U4,2,V_{DD}*%
X162415000Y-132426409D03*
%TO.P,U4,3,GND*%
X164290000Y-131476409D03*
%TD*%
D25*
%TO.P,U5,1,GND*%
%TO.N,N/C*%
X161875000Y-125326409D03*
D26*
%TO.P,U5,2,VI*%
X163145000Y-125326409D03*
%TO.P,U5,3,VO*%
X164415000Y-125326409D03*
%TD*%
D27*
%TO.P,R6,1*%
%TO.N,N/C*%
X143410000Y-73011409D03*
%TO.P,R6,2*%
X143410000Y-71186409D03*
%TD*%
D21*
%TO.P,R2,1*%
%TO.N,N/C*%
X148315000Y-123826409D03*
%TO.P,R2,2*%
X150140000Y-123826409D03*
%TD*%
D28*
%TO.N,*%
X149270000Y-76666409D02*
X149270000Y-80746409D01*
X149270000Y-80746409D02*
X149540000Y-81016409D01*
X147375000Y-73306409D02*
X147375000Y-73381409D01*
X147080000Y-73011409D02*
X147375000Y-73306409D01*
X147445000Y-73451409D02*
X147445000Y-76666409D01*
X147375000Y-73381409D02*
X147445000Y-73451409D01*
X143410000Y-73011409D02*
X147080000Y-73011409D01*
X149650000Y-72356409D02*
X152020000Y-72356409D01*
X152020000Y-72356409D02*
X154690000Y-75026409D01*
X162310000Y-88566409D02*
X162310000Y-75026409D01*
X147000000Y-103876409D02*
X162310000Y-88566409D01*
X147040000Y-92876409D02*
X147040000Y-89876409D01*
X149127500Y-122813909D02*
X149127500Y-126268909D01*
X138040000Y-101876409D02*
X147040000Y-92876409D01*
X141037630Y-119676409D02*
X145990000Y-119676409D01*
X132760000Y-110656409D02*
X138040000Y-105376409D01*
X130940000Y-110656409D02*
X132017630Y-110656409D01*
X149127500Y-126268909D02*
X147270000Y-128126409D01*
X145990000Y-119676409D02*
X149127500Y-122813909D01*
X132017630Y-110656409D02*
X141037630Y-119676409D01*
X138040000Y-105376409D02*
X138040000Y-101876409D01*
X147040000Y-89876409D02*
X147000000Y-89836409D01*
X147000000Y-89836409D02*
X147000000Y-81016409D01*
X130940000Y-110656409D02*
X132760000Y-110656409D01*
X146790000Y-127646409D02*
X147270000Y-128126409D01*
X143740000Y-129676409D02*
X142190000Y-128126409D01*
X154620000Y-121347564D02*
X148540000Y-127427564D01*
X147780440Y-129676409D02*
X143740000Y-129676409D01*
X139040000Y-127876409D02*
X141940000Y-127876409D01*
X141940000Y-127876409D02*
X142190000Y-128126409D01*
X148540000Y-127427564D02*
X148540000Y-128916849D01*
X154620000Y-103876409D02*
X154620000Y-121347564D01*
X148540000Y-128916849D02*
X147780440Y-129676409D01*
X144460000Y-80396409D02*
X144460000Y-81016409D01*
X130940000Y-113196409D02*
X129640000Y-111896409D01*
X129640000Y-79776409D02*
X130140000Y-79276409D01*
X129640000Y-111896409D02*
X129640000Y-79776409D01*
X143340000Y-79276409D02*
X144460000Y-80396409D01*
X130140000Y-79276409D02*
X143340000Y-79276409D01*
X130800000Y-115876409D02*
X130040000Y-115876409D01*
X130040000Y-115876409D02*
X129340000Y-116576409D01*
X157160000Y-113016409D02*
X156250000Y-113926409D01*
X147155000Y-71186409D02*
X147375000Y-71406409D01*
X165233738Y-132476409D02*
X162986948Y-132476409D01*
X154890000Y-128126409D02*
X154890000Y-127026409D01*
X156250000Y-113926409D02*
X156250000Y-114126409D01*
X150566933Y-134849476D02*
X154890000Y-130526409D01*
X129340000Y-116576409D02*
X129340000Y-134676409D01*
X129340000Y-134676409D02*
X129513067Y-134849476D01*
X158643503Y-102472906D02*
X165727500Y-109556903D01*
X156275000Y-114151409D02*
X156275000Y-123976409D01*
X156250000Y-114126409D02*
X156275000Y-114151409D01*
X166000000Y-85900000D02*
X158643503Y-93256497D01*
X158643503Y-93256497D02*
X158643503Y-102472906D01*
X130940000Y-115736409D02*
X130800000Y-115876409D01*
X163530000Y-71406409D02*
X166000000Y-73876409D01*
X162415000Y-132426409D02*
X158115000Y-128126409D01*
X165727500Y-131982647D02*
X165233738Y-132476409D01*
X154890000Y-130526409D02*
X154890000Y-128126409D01*
X156275000Y-125641409D02*
X156275000Y-123976409D01*
X147375000Y-71406409D02*
X163530000Y-71406409D01*
X165727500Y-109556903D02*
X165727500Y-131982647D01*
X129513067Y-134849476D02*
X150566933Y-134849476D01*
X164290000Y-125451409D02*
X164415000Y-125326409D01*
X143410000Y-71186409D02*
X147155000Y-71186409D01*
X157160000Y-103876409D02*
X157160000Y-113016409D01*
X158115000Y-128126409D02*
X154890000Y-128126409D01*
X166000000Y-73876409D02*
X166000000Y-85900000D01*
X154890000Y-127026409D02*
X156275000Y-125641409D01*
X150140000Y-123826409D02*
X150140000Y-117276409D01*
X150140000Y-117276409D02*
X152080000Y-115336409D01*
X152080000Y-115336409D02*
X152080000Y-103876409D01*
X139690000Y-124126409D02*
X136790000Y-124126409D01*
X136790000Y-124126409D02*
X130940000Y-118276409D01*
X137440000Y-125076409D02*
X137640000Y-125276409D01*
X148340000Y-134076409D02*
X152350000Y-130066409D01*
X137215000Y-127876409D02*
X137215000Y-125276409D01*
X136565000Y-127226409D02*
X137215000Y-127876409D01*
X152350000Y-130066409D02*
X152350000Y-128126409D01*
X138240000Y-134076409D02*
X148340000Y-134076409D01*
X161875000Y-127211409D02*
X161875000Y-125326409D01*
X164850000Y-73736409D02*
X164850000Y-75026409D01*
X154620000Y-76722755D02*
X155990000Y-75352755D01*
X137415000Y-125076409D02*
X137440000Y-125076409D01*
X146865000Y-125276409D02*
X148315000Y-123826409D01*
X132540000Y-127226409D02*
X136565000Y-127226409D01*
X137215000Y-127876409D02*
X137215000Y-133051409D01*
X164290000Y-129626409D02*
X161875000Y-127211409D01*
X163310000Y-72196409D02*
X164850000Y-73736409D01*
X165068052Y-132076409D02*
X165327500Y-131816961D01*
X162415000Y-130526409D02*
X162415000Y-131048357D01*
X149884365Y-101776409D02*
X148440000Y-103220774D01*
X142215000Y-123176409D02*
X144315000Y-125276409D01*
X163443052Y-132076409D02*
X165068052Y-132076409D01*
X141227500Y-106876409D02*
X141227500Y-105723909D01*
X148440000Y-103220774D02*
X148440000Y-107026409D01*
X158100000Y-123976409D02*
X158100000Y-126211409D01*
X162415000Y-131048357D02*
X163443052Y-132076409D01*
X157381321Y-101776409D02*
X149884365Y-101776409D01*
X164290000Y-131476409D02*
X164290000Y-129626409D01*
X144315000Y-125276409D02*
X146865000Y-125276409D01*
X155990000Y-73726409D02*
X157520000Y-72196409D01*
X158100000Y-126211409D02*
X162415000Y-130526409D01*
X147190000Y-108276409D02*
X142627500Y-108276409D01*
X137415000Y-123176409D02*
X142215000Y-123176409D01*
X137640000Y-125276409D02*
X142490000Y-125276409D01*
X137215000Y-125276409D02*
X137415000Y-125076409D01*
X137215000Y-133051409D02*
X138240000Y-134076409D01*
X154620000Y-81016409D02*
X154620000Y-76722755D01*
X155990000Y-75352755D02*
X155990000Y-73726409D01*
X157520000Y-72196409D02*
X163310000Y-72196409D01*
X142627500Y-108276409D02*
X141227500Y-106876409D01*
X165327500Y-131816961D02*
X165327500Y-109722588D01*
X141227500Y-105723909D02*
X139380000Y-103876409D01*
X144460000Y-105956409D02*
X143540000Y-106876409D01*
X165327500Y-109722588D02*
X157381321Y-101776409D01*
X148440000Y-107026409D02*
X147190000Y-108276409D01*
X144460000Y-103876409D02*
X144460000Y-105956409D01*
%TD*%
M02*
