%TF.GenerationSoftware,KiCad,Pcbnew,8.0.8-unknown-202501290020~8b811aa383~ubuntu24.04.1*%
%TF.CreationDate,2025-02-10T17:26:24-05:00*%
%TF.ProjectId,deleteme,64656c65-7465-46d6-952e-6b696361645f,rev?*%
%TF.SameCoordinates,Original*%
%TF.FileFunction,Soldermask,Bot*%
%TF.FilePolarity,Negative*%
%FSLAX46Y46*%
G04 Gerber Fmt 4.6, Leading zero omitted, Abs format (unit mm)*
G04 Created by KiCad (PCBNEW 8.0.8-unknown-202501290020~8b811aa383~ubuntu24.04.1) date 2025-02-10 17:26:24*
%MOMM*%
%LPD*%
G01*
G04 APERTURE LIST*
%ADD10R,1.524000X1.524000*%
%ADD11C,1.524000*%
%ADD12R,1.600000X1.700000*%
%ADD13O,1.500000X2.000000*%
%ADD14R,2.000000X2.000000*%
%ADD15O,1.600000X2.000000*%
%ADD16R,2.000000X1.600000*%
%ADD17O,2.000000X1.600000*%
%ADD18R,1.700000X1.700000*%
%ADD19O,1.700000X1.700000*%
%ADD20R,1.050000X1.500000*%
%ADD21O,1.050000X1.500000*%
G04 APERTURE END LIST*
D10*
%TO.C,J1*%
X132590000Y-123726409D03*
D11*
X132590000Y-127226409D03*
%TD*%
D12*
%TO.C,U3*%
X154890000Y-136626409D03*
D13*
X152350000Y-136626409D03*
X149810000Y-136626409D03*
X147270000Y-136626409D03*
X144730000Y-136626409D03*
X142190000Y-136626409D03*
%TD*%
D12*
%TO.C,U3*%
X154890000Y-128126409D03*
D13*
X152350000Y-128126409D03*
X149810000Y-128126409D03*
X147270000Y-128126409D03*
X144730000Y-128126409D03*
X142190000Y-128126409D03*
%TD*%
D14*
%TO.C,U1*%
X139380000Y-103876409D03*
D15*
X141920000Y-103876409D03*
X144460000Y-103876409D03*
X147000000Y-103876409D03*
X149540000Y-103876409D03*
X152080000Y-103876409D03*
X154620000Y-103876409D03*
X157160000Y-103876409D03*
X157160000Y-81016409D03*
X154620000Y-81016409D03*
X152080000Y-81016409D03*
X149540000Y-81016409D03*
X147000000Y-81016409D03*
X144460000Y-81016409D03*
X141920000Y-81016409D03*
X139380000Y-81016409D03*
%TD*%
D16*
%TO.C,DISP1*%
X130940000Y-118276409D03*
D17*
X130940000Y-115736409D03*
X130940000Y-113196409D03*
X130940000Y-110656409D03*
%TD*%
D18*
%TO.C,U6*%
X164850000Y-75026409D03*
D19*
X162310000Y-75026409D03*
X159770000Y-75026409D03*
X157230000Y-75026409D03*
X154690000Y-75026409D03*
%TD*%
D20*
%TO.C,U5*%
X161875000Y-125326409D03*
D21*
X163145000Y-125326409D03*
X164415000Y-125326409D03*
%TD*%
M02*
