%TF.GenerationSoftware,KiCad,Pcbnew,8.0.8-unknown-202501290020~8b811aa383~ubuntu24.04.1*%
%TF.CreationDate,2025-02-10T17:26:24-05:00*%
%TF.ProjectId,deleteme,64656c65-7465-46d6-952e-6b696361645f,rev?*%
%TF.SameCoordinates,Original*%
%TF.FileFunction,Legend,Bot*%
%TF.FilePolarity,Positive*%
%FSLAX46Y46*%
G04 Gerber Fmt 4.6, Leading zero omitted, Abs format (unit mm)*
G04 Created by KiCad (PCBNEW 8.0.8-unknown-202501290020~8b811aa383~ubuntu24.04.1) date 2025-02-10 17:26:24*
%MOMM*%
%LPD*%
G01*
G04 APERTURE LIST*
%ADD10C,0.300000*%
%ADD11C,0.100000*%
%ADD12C,0.150000*%
%ADD13C,0.120000*%
G04 APERTURE END LIST*
D10*
X129444510Y-129355809D02*
X130587368Y-129355809D01*
D11*
X163883734Y-82211433D02*
X163740877Y-82259052D01*
X163740877Y-82259052D02*
X163502782Y-82259052D01*
X163502782Y-82259052D02*
X163407544Y-82211433D01*
X163407544Y-82211433D02*
X163359925Y-82163813D01*
X163359925Y-82163813D02*
X163312306Y-82068575D01*
X163312306Y-82068575D02*
X163312306Y-81973337D01*
X163312306Y-81973337D02*
X163359925Y-81878099D01*
X163359925Y-81878099D02*
X163407544Y-81830480D01*
X163407544Y-81830480D02*
X163502782Y-81782861D01*
X163502782Y-81782861D02*
X163693258Y-81735242D01*
X163693258Y-81735242D02*
X163788496Y-81687623D01*
X163788496Y-81687623D02*
X163836115Y-81640004D01*
X163836115Y-81640004D02*
X163883734Y-81544766D01*
X163883734Y-81544766D02*
X163883734Y-81449528D01*
X163883734Y-81449528D02*
X163836115Y-81354290D01*
X163836115Y-81354290D02*
X163788496Y-81306671D01*
X163788496Y-81306671D02*
X163693258Y-81259052D01*
X163693258Y-81259052D02*
X163455163Y-81259052D01*
X163455163Y-81259052D02*
X163312306Y-81306671D01*
X162502782Y-82211433D02*
X162598020Y-82259052D01*
X162598020Y-82259052D02*
X162788496Y-82259052D01*
X162788496Y-82259052D02*
X162883734Y-82211433D01*
X162883734Y-82211433D02*
X162931353Y-82116194D01*
X162931353Y-82116194D02*
X162931353Y-81735242D01*
X162931353Y-81735242D02*
X162883734Y-81640004D01*
X162883734Y-81640004D02*
X162788496Y-81592385D01*
X162788496Y-81592385D02*
X162598020Y-81592385D01*
X162598020Y-81592385D02*
X162502782Y-81640004D01*
X162502782Y-81640004D02*
X162455163Y-81735242D01*
X162455163Y-81735242D02*
X162455163Y-81830480D01*
X162455163Y-81830480D02*
X162931353Y-81925718D01*
X162026591Y-81592385D02*
X162026591Y-82259052D01*
X162026591Y-81687623D02*
X161978972Y-81640004D01*
X161978972Y-81640004D02*
X161883734Y-81592385D01*
X161883734Y-81592385D02*
X161740877Y-81592385D01*
X161740877Y-81592385D02*
X161645639Y-81640004D01*
X161645639Y-81640004D02*
X161598020Y-81735242D01*
X161598020Y-81735242D02*
X161598020Y-82259052D01*
X161169448Y-82211433D02*
X161074210Y-82259052D01*
X161074210Y-82259052D02*
X160883734Y-82259052D01*
X160883734Y-82259052D02*
X160788496Y-82211433D01*
X160788496Y-82211433D02*
X160740877Y-82116194D01*
X160740877Y-82116194D02*
X160740877Y-82068575D01*
X160740877Y-82068575D02*
X160788496Y-81973337D01*
X160788496Y-81973337D02*
X160883734Y-81925718D01*
X160883734Y-81925718D02*
X161026591Y-81925718D01*
X161026591Y-81925718D02*
X161121829Y-81878099D01*
X161121829Y-81878099D02*
X161169448Y-81782861D01*
X161169448Y-81782861D02*
X161169448Y-81735242D01*
X161169448Y-81735242D02*
X161121829Y-81640004D01*
X161121829Y-81640004D02*
X161026591Y-81592385D01*
X161026591Y-81592385D02*
X160883734Y-81592385D01*
X160883734Y-81592385D02*
X160788496Y-81640004D01*
X160169448Y-82259052D02*
X160264686Y-82211433D01*
X160264686Y-82211433D02*
X160312305Y-82163813D01*
X160312305Y-82163813D02*
X160359924Y-82068575D01*
X160359924Y-82068575D02*
X160359924Y-81782861D01*
X160359924Y-81782861D02*
X160312305Y-81687623D01*
X160312305Y-81687623D02*
X160264686Y-81640004D01*
X160264686Y-81640004D02*
X160169448Y-81592385D01*
X160169448Y-81592385D02*
X160026591Y-81592385D01*
X160026591Y-81592385D02*
X159931353Y-81640004D01*
X159931353Y-81640004D02*
X159883734Y-81687623D01*
X159883734Y-81687623D02*
X159836115Y-81782861D01*
X159836115Y-81782861D02*
X159836115Y-82068575D01*
X159836115Y-82068575D02*
X159883734Y-82163813D01*
X159883734Y-82163813D02*
X159931353Y-82211433D01*
X159931353Y-82211433D02*
X160026591Y-82259052D01*
X160026591Y-82259052D02*
X160169448Y-82259052D01*
X159407543Y-82259052D02*
X159407543Y-81592385D01*
X159407543Y-81782861D02*
X159359924Y-81687623D01*
X159359924Y-81687623D02*
X159312305Y-81640004D01*
X159312305Y-81640004D02*
X159217067Y-81592385D01*
X159217067Y-81592385D02*
X159121829Y-81592385D01*
X163836115Y-83868996D02*
X163836115Y-82868996D01*
X163836115Y-82868996D02*
X163598020Y-82868996D01*
X163598020Y-82868996D02*
X163455163Y-82916615D01*
X163455163Y-82916615D02*
X163359925Y-83011853D01*
X163359925Y-83011853D02*
X163312306Y-83107091D01*
X163312306Y-83107091D02*
X163264687Y-83297567D01*
X163264687Y-83297567D02*
X163264687Y-83440424D01*
X163264687Y-83440424D02*
X163312306Y-83630900D01*
X163312306Y-83630900D02*
X163359925Y-83726138D01*
X163359925Y-83726138D02*
X163455163Y-83821377D01*
X163455163Y-83821377D02*
X163598020Y-83868996D01*
X163598020Y-83868996D02*
X163836115Y-83868996D01*
X162455163Y-83821377D02*
X162550401Y-83868996D01*
X162550401Y-83868996D02*
X162740877Y-83868996D01*
X162740877Y-83868996D02*
X162836115Y-83821377D01*
X162836115Y-83821377D02*
X162883734Y-83726138D01*
X162883734Y-83726138D02*
X162883734Y-83345186D01*
X162883734Y-83345186D02*
X162836115Y-83249948D01*
X162836115Y-83249948D02*
X162740877Y-83202329D01*
X162740877Y-83202329D02*
X162550401Y-83202329D01*
X162550401Y-83202329D02*
X162455163Y-83249948D01*
X162455163Y-83249948D02*
X162407544Y-83345186D01*
X162407544Y-83345186D02*
X162407544Y-83440424D01*
X162407544Y-83440424D02*
X162883734Y-83535662D01*
X161836115Y-83868996D02*
X161931353Y-83821377D01*
X161931353Y-83821377D02*
X161978972Y-83726138D01*
X161978972Y-83726138D02*
X161978972Y-82868996D01*
X161455162Y-83868996D02*
X161455162Y-83202329D01*
X161455162Y-82868996D02*
X161502781Y-82916615D01*
X161502781Y-82916615D02*
X161455162Y-82964234D01*
X161455162Y-82964234D02*
X161407543Y-82916615D01*
X161407543Y-82916615D02*
X161455162Y-82868996D01*
X161455162Y-82868996D02*
X161455162Y-82964234D01*
X161074210Y-83202329D02*
X160836115Y-83868996D01*
X160836115Y-83868996D02*
X160598020Y-83202329D01*
X159836115Y-83821377D02*
X159931353Y-83868996D01*
X159931353Y-83868996D02*
X160121829Y-83868996D01*
X160121829Y-83868996D02*
X160217067Y-83821377D01*
X160217067Y-83821377D02*
X160264686Y-83726138D01*
X160264686Y-83726138D02*
X160264686Y-83345186D01*
X160264686Y-83345186D02*
X160217067Y-83249948D01*
X160217067Y-83249948D02*
X160121829Y-83202329D01*
X160121829Y-83202329D02*
X159931353Y-83202329D01*
X159931353Y-83202329D02*
X159836115Y-83249948D01*
X159836115Y-83249948D02*
X159788496Y-83345186D01*
X159788496Y-83345186D02*
X159788496Y-83440424D01*
X159788496Y-83440424D02*
X160264686Y-83535662D01*
X159359924Y-83868996D02*
X159359924Y-83202329D01*
X159359924Y-83392805D02*
X159312305Y-83297567D01*
X159312305Y-83297567D02*
X159264686Y-83249948D01*
X159264686Y-83249948D02*
X159169448Y-83202329D01*
X159169448Y-83202329D02*
X159074210Y-83202329D01*
X158836114Y-83202329D02*
X158598019Y-83868996D01*
X158359924Y-83202329D02*
X158598019Y-83868996D01*
X158598019Y-83868996D02*
X158693257Y-84107091D01*
X158693257Y-84107091D02*
X158740876Y-84154710D01*
X158740876Y-84154710D02*
X158836114Y-84202329D01*
X156883733Y-83345186D02*
X156740876Y-83392805D01*
X156740876Y-83392805D02*
X156693257Y-83440424D01*
X156693257Y-83440424D02*
X156645638Y-83535662D01*
X156645638Y-83535662D02*
X156645638Y-83678519D01*
X156645638Y-83678519D02*
X156693257Y-83773757D01*
X156693257Y-83773757D02*
X156740876Y-83821377D01*
X156740876Y-83821377D02*
X156836114Y-83868996D01*
X156836114Y-83868996D02*
X157217066Y-83868996D01*
X157217066Y-83868996D02*
X157217066Y-82868996D01*
X157217066Y-82868996D02*
X156883733Y-82868996D01*
X156883733Y-82868996D02*
X156788495Y-82916615D01*
X156788495Y-82916615D02*
X156740876Y-82964234D01*
X156740876Y-82964234D02*
X156693257Y-83059472D01*
X156693257Y-83059472D02*
X156693257Y-83154710D01*
X156693257Y-83154710D02*
X156740876Y-83249948D01*
X156740876Y-83249948D02*
X156788495Y-83297567D01*
X156788495Y-83297567D02*
X156883733Y-83345186D01*
X156883733Y-83345186D02*
X157217066Y-83345186D01*
X156074209Y-83868996D02*
X156169447Y-83821377D01*
X156169447Y-83821377D02*
X156217066Y-83773757D01*
X156217066Y-83773757D02*
X156264685Y-83678519D01*
X156264685Y-83678519D02*
X156264685Y-83392805D01*
X156264685Y-83392805D02*
X156217066Y-83297567D01*
X156217066Y-83297567D02*
X156169447Y-83249948D01*
X156169447Y-83249948D02*
X156074209Y-83202329D01*
X156074209Y-83202329D02*
X155931352Y-83202329D01*
X155931352Y-83202329D02*
X155836114Y-83249948D01*
X155836114Y-83249948D02*
X155788495Y-83297567D01*
X155788495Y-83297567D02*
X155740876Y-83392805D01*
X155740876Y-83392805D02*
X155740876Y-83678519D01*
X155740876Y-83678519D02*
X155788495Y-83773757D01*
X155788495Y-83773757D02*
X155836114Y-83821377D01*
X155836114Y-83821377D02*
X155931352Y-83868996D01*
X155931352Y-83868996D02*
X156074209Y-83868996D01*
X155407542Y-83868996D02*
X154883733Y-83202329D01*
X155407542Y-83202329D02*
X154883733Y-83868996D01*
X153169447Y-83868996D02*
X153502780Y-83392805D01*
X153740875Y-83868996D02*
X153740875Y-82868996D01*
X153740875Y-82868996D02*
X153359923Y-82868996D01*
X153359923Y-82868996D02*
X153264685Y-82916615D01*
X153264685Y-82916615D02*
X153217066Y-82964234D01*
X153217066Y-82964234D02*
X153169447Y-83059472D01*
X153169447Y-83059472D02*
X153169447Y-83202329D01*
X153169447Y-83202329D02*
X153217066Y-83297567D01*
X153217066Y-83297567D02*
X153264685Y-83345186D01*
X153264685Y-83345186D02*
X153359923Y-83392805D01*
X153359923Y-83392805D02*
X153740875Y-83392805D01*
X152359923Y-83821377D02*
X152455161Y-83868996D01*
X152455161Y-83868996D02*
X152645637Y-83868996D01*
X152645637Y-83868996D02*
X152740875Y-83821377D01*
X152740875Y-83821377D02*
X152788494Y-83726138D01*
X152788494Y-83726138D02*
X152788494Y-83345186D01*
X152788494Y-83345186D02*
X152740875Y-83249948D01*
X152740875Y-83249948D02*
X152645637Y-83202329D01*
X152645637Y-83202329D02*
X152455161Y-83202329D01*
X152455161Y-83202329D02*
X152359923Y-83249948D01*
X152359923Y-83249948D02*
X152312304Y-83345186D01*
X152312304Y-83345186D02*
X152312304Y-83440424D01*
X152312304Y-83440424D02*
X152788494Y-83535662D01*
X151883732Y-83202329D02*
X151883732Y-84202329D01*
X151883732Y-83249948D02*
X151788494Y-83202329D01*
X151788494Y-83202329D02*
X151598018Y-83202329D01*
X151598018Y-83202329D02*
X151502780Y-83249948D01*
X151502780Y-83249948D02*
X151455161Y-83297567D01*
X151455161Y-83297567D02*
X151407542Y-83392805D01*
X151407542Y-83392805D02*
X151407542Y-83678519D01*
X151407542Y-83678519D02*
X151455161Y-83773757D01*
X151455161Y-83773757D02*
X151502780Y-83821377D01*
X151502780Y-83821377D02*
X151598018Y-83868996D01*
X151598018Y-83868996D02*
X151788494Y-83868996D01*
X151788494Y-83868996D02*
X151883732Y-83821377D01*
X150836113Y-83868996D02*
X150931351Y-83821377D01*
X150931351Y-83821377D02*
X150978970Y-83773757D01*
X150978970Y-83773757D02*
X151026589Y-83678519D01*
X151026589Y-83678519D02*
X151026589Y-83392805D01*
X151026589Y-83392805D02*
X150978970Y-83297567D01*
X150978970Y-83297567D02*
X150931351Y-83249948D01*
X150931351Y-83249948D02*
X150836113Y-83202329D01*
X150836113Y-83202329D02*
X150693256Y-83202329D01*
X150693256Y-83202329D02*
X150598018Y-83249948D01*
X150598018Y-83249948D02*
X150550399Y-83297567D01*
X150550399Y-83297567D02*
X150502780Y-83392805D01*
X150502780Y-83392805D02*
X150502780Y-83678519D01*
X150502780Y-83678519D02*
X150550399Y-83773757D01*
X150550399Y-83773757D02*
X150598018Y-83821377D01*
X150598018Y-83821377D02*
X150693256Y-83868996D01*
X150693256Y-83868996D02*
X150836113Y-83868996D01*
X150074208Y-83868996D02*
X150074208Y-83202329D01*
X150074208Y-83392805D02*
X150026589Y-83297567D01*
X150026589Y-83297567D02*
X149978970Y-83249948D01*
X149978970Y-83249948D02*
X149883732Y-83202329D01*
X149883732Y-83202329D02*
X149788494Y-83202329D01*
X149598017Y-83202329D02*
X149217065Y-83202329D01*
X149455160Y-82868996D02*
X149455160Y-83726138D01*
X149455160Y-83726138D02*
X149407541Y-83821377D01*
X149407541Y-83821377D02*
X149312303Y-83868996D01*
X149312303Y-83868996D02*
X149217065Y-83868996D01*
X148502779Y-83821377D02*
X148598017Y-83868996D01*
X148598017Y-83868996D02*
X148788493Y-83868996D01*
X148788493Y-83868996D02*
X148883731Y-83821377D01*
X148883731Y-83821377D02*
X148931350Y-83726138D01*
X148931350Y-83726138D02*
X148931350Y-83345186D01*
X148931350Y-83345186D02*
X148883731Y-83249948D01*
X148883731Y-83249948D02*
X148788493Y-83202329D01*
X148788493Y-83202329D02*
X148598017Y-83202329D01*
X148598017Y-83202329D02*
X148502779Y-83249948D01*
X148502779Y-83249948D02*
X148455160Y-83345186D01*
X148455160Y-83345186D02*
X148455160Y-83440424D01*
X148455160Y-83440424D02*
X148931350Y-83535662D01*
X148026588Y-83868996D02*
X148026588Y-83202329D01*
X148026588Y-83392805D02*
X147978969Y-83297567D01*
X147978969Y-83297567D02*
X147931350Y-83249948D01*
X147931350Y-83249948D02*
X147836112Y-83202329D01*
X147836112Y-83202329D02*
X147740874Y-83202329D01*
X163978972Y-84478940D02*
X163645639Y-85478940D01*
X163645639Y-85478940D02*
X163312306Y-84478940D01*
X162598020Y-85431321D02*
X162693258Y-85478940D01*
X162693258Y-85478940D02*
X162883734Y-85478940D01*
X162883734Y-85478940D02*
X162978972Y-85431321D01*
X162978972Y-85431321D02*
X163026591Y-85336082D01*
X163026591Y-85336082D02*
X163026591Y-84955130D01*
X163026591Y-84955130D02*
X162978972Y-84859892D01*
X162978972Y-84859892D02*
X162883734Y-84812273D01*
X162883734Y-84812273D02*
X162693258Y-84812273D01*
X162693258Y-84812273D02*
X162598020Y-84859892D01*
X162598020Y-84859892D02*
X162550401Y-84955130D01*
X162550401Y-84955130D02*
X162550401Y-85050368D01*
X162550401Y-85050368D02*
X163026591Y-85145606D01*
X162121829Y-85478940D02*
X162121829Y-84812273D01*
X162121829Y-85002749D02*
X162074210Y-84907511D01*
X162074210Y-84907511D02*
X162026591Y-84859892D01*
X162026591Y-84859892D02*
X161931353Y-84812273D01*
X161931353Y-84812273D02*
X161836115Y-84812273D01*
X161550400Y-85431321D02*
X161455162Y-85478940D01*
X161455162Y-85478940D02*
X161264686Y-85478940D01*
X161264686Y-85478940D02*
X161169448Y-85431321D01*
X161169448Y-85431321D02*
X161121829Y-85336082D01*
X161121829Y-85336082D02*
X161121829Y-85288463D01*
X161121829Y-85288463D02*
X161169448Y-85193225D01*
X161169448Y-85193225D02*
X161264686Y-85145606D01*
X161264686Y-85145606D02*
X161407543Y-85145606D01*
X161407543Y-85145606D02*
X161502781Y-85097987D01*
X161502781Y-85097987D02*
X161550400Y-85002749D01*
X161550400Y-85002749D02*
X161550400Y-84955130D01*
X161550400Y-84955130D02*
X161502781Y-84859892D01*
X161502781Y-84859892D02*
X161407543Y-84812273D01*
X161407543Y-84812273D02*
X161264686Y-84812273D01*
X161264686Y-84812273D02*
X161169448Y-84859892D01*
X160693257Y-85478940D02*
X160693257Y-84812273D01*
X160693257Y-84478940D02*
X160740876Y-84526559D01*
X160740876Y-84526559D02*
X160693257Y-84574178D01*
X160693257Y-84574178D02*
X160645638Y-84526559D01*
X160645638Y-84526559D02*
X160693257Y-84478940D01*
X160693257Y-84478940D02*
X160693257Y-84574178D01*
X160074210Y-85478940D02*
X160169448Y-85431321D01*
X160169448Y-85431321D02*
X160217067Y-85383701D01*
X160217067Y-85383701D02*
X160264686Y-85288463D01*
X160264686Y-85288463D02*
X160264686Y-85002749D01*
X160264686Y-85002749D02*
X160217067Y-84907511D01*
X160217067Y-84907511D02*
X160169448Y-84859892D01*
X160169448Y-84859892D02*
X160074210Y-84812273D01*
X160074210Y-84812273D02*
X159931353Y-84812273D01*
X159931353Y-84812273D02*
X159836115Y-84859892D01*
X159836115Y-84859892D02*
X159788496Y-84907511D01*
X159788496Y-84907511D02*
X159740877Y-85002749D01*
X159740877Y-85002749D02*
X159740877Y-85288463D01*
X159740877Y-85288463D02*
X159788496Y-85383701D01*
X159788496Y-85383701D02*
X159836115Y-85431321D01*
X159836115Y-85431321D02*
X159931353Y-85478940D01*
X159931353Y-85478940D02*
X160074210Y-85478940D01*
X159312305Y-84812273D02*
X159312305Y-85478940D01*
X159312305Y-84907511D02*
X159264686Y-84859892D01*
X159264686Y-84859892D02*
X159169448Y-84812273D01*
X159169448Y-84812273D02*
X159026591Y-84812273D01*
X159026591Y-84812273D02*
X158931353Y-84859892D01*
X158931353Y-84859892D02*
X158883734Y-84955130D01*
X158883734Y-84955130D02*
X158883734Y-85478940D01*
X157693257Y-84574178D02*
X157645638Y-84526559D01*
X157645638Y-84526559D02*
X157550400Y-84478940D01*
X157550400Y-84478940D02*
X157312305Y-84478940D01*
X157312305Y-84478940D02*
X157217067Y-84526559D01*
X157217067Y-84526559D02*
X157169448Y-84574178D01*
X157169448Y-84574178D02*
X157121829Y-84669416D01*
X157121829Y-84669416D02*
X157121829Y-84764654D01*
X157121829Y-84764654D02*
X157169448Y-84907511D01*
X157169448Y-84907511D02*
X157740876Y-85478940D01*
X157740876Y-85478940D02*
X157121829Y-85478940D01*
X156693257Y-85383701D02*
X156645638Y-85431321D01*
X156645638Y-85431321D02*
X156693257Y-85478940D01*
X156693257Y-85478940D02*
X156740876Y-85431321D01*
X156740876Y-85431321D02*
X156693257Y-85383701D01*
X156693257Y-85383701D02*
X156693257Y-85478940D01*
X156264686Y-84574178D02*
X156217067Y-84526559D01*
X156217067Y-84526559D02*
X156121829Y-84478940D01*
X156121829Y-84478940D02*
X155883734Y-84478940D01*
X155883734Y-84478940D02*
X155788496Y-84526559D01*
X155788496Y-84526559D02*
X155740877Y-84574178D01*
X155740877Y-84574178D02*
X155693258Y-84669416D01*
X155693258Y-84669416D02*
X155693258Y-84764654D01*
X155693258Y-84764654D02*
X155740877Y-84907511D01*
X155740877Y-84907511D02*
X156312305Y-85478940D01*
X156312305Y-85478940D02*
X155693258Y-85478940D01*
X155264686Y-85383701D02*
X155217067Y-85431321D01*
X155217067Y-85431321D02*
X155264686Y-85478940D01*
X155264686Y-85478940D02*
X155312305Y-85431321D01*
X155312305Y-85431321D02*
X155264686Y-85383701D01*
X155264686Y-85383701D02*
X155264686Y-85478940D01*
X154598020Y-84478940D02*
X154502782Y-84478940D01*
X154502782Y-84478940D02*
X154407544Y-84526559D01*
X154407544Y-84526559D02*
X154359925Y-84574178D01*
X154359925Y-84574178D02*
X154312306Y-84669416D01*
X154312306Y-84669416D02*
X154264687Y-84859892D01*
X154264687Y-84859892D02*
X154264687Y-85097987D01*
X154264687Y-85097987D02*
X154312306Y-85288463D01*
X154312306Y-85288463D02*
X154359925Y-85383701D01*
X154359925Y-85383701D02*
X154407544Y-85431321D01*
X154407544Y-85431321D02*
X154502782Y-85478940D01*
X154502782Y-85478940D02*
X154598020Y-85478940D01*
X154598020Y-85478940D02*
X154693258Y-85431321D01*
X154693258Y-85431321D02*
X154740877Y-85383701D01*
X154740877Y-85383701D02*
X154788496Y-85288463D01*
X154788496Y-85288463D02*
X154836115Y-85097987D01*
X154836115Y-85097987D02*
X154836115Y-84859892D01*
X154836115Y-84859892D02*
X154788496Y-84669416D01*
X154788496Y-84669416D02*
X154740877Y-84574178D01*
X154740877Y-84574178D02*
X154693258Y-84526559D01*
X154693258Y-84526559D02*
X154598020Y-84478940D01*
X163883734Y-86184122D02*
X163836115Y-86136503D01*
X163836115Y-86136503D02*
X163740877Y-86088884D01*
X163740877Y-86088884D02*
X163502782Y-86088884D01*
X163502782Y-86088884D02*
X163407544Y-86136503D01*
X163407544Y-86136503D02*
X163359925Y-86184122D01*
X163359925Y-86184122D02*
X163312306Y-86279360D01*
X163312306Y-86279360D02*
X163312306Y-86374598D01*
X163312306Y-86374598D02*
X163359925Y-86517455D01*
X163359925Y-86517455D02*
X163931353Y-87088884D01*
X163931353Y-87088884D02*
X163312306Y-87088884D01*
X162883734Y-86707931D02*
X162121830Y-86707931D01*
X161121830Y-87088884D02*
X161693258Y-87088884D01*
X161407544Y-87088884D02*
X161407544Y-86088884D01*
X161407544Y-86088884D02*
X161502782Y-86231741D01*
X161502782Y-86231741D02*
X161598020Y-86326979D01*
X161598020Y-86326979D02*
X161693258Y-86374598D01*
X160502782Y-86088884D02*
X160407544Y-86088884D01*
X160407544Y-86088884D02*
X160312306Y-86136503D01*
X160312306Y-86136503D02*
X160264687Y-86184122D01*
X160264687Y-86184122D02*
X160217068Y-86279360D01*
X160217068Y-86279360D02*
X160169449Y-86469836D01*
X160169449Y-86469836D02*
X160169449Y-86707931D01*
X160169449Y-86707931D02*
X160217068Y-86898407D01*
X160217068Y-86898407D02*
X160264687Y-86993645D01*
X160264687Y-86993645D02*
X160312306Y-87041265D01*
X160312306Y-87041265D02*
X160407544Y-87088884D01*
X160407544Y-87088884D02*
X160502782Y-87088884D01*
X160502782Y-87088884D02*
X160598020Y-87041265D01*
X160598020Y-87041265D02*
X160645639Y-86993645D01*
X160645639Y-86993645D02*
X160693258Y-86898407D01*
X160693258Y-86898407D02*
X160740877Y-86707931D01*
X160740877Y-86707931D02*
X160740877Y-86469836D01*
X160740877Y-86469836D02*
X160693258Y-86279360D01*
X160693258Y-86279360D02*
X160645639Y-86184122D01*
X160645639Y-86184122D02*
X160598020Y-86136503D01*
X160598020Y-86136503D02*
X160502782Y-86088884D01*
X159740877Y-86707931D02*
X158978973Y-86707931D01*
X158550401Y-86184122D02*
X158502782Y-86136503D01*
X158502782Y-86136503D02*
X158407544Y-86088884D01*
X158407544Y-86088884D02*
X158169449Y-86088884D01*
X158169449Y-86088884D02*
X158074211Y-86136503D01*
X158074211Y-86136503D02*
X158026592Y-86184122D01*
X158026592Y-86184122D02*
X157978973Y-86279360D01*
X157978973Y-86279360D02*
X157978973Y-86374598D01*
X157978973Y-86374598D02*
X158026592Y-86517455D01*
X158026592Y-86517455D02*
X158598020Y-87088884D01*
X158598020Y-87088884D02*
X157978973Y-87088884D01*
X157074211Y-86088884D02*
X157550401Y-86088884D01*
X157550401Y-86088884D02*
X157598020Y-86565074D01*
X157598020Y-86565074D02*
X157550401Y-86517455D01*
X157550401Y-86517455D02*
X157455163Y-86469836D01*
X157455163Y-86469836D02*
X157217068Y-86469836D01*
X157217068Y-86469836D02*
X157121830Y-86517455D01*
X157121830Y-86517455D02*
X157074211Y-86565074D01*
X157074211Y-86565074D02*
X157026592Y-86660312D01*
X157026592Y-86660312D02*
X157026592Y-86898407D01*
X157026592Y-86898407D02*
X157074211Y-86993645D01*
X157074211Y-86993645D02*
X157121830Y-87041265D01*
X157121830Y-87041265D02*
X157217068Y-87088884D01*
X157217068Y-87088884D02*
X157455163Y-87088884D01*
X157455163Y-87088884D02*
X157550401Y-87041265D01*
X157550401Y-87041265D02*
X157598020Y-86993645D01*
X163836115Y-88698828D02*
X163836115Y-87698828D01*
X163836115Y-87698828D02*
X163598020Y-87698828D01*
X163598020Y-87698828D02*
X163455163Y-87746447D01*
X163455163Y-87746447D02*
X163359925Y-87841685D01*
X163359925Y-87841685D02*
X163312306Y-87936923D01*
X163312306Y-87936923D02*
X163264687Y-88127399D01*
X163264687Y-88127399D02*
X163264687Y-88270256D01*
X163264687Y-88270256D02*
X163312306Y-88460732D01*
X163312306Y-88460732D02*
X163359925Y-88555970D01*
X163359925Y-88555970D02*
X163455163Y-88651209D01*
X163455163Y-88651209D02*
X163598020Y-88698828D01*
X163598020Y-88698828D02*
X163836115Y-88698828D01*
X162407544Y-88698828D02*
X162407544Y-88175018D01*
X162407544Y-88175018D02*
X162455163Y-88079780D01*
X162455163Y-88079780D02*
X162550401Y-88032161D01*
X162550401Y-88032161D02*
X162740877Y-88032161D01*
X162740877Y-88032161D02*
X162836115Y-88079780D01*
X162407544Y-88651209D02*
X162502782Y-88698828D01*
X162502782Y-88698828D02*
X162740877Y-88698828D01*
X162740877Y-88698828D02*
X162836115Y-88651209D01*
X162836115Y-88651209D02*
X162883734Y-88555970D01*
X162883734Y-88555970D02*
X162883734Y-88460732D01*
X162883734Y-88460732D02*
X162836115Y-88365494D01*
X162836115Y-88365494D02*
X162740877Y-88317875D01*
X162740877Y-88317875D02*
X162502782Y-88317875D01*
X162502782Y-88317875D02*
X162407544Y-88270256D01*
X162026591Y-88032161D02*
X161788496Y-88698828D01*
X161788496Y-88698828D02*
X161550401Y-88032161D01*
X161169448Y-88698828D02*
X161169448Y-88032161D01*
X161169448Y-87698828D02*
X161217067Y-87746447D01*
X161217067Y-87746447D02*
X161169448Y-87794066D01*
X161169448Y-87794066D02*
X161121829Y-87746447D01*
X161121829Y-87746447D02*
X161169448Y-87698828D01*
X161169448Y-87698828D02*
X161169448Y-87794066D01*
X160264687Y-88698828D02*
X160264687Y-87698828D01*
X160264687Y-88651209D02*
X160359925Y-88698828D01*
X160359925Y-88698828D02*
X160550401Y-88698828D01*
X160550401Y-88698828D02*
X160645639Y-88651209D01*
X160645639Y-88651209D02*
X160693258Y-88603589D01*
X160693258Y-88603589D02*
X160740877Y-88508351D01*
X160740877Y-88508351D02*
X160740877Y-88222637D01*
X160740877Y-88222637D02*
X160693258Y-88127399D01*
X160693258Y-88127399D02*
X160645639Y-88079780D01*
X160645639Y-88079780D02*
X160550401Y-88032161D01*
X160550401Y-88032161D02*
X160359925Y-88032161D01*
X160359925Y-88032161D02*
X160264687Y-88079780D01*
X159026591Y-88175018D02*
X158693258Y-88175018D01*
X158550401Y-88698828D02*
X159026591Y-88698828D01*
X159026591Y-88698828D02*
X159026591Y-87698828D01*
X159026591Y-87698828D02*
X158550401Y-87698828D01*
X158121829Y-88603589D02*
X158074210Y-88651209D01*
X158074210Y-88651209D02*
X158121829Y-88698828D01*
X158121829Y-88698828D02*
X158169448Y-88651209D01*
X158169448Y-88651209D02*
X158121829Y-88603589D01*
X158121829Y-88603589D02*
X158121829Y-88698828D01*
X156883734Y-88698828D02*
X156883734Y-87698828D01*
X156883734Y-87698828D02*
X156502782Y-87698828D01*
X156502782Y-87698828D02*
X156407544Y-87746447D01*
X156407544Y-87746447D02*
X156359925Y-87794066D01*
X156359925Y-87794066D02*
X156312306Y-87889304D01*
X156312306Y-87889304D02*
X156312306Y-88032161D01*
X156312306Y-88032161D02*
X156359925Y-88127399D01*
X156359925Y-88127399D02*
X156407544Y-88175018D01*
X156407544Y-88175018D02*
X156502782Y-88222637D01*
X156502782Y-88222637D02*
X156883734Y-88222637D01*
X155740877Y-88698828D02*
X155836115Y-88651209D01*
X155836115Y-88651209D02*
X155883734Y-88603589D01*
X155883734Y-88603589D02*
X155931353Y-88508351D01*
X155931353Y-88508351D02*
X155931353Y-88222637D01*
X155931353Y-88222637D02*
X155883734Y-88127399D01*
X155883734Y-88127399D02*
X155836115Y-88079780D01*
X155836115Y-88079780D02*
X155740877Y-88032161D01*
X155740877Y-88032161D02*
X155598020Y-88032161D01*
X155598020Y-88032161D02*
X155502782Y-88079780D01*
X155502782Y-88079780D02*
X155455163Y-88127399D01*
X155455163Y-88127399D02*
X155407544Y-88222637D01*
X155407544Y-88222637D02*
X155407544Y-88508351D01*
X155407544Y-88508351D02*
X155455163Y-88603589D01*
X155455163Y-88603589D02*
X155502782Y-88651209D01*
X155502782Y-88651209D02*
X155598020Y-88698828D01*
X155598020Y-88698828D02*
X155740877Y-88698828D01*
X155074210Y-88032161D02*
X154883734Y-88698828D01*
X154883734Y-88698828D02*
X154693258Y-88222637D01*
X154693258Y-88222637D02*
X154502782Y-88698828D01*
X154502782Y-88698828D02*
X154312306Y-88032161D01*
X153550401Y-88651209D02*
X153645639Y-88698828D01*
X153645639Y-88698828D02*
X153836115Y-88698828D01*
X153836115Y-88698828D02*
X153931353Y-88651209D01*
X153931353Y-88651209D02*
X153978972Y-88555970D01*
X153978972Y-88555970D02*
X153978972Y-88175018D01*
X153978972Y-88175018D02*
X153931353Y-88079780D01*
X153931353Y-88079780D02*
X153836115Y-88032161D01*
X153836115Y-88032161D02*
X153645639Y-88032161D01*
X153645639Y-88032161D02*
X153550401Y-88079780D01*
X153550401Y-88079780D02*
X153502782Y-88175018D01*
X153502782Y-88175018D02*
X153502782Y-88270256D01*
X153502782Y-88270256D02*
X153978972Y-88365494D01*
X152931353Y-88698828D02*
X153026591Y-88651209D01*
X153026591Y-88651209D02*
X153074210Y-88555970D01*
X153074210Y-88555970D02*
X153074210Y-87698828D01*
X152407543Y-88698828D02*
X152502781Y-88651209D01*
X152502781Y-88651209D02*
X152550400Y-88555970D01*
X152550400Y-88555970D02*
X152550400Y-87698828D01*
D10*
X129494510Y-121255809D02*
X130637368Y-121255809D01*
X130065939Y-121827237D02*
X130065939Y-120684380D01*
D11*
X130247419Y-125193075D02*
X130961704Y-125193075D01*
X130961704Y-125193075D02*
X131104561Y-125145456D01*
X131104561Y-125145456D02*
X131199800Y-125050218D01*
X131199800Y-125050218D02*
X131247419Y-124907361D01*
X131247419Y-124907361D02*
X131247419Y-124812123D01*
X131247419Y-126193075D02*
X131247419Y-125621647D01*
X131247419Y-125907361D02*
X130247419Y-125907361D01*
X130247419Y-125907361D02*
X130390276Y-125812123D01*
X130390276Y-125812123D02*
X130485514Y-125716885D01*
X130485514Y-125716885D02*
X130533133Y-125621647D01*
D12*
X140851904Y-136111228D02*
X140851904Y-136920751D01*
X140851904Y-136920751D02*
X140804285Y-137015989D01*
X140804285Y-137015989D02*
X140756666Y-137063609D01*
X140756666Y-137063609D02*
X140661428Y-137111228D01*
X140661428Y-137111228D02*
X140470952Y-137111228D01*
X140470952Y-137111228D02*
X140375714Y-137063609D01*
X140375714Y-137063609D02*
X140328095Y-137015989D01*
X140328095Y-137015989D02*
X140280476Y-136920751D01*
X140280476Y-136920751D02*
X140280476Y-136111228D01*
X139899523Y-136111228D02*
X139280476Y-136111228D01*
X139280476Y-136111228D02*
X139613809Y-136492180D01*
X139613809Y-136492180D02*
X139470952Y-136492180D01*
X139470952Y-136492180D02*
X139375714Y-136539799D01*
X139375714Y-136539799D02*
X139328095Y-136587418D01*
X139328095Y-136587418D02*
X139280476Y-136682656D01*
X139280476Y-136682656D02*
X139280476Y-136920751D01*
X139280476Y-136920751D02*
X139328095Y-137015989D01*
X139328095Y-137015989D02*
X139375714Y-137063609D01*
X139375714Y-137063609D02*
X139470952Y-137111228D01*
X139470952Y-137111228D02*
X139756666Y-137111228D01*
X139756666Y-137111228D02*
X139851904Y-137063609D01*
X139851904Y-137063609D02*
X139899523Y-137015989D01*
D11*
X152869961Y-134298715D02*
X152917580Y-134393953D01*
X152917580Y-134393953D02*
X152917580Y-134536810D01*
X152917580Y-134536810D02*
X152869961Y-134679667D01*
X152869961Y-134679667D02*
X152774723Y-134774905D01*
X152774723Y-134774905D02*
X152679485Y-134822524D01*
X152679485Y-134822524D02*
X152489009Y-134870143D01*
X152489009Y-134870143D02*
X152346152Y-134870143D01*
X152346152Y-134870143D02*
X152155676Y-134822524D01*
X152155676Y-134822524D02*
X152060438Y-134774905D01*
X152060438Y-134774905D02*
X151965200Y-134679667D01*
X151965200Y-134679667D02*
X151917580Y-134536810D01*
X151917580Y-134536810D02*
X151917580Y-134441572D01*
X151917580Y-134441572D02*
X151965200Y-134298715D01*
X151965200Y-134298715D02*
X152012819Y-134251096D01*
X152012819Y-134251096D02*
X152346152Y-134251096D01*
X152346152Y-134251096D02*
X152346152Y-134441572D01*
X152584247Y-133822524D02*
X151917580Y-133822524D01*
X152489009Y-133822524D02*
X152536628Y-133774905D01*
X152536628Y-133774905D02*
X152584247Y-133679667D01*
X152584247Y-133679667D02*
X152584247Y-133536810D01*
X152584247Y-133536810D02*
X152536628Y-133441572D01*
X152536628Y-133441572D02*
X152441390Y-133393953D01*
X152441390Y-133393953D02*
X151917580Y-133393953D01*
X151917580Y-132489191D02*
X152917580Y-132489191D01*
X151965200Y-132489191D02*
X151917580Y-132584429D01*
X151917580Y-132584429D02*
X151917580Y-132774905D01*
X151917580Y-132774905D02*
X151965200Y-132870143D01*
X151965200Y-132870143D02*
X152012819Y-132917762D01*
X152012819Y-132917762D02*
X152108057Y-132965381D01*
X152108057Y-132965381D02*
X152393771Y-132965381D01*
X152393771Y-132965381D02*
X152489009Y-132917762D01*
X152489009Y-132917762D02*
X152536628Y-132870143D01*
X152536628Y-132870143D02*
X152584247Y-132774905D01*
X152584247Y-132774905D02*
X152584247Y-132584429D01*
X152584247Y-132584429D02*
X152536628Y-132489191D01*
X155417580Y-134715381D02*
X154417580Y-134382048D01*
X154417580Y-134382048D02*
X155417580Y-134048715D01*
X154417580Y-133715381D02*
X155084247Y-133715381D01*
X155417580Y-133715381D02*
X155369961Y-133763000D01*
X155369961Y-133763000D02*
X155322342Y-133715381D01*
X155322342Y-133715381D02*
X155369961Y-133667762D01*
X155369961Y-133667762D02*
X155417580Y-133715381D01*
X155417580Y-133715381D02*
X155322342Y-133715381D01*
X155084247Y-133239191D02*
X154417580Y-133239191D01*
X154989009Y-133239191D02*
X155036628Y-133191572D01*
X155036628Y-133191572D02*
X155084247Y-133096334D01*
X155084247Y-133096334D02*
X155084247Y-132953477D01*
X155084247Y-132953477D02*
X155036628Y-132858239D01*
X155036628Y-132858239D02*
X154941390Y-132810620D01*
X154941390Y-132810620D02*
X154417580Y-132810620D01*
X145369961Y-134048715D02*
X145417580Y-134143953D01*
X145417580Y-134143953D02*
X145417580Y-134286810D01*
X145417580Y-134286810D02*
X145369961Y-134429667D01*
X145369961Y-134429667D02*
X145274723Y-134524905D01*
X145274723Y-134524905D02*
X145179485Y-134572524D01*
X145179485Y-134572524D02*
X144989009Y-134620143D01*
X144989009Y-134620143D02*
X144846152Y-134620143D01*
X144846152Y-134620143D02*
X144655676Y-134572524D01*
X144655676Y-134572524D02*
X144560438Y-134524905D01*
X144560438Y-134524905D02*
X144465200Y-134429667D01*
X144465200Y-134429667D02*
X144417580Y-134286810D01*
X144417580Y-134286810D02*
X144417580Y-134191572D01*
X144417580Y-134191572D02*
X144465200Y-134048715D01*
X144465200Y-134048715D02*
X144512819Y-134001096D01*
X144512819Y-134001096D02*
X144846152Y-134001096D01*
X144846152Y-134001096D02*
X144846152Y-134191572D01*
X144417580Y-133572524D02*
X145417580Y-133572524D01*
X145417580Y-133572524D02*
X145417580Y-133191572D01*
X145417580Y-133191572D02*
X145369961Y-133096334D01*
X145369961Y-133096334D02*
X145322342Y-133048715D01*
X145322342Y-133048715D02*
X145227104Y-133001096D01*
X145227104Y-133001096D02*
X145084247Y-133001096D01*
X145084247Y-133001096D02*
X144989009Y-133048715D01*
X144989009Y-133048715D02*
X144941390Y-133096334D01*
X144941390Y-133096334D02*
X144893771Y-133191572D01*
X144893771Y-133191572D02*
X144893771Y-133572524D01*
X144417580Y-132572524D02*
X145417580Y-132572524D01*
X145417580Y-131905858D02*
X145417580Y-131810620D01*
X145417580Y-131810620D02*
X145369961Y-131715382D01*
X145369961Y-131715382D02*
X145322342Y-131667763D01*
X145322342Y-131667763D02*
X145227104Y-131620144D01*
X145227104Y-131620144D02*
X145036628Y-131572525D01*
X145036628Y-131572525D02*
X144798533Y-131572525D01*
X144798533Y-131572525D02*
X144608057Y-131620144D01*
X144608057Y-131620144D02*
X144512819Y-131667763D01*
X144512819Y-131667763D02*
X144465200Y-131715382D01*
X144465200Y-131715382D02*
X144417580Y-131810620D01*
X144417580Y-131810620D02*
X144417580Y-131905858D01*
X144417580Y-131905858D02*
X144465200Y-132001096D01*
X144465200Y-132001096D02*
X144512819Y-132048715D01*
X144512819Y-132048715D02*
X144608057Y-132096334D01*
X144608057Y-132096334D02*
X144798533Y-132143953D01*
X144798533Y-132143953D02*
X145036628Y-132143953D01*
X145036628Y-132143953D02*
X145227104Y-132096334D01*
X145227104Y-132096334D02*
X145322342Y-132048715D01*
X145322342Y-132048715D02*
X145369961Y-132001096D01*
X145369961Y-132001096D02*
X145417580Y-131905858D01*
X144417580Y-130620144D02*
X144417580Y-131191572D01*
X144417580Y-130905858D02*
X145417580Y-130905858D01*
X145417580Y-130905858D02*
X145274723Y-131001096D01*
X145274723Y-131001096D02*
X145179485Y-131096334D01*
X145179485Y-131096334D02*
X145131866Y-131191572D01*
X142917580Y-134667762D02*
X141917580Y-134001096D01*
X142917580Y-134001096D02*
X141917580Y-134667762D01*
X141965200Y-133667762D02*
X141917580Y-133524905D01*
X141917580Y-133524905D02*
X141917580Y-133286810D01*
X141917580Y-133286810D02*
X141965200Y-133191572D01*
X141965200Y-133191572D02*
X142012819Y-133143953D01*
X142012819Y-133143953D02*
X142108057Y-133096334D01*
X142108057Y-133096334D02*
X142203295Y-133096334D01*
X142203295Y-133096334D02*
X142298533Y-133143953D01*
X142298533Y-133143953D02*
X142346152Y-133191572D01*
X142346152Y-133191572D02*
X142393771Y-133286810D01*
X142393771Y-133286810D02*
X142441390Y-133477286D01*
X142441390Y-133477286D02*
X142489009Y-133572524D01*
X142489009Y-133572524D02*
X142536628Y-133620143D01*
X142536628Y-133620143D02*
X142631866Y-133667762D01*
X142631866Y-133667762D02*
X142727104Y-133667762D01*
X142727104Y-133667762D02*
X142822342Y-133620143D01*
X142822342Y-133620143D02*
X142869961Y-133572524D01*
X142869961Y-133572524D02*
X142917580Y-133477286D01*
X142917580Y-133477286D02*
X142917580Y-133239191D01*
X142917580Y-133239191D02*
X142869961Y-133096334D01*
X141917580Y-132667762D02*
X142917580Y-132667762D01*
X142441390Y-132667762D02*
X142441390Y-132096334D01*
X141917580Y-132096334D02*
X142917580Y-132096334D01*
X142917580Y-131620143D02*
X142108057Y-131620143D01*
X142108057Y-131620143D02*
X142012819Y-131572524D01*
X142012819Y-131572524D02*
X141965200Y-131524905D01*
X141965200Y-131524905D02*
X141917580Y-131429667D01*
X141917580Y-131429667D02*
X141917580Y-131239191D01*
X141917580Y-131239191D02*
X141965200Y-131143953D01*
X141965200Y-131143953D02*
X142012819Y-131096334D01*
X142012819Y-131096334D02*
X142108057Y-131048715D01*
X142108057Y-131048715D02*
X142917580Y-131048715D01*
X142917580Y-130715381D02*
X142917580Y-130143953D01*
X141917580Y-130429667D02*
X142917580Y-130429667D01*
X149465200Y-134620143D02*
X149417580Y-134477286D01*
X149417580Y-134477286D02*
X149417580Y-134239191D01*
X149417580Y-134239191D02*
X149465200Y-134143953D01*
X149465200Y-134143953D02*
X149512819Y-134096334D01*
X149512819Y-134096334D02*
X149608057Y-134048715D01*
X149608057Y-134048715D02*
X149703295Y-134048715D01*
X149703295Y-134048715D02*
X149798533Y-134096334D01*
X149798533Y-134096334D02*
X149846152Y-134143953D01*
X149846152Y-134143953D02*
X149893771Y-134239191D01*
X149893771Y-134239191D02*
X149941390Y-134429667D01*
X149941390Y-134429667D02*
X149989009Y-134524905D01*
X149989009Y-134524905D02*
X150036628Y-134572524D01*
X150036628Y-134572524D02*
X150131866Y-134620143D01*
X150131866Y-134620143D02*
X150227104Y-134620143D01*
X150227104Y-134620143D02*
X150322342Y-134572524D01*
X150322342Y-134572524D02*
X150369961Y-134524905D01*
X150369961Y-134524905D02*
X150417580Y-134429667D01*
X150417580Y-134429667D02*
X150417580Y-134191572D01*
X150417580Y-134191572D02*
X150369961Y-134048715D01*
X149512819Y-133048715D02*
X149465200Y-133096334D01*
X149465200Y-133096334D02*
X149417580Y-133239191D01*
X149417580Y-133239191D02*
X149417580Y-133334429D01*
X149417580Y-133334429D02*
X149465200Y-133477286D01*
X149465200Y-133477286D02*
X149560438Y-133572524D01*
X149560438Y-133572524D02*
X149655676Y-133620143D01*
X149655676Y-133620143D02*
X149846152Y-133667762D01*
X149846152Y-133667762D02*
X149989009Y-133667762D01*
X149989009Y-133667762D02*
X150179485Y-133620143D01*
X150179485Y-133620143D02*
X150274723Y-133572524D01*
X150274723Y-133572524D02*
X150369961Y-133477286D01*
X150369961Y-133477286D02*
X150417580Y-133334429D01*
X150417580Y-133334429D02*
X150417580Y-133239191D01*
X150417580Y-133239191D02*
X150369961Y-133096334D01*
X150369961Y-133096334D02*
X150322342Y-133048715D01*
X149417580Y-132143953D02*
X149417580Y-132620143D01*
X149417580Y-132620143D02*
X150417580Y-132620143D01*
X146965200Y-134620143D02*
X146917580Y-134477286D01*
X146917580Y-134477286D02*
X146917580Y-134239191D01*
X146917580Y-134239191D02*
X146965200Y-134143953D01*
X146965200Y-134143953D02*
X147012819Y-134096334D01*
X147012819Y-134096334D02*
X147108057Y-134048715D01*
X147108057Y-134048715D02*
X147203295Y-134048715D01*
X147203295Y-134048715D02*
X147298533Y-134096334D01*
X147298533Y-134096334D02*
X147346152Y-134143953D01*
X147346152Y-134143953D02*
X147393771Y-134239191D01*
X147393771Y-134239191D02*
X147441390Y-134429667D01*
X147441390Y-134429667D02*
X147489009Y-134524905D01*
X147489009Y-134524905D02*
X147536628Y-134572524D01*
X147536628Y-134572524D02*
X147631866Y-134620143D01*
X147631866Y-134620143D02*
X147727104Y-134620143D01*
X147727104Y-134620143D02*
X147822342Y-134572524D01*
X147822342Y-134572524D02*
X147869961Y-134524905D01*
X147869961Y-134524905D02*
X147917580Y-134429667D01*
X147917580Y-134429667D02*
X147917580Y-134191572D01*
X147917580Y-134191572D02*
X147869961Y-134048715D01*
X146917580Y-133620143D02*
X147917580Y-133620143D01*
X147917580Y-133620143D02*
X147917580Y-133382048D01*
X147917580Y-133382048D02*
X147869961Y-133239191D01*
X147869961Y-133239191D02*
X147774723Y-133143953D01*
X147774723Y-133143953D02*
X147679485Y-133096334D01*
X147679485Y-133096334D02*
X147489009Y-133048715D01*
X147489009Y-133048715D02*
X147346152Y-133048715D01*
X147346152Y-133048715D02*
X147155676Y-133096334D01*
X147155676Y-133096334D02*
X147060438Y-133143953D01*
X147060438Y-133143953D02*
X146965200Y-133239191D01*
X146965200Y-133239191D02*
X146917580Y-133382048D01*
X146917580Y-133382048D02*
X146917580Y-133620143D01*
X147203295Y-132667762D02*
X147203295Y-132191572D01*
X146917580Y-132763000D02*
X147917580Y-132429667D01*
X147917580Y-132429667D02*
X146917580Y-132096334D01*
%TO.C,J1*%
X129215000Y-122101409D02*
X135965000Y-122101409D01*
X135965000Y-128851409D01*
X129215000Y-128851409D01*
X129215000Y-122101409D01*
D13*
%TO.C,U3*%
X141290000Y-126876409D02*
X141290000Y-129876409D01*
X141290000Y-126876409D02*
X155790000Y-126876409D01*
D11*
X141290000Y-129876409D02*
X139040000Y-129876409D01*
X141290000Y-134876409D02*
X139040000Y-134876409D01*
X141290000Y-134876409D02*
X141290000Y-137876409D01*
D13*
X155790000Y-126876409D02*
X155790000Y-129876409D01*
D11*
X155790000Y-129876409D02*
X158040000Y-129876409D01*
X155790000Y-134876409D02*
X155790000Y-137876409D01*
X155790000Y-134876409D02*
X158090000Y-134876409D01*
D13*
X155790000Y-137876409D02*
X141290000Y-137876409D01*
D11*
X139040000Y-134876409D02*
G75*
G02*
X139040000Y-129876409I0J2500000D01*
G01*
X158040000Y-129876409D02*
G75*
G02*
X158040000Y-134876409I0J-2500000D01*
G01*
X140290000Y-132376409D02*
G75*
G02*
X137790000Y-132376409I-1250000J0D01*
G01*
X137790000Y-132376409D02*
G75*
G02*
X140290000Y-132376409I1250000J0D01*
G01*
X159290000Y-132376409D02*
G75*
G02*
X156790000Y-132376409I-1250000J0D01*
G01*
X156790000Y-132376409D02*
G75*
G02*
X159290000Y-132376409I1250000J0D01*
G01*
%TD*%
M02*
