%TF.GenerationSoftware,KiCad,Pcbnew,8.0.8-unknown-202501170223~559b1827ca~ubuntu24.04.1*%
%TF.CreationDate,2025-02-03T18:23:22-05:00*%
%TF.ProjectId,delivery-box-reporter-lora,64656c69-7665-4727-992d-626f782d7265,rev?*%
%TF.SameCoordinates,Original*%
%TF.FileFunction,Legend,Top*%
%TF.FilePolarity,Positive*%
%FSLAX46Y46*%
G04 Gerber Fmt 4.6, Leading zero omitted, Abs format (unit mm)*
G04 Created by KiCad (PCBNEW 8.0.8-unknown-202501170223~559b1827ca~ubuntu24.04.1) date 2025-02-03 18:23:22*
%MOMM*%
%LPD*%
G01*
G04 APERTURE LIST*
%ADD10C,0.100000*%
%ADD11C,0.150000*%
%ADD12C,0.120000*%
G04 APERTURE END LIST*
D10*
X137475000Y-99790000D02*
X137475000Y-101040000D01*
X137475000Y-100415000D02*
X136375000Y-100990000D01*
X136375000Y-99840000D01*
X137475000Y-100415000D01*
G36*
X137475000Y-100415000D02*
G01*
X136375000Y-100990000D01*
X136375000Y-99840000D01*
X137475000Y-100415000D01*
G37*
X135575000Y-100440000D02*
X138125000Y-100440000D01*
X124658533Y-114703884D02*
X124658533Y-115465789D01*
X124277580Y-115084836D02*
X125039485Y-115084836D01*
X125277580Y-115846741D02*
X125277580Y-116465788D01*
X125277580Y-116465788D02*
X124896628Y-116132455D01*
X124896628Y-116132455D02*
X124896628Y-116275312D01*
X124896628Y-116275312D02*
X124849009Y-116370550D01*
X124849009Y-116370550D02*
X124801390Y-116418169D01*
X124801390Y-116418169D02*
X124706152Y-116465788D01*
X124706152Y-116465788D02*
X124468057Y-116465788D01*
X124468057Y-116465788D02*
X124372819Y-116418169D01*
X124372819Y-116418169D02*
X124325200Y-116370550D01*
X124325200Y-116370550D02*
X124277580Y-116275312D01*
X124277580Y-116275312D02*
X124277580Y-115989598D01*
X124277580Y-115989598D02*
X124325200Y-115894360D01*
X124325200Y-115894360D02*
X124372819Y-115846741D01*
X124944247Y-116799122D02*
X124277580Y-117037217D01*
X124277580Y-117037217D02*
X124944247Y-117275312D01*
X125277580Y-117561027D02*
X125277580Y-118180074D01*
X125277580Y-118180074D02*
X124896628Y-117846741D01*
X124896628Y-117846741D02*
X124896628Y-117989598D01*
X124896628Y-117989598D02*
X124849009Y-118084836D01*
X124849009Y-118084836D02*
X124801390Y-118132455D01*
X124801390Y-118132455D02*
X124706152Y-118180074D01*
X124706152Y-118180074D02*
X124468057Y-118180074D01*
X124468057Y-118180074D02*
X124372819Y-118132455D01*
X124372819Y-118132455D02*
X124325200Y-118084836D01*
X124325200Y-118084836D02*
X124277580Y-117989598D01*
X124277580Y-117989598D02*
X124277580Y-117703884D01*
X124277580Y-117703884D02*
X124325200Y-117608646D01*
X124325200Y-117608646D02*
X124372819Y-117561027D01*
X124658533Y-118608646D02*
X124658533Y-119370551D01*
D11*
X142038095Y-116404819D02*
X142038095Y-117214342D01*
X142038095Y-117214342D02*
X142085714Y-117309580D01*
X142085714Y-117309580D02*
X142133333Y-117357200D01*
X142133333Y-117357200D02*
X142228571Y-117404819D01*
X142228571Y-117404819D02*
X142419047Y-117404819D01*
X142419047Y-117404819D02*
X142514285Y-117357200D01*
X142514285Y-117357200D02*
X142561904Y-117309580D01*
X142561904Y-117309580D02*
X142609523Y-117214342D01*
X142609523Y-117214342D02*
X142609523Y-116404819D01*
X142990476Y-116404819D02*
X143609523Y-116404819D01*
X143609523Y-116404819D02*
X143276190Y-116785771D01*
X143276190Y-116785771D02*
X143419047Y-116785771D01*
X143419047Y-116785771D02*
X143514285Y-116833390D01*
X143514285Y-116833390D02*
X143561904Y-116881009D01*
X143561904Y-116881009D02*
X143609523Y-116976247D01*
X143609523Y-116976247D02*
X143609523Y-117214342D01*
X143609523Y-117214342D02*
X143561904Y-117309580D01*
X143561904Y-117309580D02*
X143514285Y-117357200D01*
X143514285Y-117357200D02*
X143419047Y-117404819D01*
X143419047Y-117404819D02*
X143133333Y-117404819D01*
X143133333Y-117404819D02*
X143038095Y-117357200D01*
X143038095Y-117357200D02*
X142990476Y-117309580D01*
D10*
X141225200Y-121456265D02*
X141177580Y-121599122D01*
X141177580Y-121599122D02*
X141177580Y-121837217D01*
X141177580Y-121837217D02*
X141225200Y-121932455D01*
X141225200Y-121932455D02*
X141272819Y-121980074D01*
X141272819Y-121980074D02*
X141368057Y-122027693D01*
X141368057Y-122027693D02*
X141463295Y-122027693D01*
X141463295Y-122027693D02*
X141558533Y-121980074D01*
X141558533Y-121980074D02*
X141606152Y-121932455D01*
X141606152Y-121932455D02*
X141653771Y-121837217D01*
X141653771Y-121837217D02*
X141701390Y-121646741D01*
X141701390Y-121646741D02*
X141749009Y-121551503D01*
X141749009Y-121551503D02*
X141796628Y-121503884D01*
X141796628Y-121503884D02*
X141891866Y-121456265D01*
X141891866Y-121456265D02*
X141987104Y-121456265D01*
X141987104Y-121456265D02*
X142082342Y-121503884D01*
X142082342Y-121503884D02*
X142129961Y-121551503D01*
X142129961Y-121551503D02*
X142177580Y-121646741D01*
X142177580Y-121646741D02*
X142177580Y-121884836D01*
X142177580Y-121884836D02*
X142129961Y-122027693D01*
X141177580Y-122456265D02*
X142177580Y-122456265D01*
X142177580Y-122456265D02*
X142177580Y-122694360D01*
X142177580Y-122694360D02*
X142129961Y-122837217D01*
X142129961Y-122837217D02*
X142034723Y-122932455D01*
X142034723Y-122932455D02*
X141939485Y-122980074D01*
X141939485Y-122980074D02*
X141749009Y-123027693D01*
X141749009Y-123027693D02*
X141606152Y-123027693D01*
X141606152Y-123027693D02*
X141415676Y-122980074D01*
X141415676Y-122980074D02*
X141320438Y-122932455D01*
X141320438Y-122932455D02*
X141225200Y-122837217D01*
X141225200Y-122837217D02*
X141177580Y-122694360D01*
X141177580Y-122694360D02*
X141177580Y-122456265D01*
X141463295Y-123408646D02*
X141463295Y-123884836D01*
X141177580Y-123313408D02*
X142177580Y-123646741D01*
X142177580Y-123646741D02*
X141177580Y-123980074D01*
X137177580Y-121408646D02*
X136177580Y-122075312D01*
X137177580Y-122075312D02*
X136177580Y-121408646D01*
X136225200Y-122408646D02*
X136177580Y-122551503D01*
X136177580Y-122551503D02*
X136177580Y-122789598D01*
X136177580Y-122789598D02*
X136225200Y-122884836D01*
X136225200Y-122884836D02*
X136272819Y-122932455D01*
X136272819Y-122932455D02*
X136368057Y-122980074D01*
X136368057Y-122980074D02*
X136463295Y-122980074D01*
X136463295Y-122980074D02*
X136558533Y-122932455D01*
X136558533Y-122932455D02*
X136606152Y-122884836D01*
X136606152Y-122884836D02*
X136653771Y-122789598D01*
X136653771Y-122789598D02*
X136701390Y-122599122D01*
X136701390Y-122599122D02*
X136749009Y-122503884D01*
X136749009Y-122503884D02*
X136796628Y-122456265D01*
X136796628Y-122456265D02*
X136891866Y-122408646D01*
X136891866Y-122408646D02*
X136987104Y-122408646D01*
X136987104Y-122408646D02*
X137082342Y-122456265D01*
X137082342Y-122456265D02*
X137129961Y-122503884D01*
X137129961Y-122503884D02*
X137177580Y-122599122D01*
X137177580Y-122599122D02*
X137177580Y-122837217D01*
X137177580Y-122837217D02*
X137129961Y-122980074D01*
X136177580Y-123408646D02*
X137177580Y-123408646D01*
X136701390Y-123408646D02*
X136701390Y-123980074D01*
X136177580Y-123980074D02*
X137177580Y-123980074D01*
X137177580Y-124456265D02*
X136368057Y-124456265D01*
X136368057Y-124456265D02*
X136272819Y-124503884D01*
X136272819Y-124503884D02*
X136225200Y-124551503D01*
X136225200Y-124551503D02*
X136177580Y-124646741D01*
X136177580Y-124646741D02*
X136177580Y-124837217D01*
X136177580Y-124837217D02*
X136225200Y-124932455D01*
X136225200Y-124932455D02*
X136272819Y-124980074D01*
X136272819Y-124980074D02*
X136368057Y-125027693D01*
X136368057Y-125027693D02*
X137177580Y-125027693D01*
X137177580Y-125361027D02*
X137177580Y-125932455D01*
X136177580Y-125646741D02*
X137177580Y-125646741D01*
X147129961Y-121777693D02*
X147177580Y-121682455D01*
X147177580Y-121682455D02*
X147177580Y-121539598D01*
X147177580Y-121539598D02*
X147129961Y-121396741D01*
X147129961Y-121396741D02*
X147034723Y-121301503D01*
X147034723Y-121301503D02*
X146939485Y-121253884D01*
X146939485Y-121253884D02*
X146749009Y-121206265D01*
X146749009Y-121206265D02*
X146606152Y-121206265D01*
X146606152Y-121206265D02*
X146415676Y-121253884D01*
X146415676Y-121253884D02*
X146320438Y-121301503D01*
X146320438Y-121301503D02*
X146225200Y-121396741D01*
X146225200Y-121396741D02*
X146177580Y-121539598D01*
X146177580Y-121539598D02*
X146177580Y-121634836D01*
X146177580Y-121634836D02*
X146225200Y-121777693D01*
X146225200Y-121777693D02*
X146272819Y-121825312D01*
X146272819Y-121825312D02*
X146606152Y-121825312D01*
X146606152Y-121825312D02*
X146606152Y-121634836D01*
X146844247Y-122253884D02*
X146177580Y-122253884D01*
X146749009Y-122253884D02*
X146796628Y-122301503D01*
X146796628Y-122301503D02*
X146844247Y-122396741D01*
X146844247Y-122396741D02*
X146844247Y-122539598D01*
X146844247Y-122539598D02*
X146796628Y-122634836D01*
X146796628Y-122634836D02*
X146701390Y-122682455D01*
X146701390Y-122682455D02*
X146177580Y-122682455D01*
X146177580Y-123587217D02*
X147177580Y-123587217D01*
X146225200Y-123587217D02*
X146177580Y-123491979D01*
X146177580Y-123491979D02*
X146177580Y-123301503D01*
X146177580Y-123301503D02*
X146225200Y-123206265D01*
X146225200Y-123206265D02*
X146272819Y-123158646D01*
X146272819Y-123158646D02*
X146368057Y-123111027D01*
X146368057Y-123111027D02*
X146653771Y-123111027D01*
X146653771Y-123111027D02*
X146749009Y-123158646D01*
X146749009Y-123158646D02*
X146796628Y-123206265D01*
X146796628Y-123206265D02*
X146844247Y-123301503D01*
X146844247Y-123301503D02*
X146844247Y-123491979D01*
X146844247Y-123491979D02*
X146796628Y-123587217D01*
X149677580Y-121361027D02*
X148677580Y-121694360D01*
X148677580Y-121694360D02*
X149677580Y-122027693D01*
X148677580Y-122361027D02*
X149344247Y-122361027D01*
X149677580Y-122361027D02*
X149629961Y-122313408D01*
X149629961Y-122313408D02*
X149582342Y-122361027D01*
X149582342Y-122361027D02*
X149629961Y-122408646D01*
X149629961Y-122408646D02*
X149677580Y-122361027D01*
X149677580Y-122361027D02*
X149582342Y-122361027D01*
X149344247Y-122837217D02*
X148677580Y-122837217D01*
X149249009Y-122837217D02*
X149296628Y-122884836D01*
X149296628Y-122884836D02*
X149344247Y-122980074D01*
X149344247Y-122980074D02*
X149344247Y-123122931D01*
X149344247Y-123122931D02*
X149296628Y-123218169D01*
X149296628Y-123218169D02*
X149201390Y-123265788D01*
X149201390Y-123265788D02*
X148677580Y-123265788D01*
X139629961Y-122027693D02*
X139677580Y-121932455D01*
X139677580Y-121932455D02*
X139677580Y-121789598D01*
X139677580Y-121789598D02*
X139629961Y-121646741D01*
X139629961Y-121646741D02*
X139534723Y-121551503D01*
X139534723Y-121551503D02*
X139439485Y-121503884D01*
X139439485Y-121503884D02*
X139249009Y-121456265D01*
X139249009Y-121456265D02*
X139106152Y-121456265D01*
X139106152Y-121456265D02*
X138915676Y-121503884D01*
X138915676Y-121503884D02*
X138820438Y-121551503D01*
X138820438Y-121551503D02*
X138725200Y-121646741D01*
X138725200Y-121646741D02*
X138677580Y-121789598D01*
X138677580Y-121789598D02*
X138677580Y-121884836D01*
X138677580Y-121884836D02*
X138725200Y-122027693D01*
X138725200Y-122027693D02*
X138772819Y-122075312D01*
X138772819Y-122075312D02*
X139106152Y-122075312D01*
X139106152Y-122075312D02*
X139106152Y-121884836D01*
X138677580Y-122503884D02*
X139677580Y-122503884D01*
X139677580Y-122503884D02*
X139677580Y-122884836D01*
X139677580Y-122884836D02*
X139629961Y-122980074D01*
X139629961Y-122980074D02*
X139582342Y-123027693D01*
X139582342Y-123027693D02*
X139487104Y-123075312D01*
X139487104Y-123075312D02*
X139344247Y-123075312D01*
X139344247Y-123075312D02*
X139249009Y-123027693D01*
X139249009Y-123027693D02*
X139201390Y-122980074D01*
X139201390Y-122980074D02*
X139153771Y-122884836D01*
X139153771Y-122884836D02*
X139153771Y-122503884D01*
X138677580Y-123503884D02*
X139677580Y-123503884D01*
X139677580Y-124170550D02*
X139677580Y-124265788D01*
X139677580Y-124265788D02*
X139629961Y-124361026D01*
X139629961Y-124361026D02*
X139582342Y-124408645D01*
X139582342Y-124408645D02*
X139487104Y-124456264D01*
X139487104Y-124456264D02*
X139296628Y-124503883D01*
X139296628Y-124503883D02*
X139058533Y-124503883D01*
X139058533Y-124503883D02*
X138868057Y-124456264D01*
X138868057Y-124456264D02*
X138772819Y-124408645D01*
X138772819Y-124408645D02*
X138725200Y-124361026D01*
X138725200Y-124361026D02*
X138677580Y-124265788D01*
X138677580Y-124265788D02*
X138677580Y-124170550D01*
X138677580Y-124170550D02*
X138725200Y-124075312D01*
X138725200Y-124075312D02*
X138772819Y-124027693D01*
X138772819Y-124027693D02*
X138868057Y-123980074D01*
X138868057Y-123980074D02*
X139058533Y-123932455D01*
X139058533Y-123932455D02*
X139296628Y-123932455D01*
X139296628Y-123932455D02*
X139487104Y-123980074D01*
X139487104Y-123980074D02*
X139582342Y-124027693D01*
X139582342Y-124027693D02*
X139629961Y-124075312D01*
X139629961Y-124075312D02*
X139677580Y-124170550D01*
X138677580Y-125456264D02*
X138677580Y-124884836D01*
X138677580Y-125170550D02*
X139677580Y-125170550D01*
X139677580Y-125170550D02*
X139534723Y-125075312D01*
X139534723Y-125075312D02*
X139439485Y-124980074D01*
X139439485Y-124980074D02*
X139391866Y-124884836D01*
X143725200Y-121456265D02*
X143677580Y-121599122D01*
X143677580Y-121599122D02*
X143677580Y-121837217D01*
X143677580Y-121837217D02*
X143725200Y-121932455D01*
X143725200Y-121932455D02*
X143772819Y-121980074D01*
X143772819Y-121980074D02*
X143868057Y-122027693D01*
X143868057Y-122027693D02*
X143963295Y-122027693D01*
X143963295Y-122027693D02*
X144058533Y-121980074D01*
X144058533Y-121980074D02*
X144106152Y-121932455D01*
X144106152Y-121932455D02*
X144153771Y-121837217D01*
X144153771Y-121837217D02*
X144201390Y-121646741D01*
X144201390Y-121646741D02*
X144249009Y-121551503D01*
X144249009Y-121551503D02*
X144296628Y-121503884D01*
X144296628Y-121503884D02*
X144391866Y-121456265D01*
X144391866Y-121456265D02*
X144487104Y-121456265D01*
X144487104Y-121456265D02*
X144582342Y-121503884D01*
X144582342Y-121503884D02*
X144629961Y-121551503D01*
X144629961Y-121551503D02*
X144677580Y-121646741D01*
X144677580Y-121646741D02*
X144677580Y-121884836D01*
X144677580Y-121884836D02*
X144629961Y-122027693D01*
X143772819Y-123027693D02*
X143725200Y-122980074D01*
X143725200Y-122980074D02*
X143677580Y-122837217D01*
X143677580Y-122837217D02*
X143677580Y-122741979D01*
X143677580Y-122741979D02*
X143725200Y-122599122D01*
X143725200Y-122599122D02*
X143820438Y-122503884D01*
X143820438Y-122503884D02*
X143915676Y-122456265D01*
X143915676Y-122456265D02*
X144106152Y-122408646D01*
X144106152Y-122408646D02*
X144249009Y-122408646D01*
X144249009Y-122408646D02*
X144439485Y-122456265D01*
X144439485Y-122456265D02*
X144534723Y-122503884D01*
X144534723Y-122503884D02*
X144629961Y-122599122D01*
X144629961Y-122599122D02*
X144677580Y-122741979D01*
X144677580Y-122741979D02*
X144677580Y-122837217D01*
X144677580Y-122837217D02*
X144629961Y-122980074D01*
X144629961Y-122980074D02*
X144582342Y-123027693D01*
X143677580Y-123932455D02*
X143677580Y-123456265D01*
X143677580Y-123456265D02*
X144677580Y-123456265D01*
D11*
X146733333Y-115604819D02*
X146400000Y-115128628D01*
X146161905Y-115604819D02*
X146161905Y-114604819D01*
X146161905Y-114604819D02*
X146542857Y-114604819D01*
X146542857Y-114604819D02*
X146638095Y-114652438D01*
X146638095Y-114652438D02*
X146685714Y-114700057D01*
X146685714Y-114700057D02*
X146733333Y-114795295D01*
X146733333Y-114795295D02*
X146733333Y-114938152D01*
X146733333Y-114938152D02*
X146685714Y-115033390D01*
X146685714Y-115033390D02*
X146638095Y-115081009D01*
X146638095Y-115081009D02*
X146542857Y-115128628D01*
X146542857Y-115128628D02*
X146161905Y-115128628D01*
X147114286Y-114700057D02*
X147161905Y-114652438D01*
X147161905Y-114652438D02*
X147257143Y-114604819D01*
X147257143Y-114604819D02*
X147495238Y-114604819D01*
X147495238Y-114604819D02*
X147590476Y-114652438D01*
X147590476Y-114652438D02*
X147638095Y-114700057D01*
X147638095Y-114700057D02*
X147685714Y-114795295D01*
X147685714Y-114795295D02*
X147685714Y-114890533D01*
X147685714Y-114890533D02*
X147638095Y-115033390D01*
X147638095Y-115033390D02*
X147066667Y-115604819D01*
X147066667Y-115604819D02*
X147685714Y-115604819D01*
X109539819Y-62641904D02*
X110349342Y-62641904D01*
X110349342Y-62641904D02*
X110444580Y-62594285D01*
X110444580Y-62594285D02*
X110492200Y-62546666D01*
X110492200Y-62546666D02*
X110539819Y-62451428D01*
X110539819Y-62451428D02*
X110539819Y-62260952D01*
X110539819Y-62260952D02*
X110492200Y-62165714D01*
X110492200Y-62165714D02*
X110444580Y-62118095D01*
X110444580Y-62118095D02*
X110349342Y-62070476D01*
X110349342Y-62070476D02*
X109539819Y-62070476D01*
X109968390Y-61451428D02*
X109920771Y-61546666D01*
X109920771Y-61546666D02*
X109873152Y-61594285D01*
X109873152Y-61594285D02*
X109777914Y-61641904D01*
X109777914Y-61641904D02*
X109730295Y-61641904D01*
X109730295Y-61641904D02*
X109635057Y-61594285D01*
X109635057Y-61594285D02*
X109587438Y-61546666D01*
X109587438Y-61546666D02*
X109539819Y-61451428D01*
X109539819Y-61451428D02*
X109539819Y-61260952D01*
X109539819Y-61260952D02*
X109587438Y-61165714D01*
X109587438Y-61165714D02*
X109635057Y-61118095D01*
X109635057Y-61118095D02*
X109730295Y-61070476D01*
X109730295Y-61070476D02*
X109777914Y-61070476D01*
X109777914Y-61070476D02*
X109873152Y-61118095D01*
X109873152Y-61118095D02*
X109920771Y-61165714D01*
X109920771Y-61165714D02*
X109968390Y-61260952D01*
X109968390Y-61260952D02*
X109968390Y-61451428D01*
X109968390Y-61451428D02*
X110016009Y-61546666D01*
X110016009Y-61546666D02*
X110063628Y-61594285D01*
X110063628Y-61594285D02*
X110158866Y-61641904D01*
X110158866Y-61641904D02*
X110349342Y-61641904D01*
X110349342Y-61641904D02*
X110444580Y-61594285D01*
X110444580Y-61594285D02*
X110492200Y-61546666D01*
X110492200Y-61546666D02*
X110539819Y-61451428D01*
X110539819Y-61451428D02*
X110539819Y-61260952D01*
X110539819Y-61260952D02*
X110492200Y-61165714D01*
X110492200Y-61165714D02*
X110444580Y-61118095D01*
X110444580Y-61118095D02*
X110349342Y-61070476D01*
X110349342Y-61070476D02*
X110158866Y-61070476D01*
X110158866Y-61070476D02*
X110063628Y-61118095D01*
X110063628Y-61118095D02*
X110016009Y-61165714D01*
X110016009Y-61165714D02*
X109968390Y-61260952D01*
X156643095Y-112544819D02*
X156643095Y-113354342D01*
X156643095Y-113354342D02*
X156690714Y-113449580D01*
X156690714Y-113449580D02*
X156738333Y-113497200D01*
X156738333Y-113497200D02*
X156833571Y-113544819D01*
X156833571Y-113544819D02*
X157024047Y-113544819D01*
X157024047Y-113544819D02*
X157119285Y-113497200D01*
X157119285Y-113497200D02*
X157166904Y-113449580D01*
X157166904Y-113449580D02*
X157214523Y-113354342D01*
X157214523Y-113354342D02*
X157214523Y-112544819D01*
X158166904Y-112544819D02*
X157690714Y-112544819D01*
X157690714Y-112544819D02*
X157643095Y-113021009D01*
X157643095Y-113021009D02*
X157690714Y-112973390D01*
X157690714Y-112973390D02*
X157785952Y-112925771D01*
X157785952Y-112925771D02*
X158024047Y-112925771D01*
X158024047Y-112925771D02*
X158119285Y-112973390D01*
X158119285Y-112973390D02*
X158166904Y-113021009D01*
X158166904Y-113021009D02*
X158214523Y-113116247D01*
X158214523Y-113116247D02*
X158214523Y-113354342D01*
X158214523Y-113354342D02*
X158166904Y-113449580D01*
X158166904Y-113449580D02*
X158119285Y-113497200D01*
X158119285Y-113497200D02*
X158024047Y-113544819D01*
X158024047Y-113544819D02*
X157785952Y-113544819D01*
X157785952Y-113544819D02*
X157690714Y-113497200D01*
X157690714Y-113497200D02*
X157643095Y-113449580D01*
X156850595Y-119854819D02*
X156850595Y-120664342D01*
X156850595Y-120664342D02*
X156898214Y-120759580D01*
X156898214Y-120759580D02*
X156945833Y-120807200D01*
X156945833Y-120807200D02*
X157041071Y-120854819D01*
X157041071Y-120854819D02*
X157231547Y-120854819D01*
X157231547Y-120854819D02*
X157326785Y-120807200D01*
X157326785Y-120807200D02*
X157374404Y-120759580D01*
X157374404Y-120759580D02*
X157422023Y-120664342D01*
X157422023Y-120664342D02*
X157422023Y-119854819D01*
X158326785Y-120188152D02*
X158326785Y-120854819D01*
X158088690Y-119807200D02*
X157850595Y-120521485D01*
X157850595Y-120521485D02*
X158469642Y-120521485D01*
X161334819Y-62731904D02*
X162144342Y-62731904D01*
X162144342Y-62731904D02*
X162239580Y-62684285D01*
X162239580Y-62684285D02*
X162287200Y-62636666D01*
X162287200Y-62636666D02*
X162334819Y-62541428D01*
X162334819Y-62541428D02*
X162334819Y-62350952D01*
X162334819Y-62350952D02*
X162287200Y-62255714D01*
X162287200Y-62255714D02*
X162239580Y-62208095D01*
X162239580Y-62208095D02*
X162144342Y-62160476D01*
X162144342Y-62160476D02*
X161334819Y-62160476D01*
X161334819Y-61255714D02*
X161334819Y-61446190D01*
X161334819Y-61446190D02*
X161382438Y-61541428D01*
X161382438Y-61541428D02*
X161430057Y-61589047D01*
X161430057Y-61589047D02*
X161572914Y-61684285D01*
X161572914Y-61684285D02*
X161763390Y-61731904D01*
X161763390Y-61731904D02*
X162144342Y-61731904D01*
X162144342Y-61731904D02*
X162239580Y-61684285D01*
X162239580Y-61684285D02*
X162287200Y-61636666D01*
X162287200Y-61636666D02*
X162334819Y-61541428D01*
X162334819Y-61541428D02*
X162334819Y-61350952D01*
X162334819Y-61350952D02*
X162287200Y-61255714D01*
X162287200Y-61255714D02*
X162239580Y-61208095D01*
X162239580Y-61208095D02*
X162144342Y-61160476D01*
X162144342Y-61160476D02*
X161906247Y-61160476D01*
X161906247Y-61160476D02*
X161811009Y-61208095D01*
X161811009Y-61208095D02*
X161763390Y-61255714D01*
X161763390Y-61255714D02*
X161715771Y-61350952D01*
X161715771Y-61350952D02*
X161715771Y-61541428D01*
X161715771Y-61541428D02*
X161763390Y-61636666D01*
X161763390Y-61636666D02*
X161811009Y-61684285D01*
X161811009Y-61684285D02*
X161906247Y-61731904D01*
X132183333Y-118154819D02*
X131850000Y-117678628D01*
X131611905Y-118154819D02*
X131611905Y-117154819D01*
X131611905Y-117154819D02*
X131992857Y-117154819D01*
X131992857Y-117154819D02*
X132088095Y-117202438D01*
X132088095Y-117202438D02*
X132135714Y-117250057D01*
X132135714Y-117250057D02*
X132183333Y-117345295D01*
X132183333Y-117345295D02*
X132183333Y-117488152D01*
X132183333Y-117488152D02*
X132135714Y-117583390D01*
X132135714Y-117583390D02*
X132088095Y-117631009D01*
X132088095Y-117631009D02*
X131992857Y-117678628D01*
X131992857Y-117678628D02*
X131611905Y-117678628D01*
X133135714Y-118154819D02*
X132564286Y-118154819D01*
X132850000Y-118154819D02*
X132850000Y-117154819D01*
X132850000Y-117154819D02*
X132754762Y-117297676D01*
X132754762Y-117297676D02*
X132659524Y-117392914D01*
X132659524Y-117392914D02*
X132564286Y-117440533D01*
X137833333Y-114304819D02*
X137500000Y-113828628D01*
X137261905Y-114304819D02*
X137261905Y-113304819D01*
X137261905Y-113304819D02*
X137642857Y-113304819D01*
X137642857Y-113304819D02*
X137738095Y-113352438D01*
X137738095Y-113352438D02*
X137785714Y-113400057D01*
X137785714Y-113400057D02*
X137833333Y-113495295D01*
X137833333Y-113495295D02*
X137833333Y-113638152D01*
X137833333Y-113638152D02*
X137785714Y-113733390D01*
X137785714Y-113733390D02*
X137738095Y-113781009D01*
X137738095Y-113781009D02*
X137642857Y-113828628D01*
X137642857Y-113828628D02*
X137261905Y-113828628D01*
X138166667Y-113304819D02*
X138785714Y-113304819D01*
X138785714Y-113304819D02*
X138452381Y-113685771D01*
X138452381Y-113685771D02*
X138595238Y-113685771D01*
X138595238Y-113685771D02*
X138690476Y-113733390D01*
X138690476Y-113733390D02*
X138738095Y-113781009D01*
X138738095Y-113781009D02*
X138785714Y-113876247D01*
X138785714Y-113876247D02*
X138785714Y-114114342D01*
X138785714Y-114114342D02*
X138738095Y-114209580D01*
X138738095Y-114209580D02*
X138690476Y-114257200D01*
X138690476Y-114257200D02*
X138595238Y-114304819D01*
X138595238Y-114304819D02*
X138309524Y-114304819D01*
X138309524Y-114304819D02*
X138214286Y-114257200D01*
X138214286Y-114257200D02*
X138166667Y-114209580D01*
X103483095Y-92284819D02*
X103483095Y-93094342D01*
X103483095Y-93094342D02*
X103530714Y-93189580D01*
X103530714Y-93189580D02*
X103578333Y-93237200D01*
X103578333Y-93237200D02*
X103673571Y-93284819D01*
X103673571Y-93284819D02*
X103864047Y-93284819D01*
X103864047Y-93284819D02*
X103959285Y-93237200D01*
X103959285Y-93237200D02*
X104006904Y-93189580D01*
X104006904Y-93189580D02*
X104054523Y-93094342D01*
X104054523Y-93094342D02*
X104054523Y-92284819D01*
X104435476Y-92284819D02*
X105102142Y-92284819D01*
X105102142Y-92284819D02*
X104673571Y-93284819D01*
X152172619Y-99279819D02*
X152172619Y-98279819D01*
X152172619Y-98279819D02*
X152410714Y-98279819D01*
X152410714Y-98279819D02*
X152553571Y-98327438D01*
X152553571Y-98327438D02*
X152648809Y-98422676D01*
X152648809Y-98422676D02*
X152696428Y-98517914D01*
X152696428Y-98517914D02*
X152744047Y-98708390D01*
X152744047Y-98708390D02*
X152744047Y-98851247D01*
X152744047Y-98851247D02*
X152696428Y-99041723D01*
X152696428Y-99041723D02*
X152648809Y-99136961D01*
X152648809Y-99136961D02*
X152553571Y-99232200D01*
X152553571Y-99232200D02*
X152410714Y-99279819D01*
X152410714Y-99279819D02*
X152172619Y-99279819D01*
X153172619Y-99279819D02*
X153172619Y-98279819D01*
X153601190Y-99232200D02*
X153744047Y-99279819D01*
X153744047Y-99279819D02*
X153982142Y-99279819D01*
X153982142Y-99279819D02*
X154077380Y-99232200D01*
X154077380Y-99232200D02*
X154124999Y-99184580D01*
X154124999Y-99184580D02*
X154172618Y-99089342D01*
X154172618Y-99089342D02*
X154172618Y-98994104D01*
X154172618Y-98994104D02*
X154124999Y-98898866D01*
X154124999Y-98898866D02*
X154077380Y-98851247D01*
X154077380Y-98851247D02*
X153982142Y-98803628D01*
X153982142Y-98803628D02*
X153791666Y-98756009D01*
X153791666Y-98756009D02*
X153696428Y-98708390D01*
X153696428Y-98708390D02*
X153648809Y-98660771D01*
X153648809Y-98660771D02*
X153601190Y-98565533D01*
X153601190Y-98565533D02*
X153601190Y-98470295D01*
X153601190Y-98470295D02*
X153648809Y-98375057D01*
X153648809Y-98375057D02*
X153696428Y-98327438D01*
X153696428Y-98327438D02*
X153791666Y-98279819D01*
X153791666Y-98279819D02*
X154029761Y-98279819D01*
X154029761Y-98279819D02*
X154172618Y-98327438D01*
X154601190Y-99279819D02*
X154601190Y-98279819D01*
X154601190Y-98279819D02*
X154982142Y-98279819D01*
X154982142Y-98279819D02*
X155077380Y-98327438D01*
X155077380Y-98327438D02*
X155124999Y-98375057D01*
X155124999Y-98375057D02*
X155172618Y-98470295D01*
X155172618Y-98470295D02*
X155172618Y-98613152D01*
X155172618Y-98613152D02*
X155124999Y-98708390D01*
X155124999Y-98708390D02*
X155077380Y-98756009D01*
X155077380Y-98756009D02*
X154982142Y-98803628D01*
X154982142Y-98803628D02*
X154601190Y-98803628D01*
X156124999Y-99279819D02*
X155553571Y-99279819D01*
X155839285Y-99279819D02*
X155839285Y-98279819D01*
X155839285Y-98279819D02*
X155744047Y-98422676D01*
X155744047Y-98422676D02*
X155648809Y-98517914D01*
X155648809Y-98517914D02*
X155553571Y-98565533D01*
X137374056Y-105879419D02*
X136802628Y-105879419D01*
X137088342Y-105879419D02*
X137088342Y-104879419D01*
X137088342Y-104879419D02*
X136993104Y-105022276D01*
X136993104Y-105022276D02*
X136897866Y-105117514D01*
X136897866Y-105117514D02*
X136802628Y-105165133D01*
X137755009Y-104974657D02*
X137802628Y-104927038D01*
X137802628Y-104927038D02*
X137897866Y-104879419D01*
X137897866Y-104879419D02*
X138135961Y-104879419D01*
X138135961Y-104879419D02*
X138231199Y-104927038D01*
X138231199Y-104927038D02*
X138278818Y-104974657D01*
X138278818Y-104974657D02*
X138326437Y-105069895D01*
X138326437Y-105069895D02*
X138326437Y-105165133D01*
X138326437Y-105165133D02*
X138278818Y-105307990D01*
X138278818Y-105307990D02*
X137707390Y-105879419D01*
X137707390Y-105879419D02*
X138326437Y-105879419D01*
X138897866Y-105307990D02*
X138802628Y-105260371D01*
X138802628Y-105260371D02*
X138755009Y-105212752D01*
X138755009Y-105212752D02*
X138707390Y-105117514D01*
X138707390Y-105117514D02*
X138707390Y-105069895D01*
X138707390Y-105069895D02*
X138755009Y-104974657D01*
X138755009Y-104974657D02*
X138802628Y-104927038D01*
X138802628Y-104927038D02*
X138897866Y-104879419D01*
X138897866Y-104879419D02*
X139088342Y-104879419D01*
X139088342Y-104879419D02*
X139183580Y-104927038D01*
X139183580Y-104927038D02*
X139231199Y-104974657D01*
X139231199Y-104974657D02*
X139278818Y-105069895D01*
X139278818Y-105069895D02*
X139278818Y-105117514D01*
X139278818Y-105117514D02*
X139231199Y-105212752D01*
X139231199Y-105212752D02*
X139183580Y-105260371D01*
X139183580Y-105260371D02*
X139088342Y-105307990D01*
X139088342Y-105307990D02*
X138897866Y-105307990D01*
X138897866Y-105307990D02*
X138802628Y-105355609D01*
X138802628Y-105355609D02*
X138755009Y-105403228D01*
X138755009Y-105403228D02*
X138707390Y-105498466D01*
X138707390Y-105498466D02*
X138707390Y-105688942D01*
X138707390Y-105688942D02*
X138755009Y-105784180D01*
X138755009Y-105784180D02*
X138802628Y-105831800D01*
X138802628Y-105831800D02*
X138897866Y-105879419D01*
X138897866Y-105879419D02*
X139088342Y-105879419D01*
X139088342Y-105879419D02*
X139183580Y-105831800D01*
X139183580Y-105831800D02*
X139231199Y-105784180D01*
X139231199Y-105784180D02*
X139278818Y-105688942D01*
X139278818Y-105688942D02*
X139278818Y-105498466D01*
X139278818Y-105498466D02*
X139231199Y-105403228D01*
X139231199Y-105403228D02*
X139183580Y-105355609D01*
X139183580Y-105355609D02*
X139088342Y-105307990D01*
X139612152Y-105879419D02*
X140135961Y-105212752D01*
X139612152Y-105212752D02*
X140135961Y-105879419D01*
X140421676Y-104879419D02*
X141040723Y-104879419D01*
X141040723Y-104879419D02*
X140707390Y-105260371D01*
X140707390Y-105260371D02*
X140850247Y-105260371D01*
X140850247Y-105260371D02*
X140945485Y-105307990D01*
X140945485Y-105307990D02*
X140993104Y-105355609D01*
X140993104Y-105355609D02*
X141040723Y-105450847D01*
X141040723Y-105450847D02*
X141040723Y-105688942D01*
X141040723Y-105688942D02*
X140993104Y-105784180D01*
X140993104Y-105784180D02*
X140945485Y-105831800D01*
X140945485Y-105831800D02*
X140850247Y-105879419D01*
X140850247Y-105879419D02*
X140564533Y-105879419D01*
X140564533Y-105879419D02*
X140469295Y-105831800D01*
X140469295Y-105831800D02*
X140421676Y-105784180D01*
X141421676Y-104974657D02*
X141469295Y-104927038D01*
X141469295Y-104927038D02*
X141564533Y-104879419D01*
X141564533Y-104879419D02*
X141802628Y-104879419D01*
X141802628Y-104879419D02*
X141897866Y-104927038D01*
X141897866Y-104927038D02*
X141945485Y-104974657D01*
X141945485Y-104974657D02*
X141993104Y-105069895D01*
X141993104Y-105069895D02*
X141993104Y-105165133D01*
X141993104Y-105165133D02*
X141945485Y-105307990D01*
X141945485Y-105307990D02*
X141374057Y-105879419D01*
X141374057Y-105879419D02*
X141993104Y-105879419D01*
X143374057Y-104879419D02*
X143564533Y-104879419D01*
X143564533Y-104879419D02*
X143659771Y-104927038D01*
X143659771Y-104927038D02*
X143755009Y-105022276D01*
X143755009Y-105022276D02*
X143802628Y-105212752D01*
X143802628Y-105212752D02*
X143802628Y-105546085D01*
X143802628Y-105546085D02*
X143755009Y-105736561D01*
X143755009Y-105736561D02*
X143659771Y-105831800D01*
X143659771Y-105831800D02*
X143564533Y-105879419D01*
X143564533Y-105879419D02*
X143374057Y-105879419D01*
X143374057Y-105879419D02*
X143278819Y-105831800D01*
X143278819Y-105831800D02*
X143183581Y-105736561D01*
X143183581Y-105736561D02*
X143135962Y-105546085D01*
X143135962Y-105546085D02*
X143135962Y-105212752D01*
X143135962Y-105212752D02*
X143183581Y-105022276D01*
X143183581Y-105022276D02*
X143278819Y-104927038D01*
X143278819Y-104927038D02*
X143374057Y-104879419D01*
X144707390Y-105879419D02*
X144231200Y-105879419D01*
X144231200Y-105879419D02*
X144231200Y-104879419D01*
X145040724Y-105355609D02*
X145374057Y-105355609D01*
X145516914Y-105879419D02*
X145040724Y-105879419D01*
X145040724Y-105879419D02*
X145040724Y-104879419D01*
X145040724Y-104879419D02*
X145516914Y-104879419D01*
X145945486Y-105879419D02*
X145945486Y-104879419D01*
X145945486Y-104879419D02*
X146183581Y-104879419D01*
X146183581Y-104879419D02*
X146326438Y-104927038D01*
X146326438Y-104927038D02*
X146421676Y-105022276D01*
X146421676Y-105022276D02*
X146469295Y-105117514D01*
X146469295Y-105117514D02*
X146516914Y-105307990D01*
X146516914Y-105307990D02*
X146516914Y-105450847D01*
X146516914Y-105450847D02*
X146469295Y-105641323D01*
X146469295Y-105641323D02*
X146421676Y-105736561D01*
X146421676Y-105736561D02*
X146326438Y-105831800D01*
X146326438Y-105831800D02*
X146183581Y-105879419D01*
X146183581Y-105879419D02*
X145945486Y-105879419D01*
X147707391Y-105879419D02*
X147707391Y-104879419D01*
X147707391Y-104879419D02*
X147945486Y-104879419D01*
X147945486Y-104879419D02*
X148088343Y-104927038D01*
X148088343Y-104927038D02*
X148183581Y-105022276D01*
X148183581Y-105022276D02*
X148231200Y-105117514D01*
X148231200Y-105117514D02*
X148278819Y-105307990D01*
X148278819Y-105307990D02*
X148278819Y-105450847D01*
X148278819Y-105450847D02*
X148231200Y-105641323D01*
X148231200Y-105641323D02*
X148183581Y-105736561D01*
X148183581Y-105736561D02*
X148088343Y-105831800D01*
X148088343Y-105831800D02*
X147945486Y-105879419D01*
X147945486Y-105879419D02*
X147707391Y-105879419D01*
X148707391Y-105879419D02*
X148707391Y-105212752D01*
X148707391Y-104879419D02*
X148659772Y-104927038D01*
X148659772Y-104927038D02*
X148707391Y-104974657D01*
X148707391Y-104974657D02*
X148755010Y-104927038D01*
X148755010Y-104927038D02*
X148707391Y-104879419D01*
X148707391Y-104879419D02*
X148707391Y-104974657D01*
X149135962Y-105831800D02*
X149231200Y-105879419D01*
X149231200Y-105879419D02*
X149421676Y-105879419D01*
X149421676Y-105879419D02*
X149516914Y-105831800D01*
X149516914Y-105831800D02*
X149564533Y-105736561D01*
X149564533Y-105736561D02*
X149564533Y-105688942D01*
X149564533Y-105688942D02*
X149516914Y-105593704D01*
X149516914Y-105593704D02*
X149421676Y-105546085D01*
X149421676Y-105546085D02*
X149278819Y-105546085D01*
X149278819Y-105546085D02*
X149183581Y-105498466D01*
X149183581Y-105498466D02*
X149135962Y-105403228D01*
X149135962Y-105403228D02*
X149135962Y-105355609D01*
X149135962Y-105355609D02*
X149183581Y-105260371D01*
X149183581Y-105260371D02*
X149278819Y-105212752D01*
X149278819Y-105212752D02*
X149421676Y-105212752D01*
X149421676Y-105212752D02*
X149516914Y-105260371D01*
X149993105Y-105212752D02*
X149993105Y-106212752D01*
X149993105Y-105260371D02*
X150088343Y-105212752D01*
X150088343Y-105212752D02*
X150278819Y-105212752D01*
X150278819Y-105212752D02*
X150374057Y-105260371D01*
X150374057Y-105260371D02*
X150421676Y-105307990D01*
X150421676Y-105307990D02*
X150469295Y-105403228D01*
X150469295Y-105403228D02*
X150469295Y-105688942D01*
X150469295Y-105688942D02*
X150421676Y-105784180D01*
X150421676Y-105784180D02*
X150374057Y-105831800D01*
X150374057Y-105831800D02*
X150278819Y-105879419D01*
X150278819Y-105879419D02*
X150088343Y-105879419D01*
X150088343Y-105879419D02*
X149993105Y-105831800D01*
X151040724Y-105879419D02*
X150945486Y-105831800D01*
X150945486Y-105831800D02*
X150897867Y-105736561D01*
X150897867Y-105736561D02*
X150897867Y-104879419D01*
X151850248Y-105879419D02*
X151850248Y-105355609D01*
X151850248Y-105355609D02*
X151802629Y-105260371D01*
X151802629Y-105260371D02*
X151707391Y-105212752D01*
X151707391Y-105212752D02*
X151516915Y-105212752D01*
X151516915Y-105212752D02*
X151421677Y-105260371D01*
X151850248Y-105831800D02*
X151755010Y-105879419D01*
X151755010Y-105879419D02*
X151516915Y-105879419D01*
X151516915Y-105879419D02*
X151421677Y-105831800D01*
X151421677Y-105831800D02*
X151374058Y-105736561D01*
X151374058Y-105736561D02*
X151374058Y-105641323D01*
X151374058Y-105641323D02*
X151421677Y-105546085D01*
X151421677Y-105546085D02*
X151516915Y-105498466D01*
X151516915Y-105498466D02*
X151755010Y-105498466D01*
X151755010Y-105498466D02*
X151850248Y-105450847D01*
X152231201Y-105212752D02*
X152469296Y-105879419D01*
X152707391Y-105212752D02*
X152469296Y-105879419D01*
X152469296Y-105879419D02*
X152374058Y-106117514D01*
X152374058Y-106117514D02*
X152326439Y-106165133D01*
X152326439Y-106165133D02*
X152231201Y-106212752D01*
X132818095Y-68834819D02*
X132818095Y-69644342D01*
X132818095Y-69644342D02*
X132865714Y-69739580D01*
X132865714Y-69739580D02*
X132913333Y-69787200D01*
X132913333Y-69787200D02*
X133008571Y-69834819D01*
X133008571Y-69834819D02*
X133199047Y-69834819D01*
X133199047Y-69834819D02*
X133294285Y-69787200D01*
X133294285Y-69787200D02*
X133341904Y-69739580D01*
X133341904Y-69739580D02*
X133389523Y-69644342D01*
X133389523Y-69644342D02*
X133389523Y-68834819D01*
X134389523Y-69834819D02*
X133818095Y-69834819D01*
X134103809Y-69834819D02*
X134103809Y-68834819D01*
X134103809Y-68834819D02*
X134008571Y-68977676D01*
X134008571Y-68977676D02*
X133913333Y-69072914D01*
X133913333Y-69072914D02*
X133818095Y-69120533D01*
X139911905Y-98754819D02*
X139911905Y-97754819D01*
X139911905Y-97754819D02*
X140150000Y-97754819D01*
X140150000Y-97754819D02*
X140292857Y-97802438D01*
X140292857Y-97802438D02*
X140388095Y-97897676D01*
X140388095Y-97897676D02*
X140435714Y-97992914D01*
X140435714Y-97992914D02*
X140483333Y-98183390D01*
X140483333Y-98183390D02*
X140483333Y-98326247D01*
X140483333Y-98326247D02*
X140435714Y-98516723D01*
X140435714Y-98516723D02*
X140388095Y-98611961D01*
X140388095Y-98611961D02*
X140292857Y-98707200D01*
X140292857Y-98707200D02*
X140150000Y-98754819D01*
X140150000Y-98754819D02*
X139911905Y-98754819D01*
X141435714Y-98754819D02*
X140864286Y-98754819D01*
X141150000Y-98754819D02*
X141150000Y-97754819D01*
X141150000Y-97754819D02*
X141054762Y-97897676D01*
X141054762Y-97897676D02*
X140959524Y-97992914D01*
X140959524Y-97992914D02*
X140864286Y-98040533D01*
X132754761Y-113350057D02*
X132659523Y-113302438D01*
X132659523Y-113302438D02*
X132564285Y-113207200D01*
X132564285Y-113207200D02*
X132421428Y-113064342D01*
X132421428Y-113064342D02*
X132326190Y-113016723D01*
X132326190Y-113016723D02*
X132230952Y-113016723D01*
X132278571Y-113254819D02*
X132183333Y-113207200D01*
X132183333Y-113207200D02*
X132088095Y-113111961D01*
X132088095Y-113111961D02*
X132040476Y-112921485D01*
X132040476Y-112921485D02*
X132040476Y-112588152D01*
X132040476Y-112588152D02*
X132088095Y-112397676D01*
X132088095Y-112397676D02*
X132183333Y-112302438D01*
X132183333Y-112302438D02*
X132278571Y-112254819D01*
X132278571Y-112254819D02*
X132469047Y-112254819D01*
X132469047Y-112254819D02*
X132564285Y-112302438D01*
X132564285Y-112302438D02*
X132659523Y-112397676D01*
X132659523Y-112397676D02*
X132707142Y-112588152D01*
X132707142Y-112588152D02*
X132707142Y-112921485D01*
X132707142Y-112921485D02*
X132659523Y-113111961D01*
X132659523Y-113111961D02*
X132564285Y-113207200D01*
X132564285Y-113207200D02*
X132469047Y-113254819D01*
X132469047Y-113254819D02*
X132278571Y-113254819D01*
X133088095Y-112350057D02*
X133135714Y-112302438D01*
X133135714Y-112302438D02*
X133230952Y-112254819D01*
X133230952Y-112254819D02*
X133469047Y-112254819D01*
X133469047Y-112254819D02*
X133564285Y-112302438D01*
X133564285Y-112302438D02*
X133611904Y-112350057D01*
X133611904Y-112350057D02*
X133659523Y-112445295D01*
X133659523Y-112445295D02*
X133659523Y-112540533D01*
X133659523Y-112540533D02*
X133611904Y-112683390D01*
X133611904Y-112683390D02*
X133040476Y-113254819D01*
X133040476Y-113254819D02*
X133659523Y-113254819D01*
D10*
%TO.C,U3*%
X152350000Y-121200000D02*
X150050000Y-121200000D01*
X152300000Y-126200000D02*
X150050000Y-126200000D01*
D12*
X150050000Y-129200000D02*
X135550000Y-129200000D01*
X150050000Y-126200000D02*
X150050000Y-129200000D01*
D10*
X150050000Y-118200000D02*
X150050000Y-121200000D01*
D12*
X135550000Y-126200000D02*
X135550000Y-129200000D01*
X135550000Y-118200000D02*
X150050000Y-118200000D01*
D10*
X135550000Y-118200000D02*
X135550000Y-121200000D01*
X133300000Y-126200000D02*
X135550000Y-126200000D01*
X133300000Y-121200000D02*
X135550000Y-121200000D01*
X152300000Y-121200000D02*
G75*
G02*
X152300000Y-126200000I0J-2500000D01*
G01*
X133300000Y-126200000D02*
G75*
G02*
X133300000Y-121200000I0J2500000D01*
G01*
X153550000Y-123700000D02*
G75*
G02*
X151050000Y-123700000I-1250000J0D01*
G01*
X151050000Y-123700000D02*
G75*
G02*
X153550000Y-123700000I1250000J0D01*
G01*
X134550000Y-123700000D02*
G75*
G02*
X132050000Y-123700000I-1250000J0D01*
G01*
X132050000Y-123700000D02*
G75*
G02*
X134550000Y-123700000I1250000J0D01*
G01*
D12*
%TO.C,R2*%
X143260436Y-114415000D02*
X143714564Y-114415000D01*
X143260436Y-115885000D02*
X143714564Y-115885000D01*
%TO.C,U8*%
X95825000Y-56170000D02*
X95825000Y-64800000D01*
X96795000Y-64800000D02*
X96795000Y-65210000D01*
X97515000Y-64800000D02*
X97515000Y-65210000D01*
X98425000Y-56170000D02*
X98425000Y-64800000D01*
X99335000Y-64800000D02*
X99335000Y-65210000D01*
X100055000Y-64800000D02*
X100055000Y-65210000D01*
X100965000Y-56170000D02*
X100965000Y-64800000D01*
X101875000Y-64800000D02*
X101875000Y-65210000D01*
X102595000Y-64800000D02*
X102595000Y-65210000D01*
X103505000Y-56170000D02*
X103505000Y-64800000D01*
X104415000Y-64800000D02*
X104415000Y-65210000D01*
X105135000Y-64800000D02*
X105135000Y-65210000D01*
X106045000Y-56170000D02*
X106045000Y-64800000D01*
X106163100Y-56170000D02*
X106163100Y-64800000D01*
X106281195Y-56170000D02*
X106281195Y-64800000D01*
X106399290Y-56170000D02*
X106399290Y-64800000D01*
X106517385Y-56170000D02*
X106517385Y-64800000D01*
X106635480Y-56170000D02*
X106635480Y-64800000D01*
X106753575Y-56170000D02*
X106753575Y-64800000D01*
X106871670Y-56170000D02*
X106871670Y-64800000D01*
X106955000Y-64800000D02*
X106955000Y-65150000D01*
X106989765Y-56170000D02*
X106989765Y-64800000D01*
X107107860Y-56170000D02*
X107107860Y-64800000D01*
X107225955Y-56170000D02*
X107225955Y-64800000D01*
X107344050Y-56170000D02*
X107344050Y-64800000D01*
X107462145Y-56170000D02*
X107462145Y-64800000D01*
X107580240Y-56170000D02*
X107580240Y-64800000D01*
X107675000Y-64800000D02*
X107675000Y-65150000D01*
X107698335Y-56170000D02*
X107698335Y-64800000D01*
X107816430Y-56170000D02*
X107816430Y-64800000D01*
X107934525Y-56170000D02*
X107934525Y-64800000D01*
X108052620Y-56170000D02*
X108052620Y-64800000D01*
X108170715Y-56170000D02*
X108170715Y-64800000D01*
X108288810Y-56170000D02*
X108288810Y-64800000D01*
X108406905Y-56170000D02*
X108406905Y-64800000D01*
X108525000Y-56170000D02*
X108525000Y-64800000D01*
X108645000Y-56170000D02*
X95825000Y-56170000D01*
X108645000Y-56170000D02*
X108645000Y-64800000D01*
X108645000Y-64800000D02*
X95825000Y-64800000D01*
X108645000Y-66260000D02*
X108645000Y-67370000D01*
X108645000Y-67370000D02*
X107315000Y-67370000D01*
%TO.C,U5*%
X155605000Y-118500000D02*
X159205000Y-118500000D01*
X155566522Y-118488478D02*
G75*
G02*
X157405000Y-114049999I1838478J1838478D01*
G01*
X157405000Y-114050000D02*
G75*
G02*
X159243478Y-118488478I0J-2600000D01*
G01*
%TO.C,U4*%
X157612500Y-121240000D02*
X156962500Y-121240000D01*
X157612500Y-121240000D02*
X158262500Y-121240000D01*
X157612500Y-124360000D02*
X156962500Y-124360000D01*
X157612500Y-124360000D02*
X158262500Y-124360000D01*
X156450000Y-121290000D02*
X156210000Y-120960000D01*
X156690000Y-120960000D01*
X156450000Y-121290000D01*
G36*
X156450000Y-121290000D02*
G01*
X156210000Y-120960000D01*
X156690000Y-120960000D01*
X156450000Y-121290000D01*
G37*
%TO.C,U6*%
X147620000Y-56260000D02*
X147620000Y-64890000D01*
X148590000Y-64890000D02*
X148590000Y-65300000D01*
X149310000Y-64890000D02*
X149310000Y-65300000D01*
X150220000Y-56260000D02*
X150220000Y-64890000D01*
X151130000Y-64890000D02*
X151130000Y-65300000D01*
X151850000Y-64890000D02*
X151850000Y-65300000D01*
X152760000Y-56260000D02*
X152760000Y-64890000D01*
X153670000Y-64890000D02*
X153670000Y-65300000D01*
X154390000Y-64890000D02*
X154390000Y-65300000D01*
X155300000Y-56260000D02*
X155300000Y-64890000D01*
X156210000Y-64890000D02*
X156210000Y-65300000D01*
X156930000Y-64890000D02*
X156930000Y-65300000D01*
X157840000Y-56260000D02*
X157840000Y-64890000D01*
X157958100Y-56260000D02*
X157958100Y-64890000D01*
X158076195Y-56260000D02*
X158076195Y-64890000D01*
X158194290Y-56260000D02*
X158194290Y-64890000D01*
X158312385Y-56260000D02*
X158312385Y-64890000D01*
X158430480Y-56260000D02*
X158430480Y-64890000D01*
X158548575Y-56260000D02*
X158548575Y-64890000D01*
X158666670Y-56260000D02*
X158666670Y-64890000D01*
X158750000Y-64890000D02*
X158750000Y-65240000D01*
X158784765Y-56260000D02*
X158784765Y-64890000D01*
X158902860Y-56260000D02*
X158902860Y-64890000D01*
X159020955Y-56260000D02*
X159020955Y-64890000D01*
X159139050Y-56260000D02*
X159139050Y-64890000D01*
X159257145Y-56260000D02*
X159257145Y-64890000D01*
X159375240Y-56260000D02*
X159375240Y-64890000D01*
X159470000Y-64890000D02*
X159470000Y-65240000D01*
X159493335Y-56260000D02*
X159493335Y-64890000D01*
X159611430Y-56260000D02*
X159611430Y-64890000D01*
X159729525Y-56260000D02*
X159729525Y-64890000D01*
X159847620Y-56260000D02*
X159847620Y-64890000D01*
X159965715Y-56260000D02*
X159965715Y-64890000D01*
X160083810Y-56260000D02*
X160083810Y-64890000D01*
X160201905Y-56260000D02*
X160201905Y-64890000D01*
X160320000Y-56260000D02*
X160320000Y-64890000D01*
X160440000Y-56260000D02*
X147620000Y-56260000D01*
X160440000Y-56260000D02*
X160440000Y-64890000D01*
X160440000Y-64890000D02*
X147620000Y-64890000D01*
X160440000Y-66350000D02*
X160440000Y-67460000D01*
X160440000Y-67460000D02*
X159110000Y-67460000D01*
%TO.C,R1*%
X132160436Y-118465000D02*
X132614564Y-118465000D01*
X132160436Y-119935000D02*
X132614564Y-119935000D01*
%TO.C,R3*%
X137435436Y-115865000D02*
X137889564Y-115865000D01*
X137435436Y-117335000D02*
X137889564Y-117335000D01*
%TO.C,U7*%
X89285000Y-98080000D02*
X89285000Y-72650000D01*
X89285000Y-98080000D02*
X91825000Y-98080000D01*
X91825000Y-98080000D02*
X91825000Y-104980000D01*
X91825000Y-104980000D02*
X115145000Y-104980000D01*
X113025000Y-70520000D02*
X91415000Y-70520000D01*
X115145000Y-104980000D02*
X115145000Y-72650000D01*
X89285000Y-72650000D02*
G75*
G02*
X91415000Y-70520000I2130002J-2D01*
G01*
X113015000Y-70520000D02*
G75*
G02*
X115145000Y-72650000I0J-2130000D01*
G01*
D11*
X88880000Y-78860000D02*
X88245000Y-79495000D01*
X88245000Y-78225000D01*
X88880000Y-78860000D01*
G36*
X88880000Y-78860000D02*
G01*
X88245000Y-79495000D01*
X88245000Y-78225000D01*
X88880000Y-78860000D01*
G37*
%TO.C,DISP1*%
D12*
X123700000Y-111800000D02*
X161900000Y-111800000D01*
X161900000Y-99600000D01*
X123700000Y-99600000D01*
X123700000Y-111800000D01*
%TO.C,U1*%
X125300000Y-72960000D02*
X125300000Y-94570000D01*
X152860000Y-94160000D02*
X159760000Y-94160000D01*
X152860000Y-96700000D02*
X127430000Y-96700000D01*
X152860000Y-96700000D02*
X152860000Y-94160000D01*
X159760000Y-70840000D02*
X127430000Y-70840000D01*
X159760000Y-94160000D02*
X159760000Y-70840000D01*
X125300000Y-72970000D02*
G75*
G02*
X127430000Y-70840000I2130000J0D01*
G01*
X127430000Y-96700000D02*
G75*
G02*
X125300000Y-94570000I2J2130002D01*
G01*
D11*
X134275000Y-97740000D02*
X133005000Y-97740000D01*
X133640000Y-97105000D01*
X134275000Y-97740000D01*
G36*
X134275000Y-97740000D02*
G01*
X133005000Y-97740000D01*
X133640000Y-97105000D01*
X134275000Y-97740000D01*
G37*
D12*
%TO.C,D1*%
X135287500Y-99335000D02*
X139172500Y-99335000D01*
X139172500Y-97065000D02*
X135287500Y-97065000D01*
X139172500Y-99335000D02*
X139172500Y-97065000D01*
%TO.C,Q2*%
X132812500Y-113890000D02*
X132012500Y-113890000D01*
X132812500Y-113890000D02*
X133612500Y-113890000D01*
X132812500Y-117010000D02*
X132012500Y-117010000D01*
X132812500Y-117010000D02*
X133612500Y-117010000D01*
X131512500Y-113940000D02*
X131272500Y-113610000D01*
X131752500Y-113610000D01*
X131512500Y-113940000D01*
G36*
X131512500Y-113940000D02*
G01*
X131272500Y-113610000D01*
X131752500Y-113610000D01*
X131512500Y-113940000D01*
G37*
%TD*%
M02*
