%TF.GenerationSoftware,KiCad,Pcbnew,8.0.7-unknown-202501031822~9d36205ced~ubuntu24.04.1*%
%TF.CreationDate,2025-01-11T19:30:59-05:00*%
%TF.ProjectId,delivery-box-reporter-lora,64656c69-7665-4727-992d-626f782d7265,rev?*%
%TF.SameCoordinates,Original*%
%TF.FileFunction,Soldermask,Bot*%
%TF.FilePolarity,Negative*%
%FSLAX46Y46*%
G04 Gerber Fmt 4.6, Leading zero omitted, Abs format (unit mm)*
G04 Created by KiCad (PCBNEW 8.0.7-unknown-202501031822~9d36205ced~ubuntu24.04.1) date 2025-01-11 19:30:59*
%MOMM*%
%LPD*%
G01*
G04 APERTURE LIST*
%ADD10R,2.000000X1.600000*%
%ADD11O,2.000000X1.600000*%
%ADD12R,1.700000X1.700000*%
%ADD13O,1.700000X1.700000*%
%ADD14R,1.050000X1.500000*%
%ADD15O,1.050000X1.500000*%
%ADD16R,2.000000X2.000000*%
%ADD17O,1.600000X2.000000*%
%ADD18O,1.500000X2.000000*%
%ADD19R,1.524000X1.524000*%
%ADD20C,1.524000*%
G04 APERTURE END LIST*
D10*
%TO.C,DISP1*%
X125200000Y-109600000D03*
D11*
X125200000Y-107060000D03*
X125200000Y-104520000D03*
X125200000Y-101980000D03*
%TD*%
D12*
%TO.C,U8*%
X112370000Y-65930000D03*
D13*
X109830000Y-65930000D03*
X107290000Y-65930000D03*
X104750000Y-65930000D03*
X102210000Y-65930000D03*
%TD*%
D14*
%TO.C,U5*%
X156135000Y-116650000D03*
D15*
X157405000Y-116650000D03*
X158675000Y-116650000D03*
%TD*%
D12*
%TO.C,U6*%
X159110000Y-66350000D03*
D13*
X156570000Y-66350000D03*
X154030000Y-66350000D03*
X151490000Y-66350000D03*
X148950000Y-66350000D03*
%TD*%
D16*
%TO.C,U7*%
X95840000Y-78530000D03*
D11*
X95840000Y-81070000D03*
X95840000Y-83610000D03*
X95840000Y-86150000D03*
X95840000Y-88690000D03*
X95840000Y-91230000D03*
X95840000Y-93770000D03*
X95840000Y-96310000D03*
X118700000Y-96310000D03*
X118700000Y-93770000D03*
X118700000Y-91230000D03*
X118700000Y-88690000D03*
X118700000Y-86150000D03*
X118700000Y-83610000D03*
X118700000Y-81070000D03*
X118700000Y-78530000D03*
%TD*%
D16*
%TO.C,U1*%
X133640000Y-95200000D03*
D17*
X136180000Y-95200000D03*
X138720000Y-95200000D03*
X141260000Y-95200000D03*
X143800000Y-95200000D03*
X146340000Y-95200000D03*
X148880000Y-95200000D03*
X151420000Y-95200000D03*
X151420000Y-72340000D03*
X148880000Y-72340000D03*
X146340000Y-72340000D03*
X143800000Y-72340000D03*
X141260000Y-72340000D03*
X138720000Y-72340000D03*
X136180000Y-72340000D03*
X133640000Y-72340000D03*
%TD*%
D12*
%TO.C,U3*%
X149150000Y-119450000D03*
D18*
X146610000Y-119450000D03*
X144070000Y-119450000D03*
X141530000Y-119450000D03*
X138990000Y-119450000D03*
X136450000Y-119450000D03*
%TD*%
D12*
%TO.C,U3*%
X149150000Y-127950000D03*
D18*
X146610000Y-127950000D03*
X144070000Y-127950000D03*
X141530000Y-127950000D03*
X138990000Y-127950000D03*
X136450000Y-127950000D03*
%TD*%
D19*
%TO.C,J1*%
X126850000Y-115050000D03*
D20*
X126850000Y-118550000D03*
%TD*%
M02*
