%TF.GenerationSoftware,KiCad,Pcbnew,8.0.7-unknown-202501031822~9d36205ced~ubuntu24.04.1*%
%TF.CreationDate,2025-01-11T19:30:59-05:00*%
%TF.ProjectId,delivery-box-reporter-lora,64656c69-7665-4727-992d-626f782d7265,rev?*%
%TF.SameCoordinates,Original*%
%TF.FileFunction,Legend,Bot*%
%TF.FilePolarity,Positive*%
%FSLAX46Y46*%
G04 Gerber Fmt 4.6, Leading zero omitted, Abs format (unit mm)*
G04 Created by KiCad (PCBNEW 8.0.7-unknown-202501031822~9d36205ced~ubuntu24.04.1) date 2025-01-11 19:30:59*
%MOMM*%
%LPD*%
G01*
G04 APERTURE LIST*
%ADD10C,0.300000*%
%ADD11C,0.100000*%
%ADD12C,0.150000*%
%ADD13C,0.120000*%
G04 APERTURE END LIST*
D10*
X123754510Y-112579400D02*
X124897368Y-112579400D01*
X124325939Y-113150828D02*
X124325939Y-112007971D01*
D11*
X105632643Y-79975312D02*
X105156452Y-79641979D01*
X105632643Y-79403884D02*
X104632643Y-79403884D01*
X104632643Y-79403884D02*
X104632643Y-79784836D01*
X104632643Y-79784836D02*
X104680262Y-79880074D01*
X104680262Y-79880074D02*
X104727881Y-79927693D01*
X104727881Y-79927693D02*
X104823119Y-79975312D01*
X104823119Y-79975312D02*
X104965976Y-79975312D01*
X104965976Y-79975312D02*
X105061214Y-79927693D01*
X105061214Y-79927693D02*
X105108833Y-79880074D01*
X105108833Y-79880074D02*
X105156452Y-79784836D01*
X105156452Y-79784836D02*
X105156452Y-79403884D01*
X105585024Y-80784836D02*
X105632643Y-80689598D01*
X105632643Y-80689598D02*
X105632643Y-80499122D01*
X105632643Y-80499122D02*
X105585024Y-80403884D01*
X105585024Y-80403884D02*
X105489785Y-80356265D01*
X105489785Y-80356265D02*
X105108833Y-80356265D01*
X105108833Y-80356265D02*
X105013595Y-80403884D01*
X105013595Y-80403884D02*
X104965976Y-80499122D01*
X104965976Y-80499122D02*
X104965976Y-80689598D01*
X104965976Y-80689598D02*
X105013595Y-80784836D01*
X105013595Y-80784836D02*
X105108833Y-80832455D01*
X105108833Y-80832455D02*
X105204071Y-80832455D01*
X105204071Y-80832455D02*
X105299309Y-80356265D01*
X105585024Y-81689598D02*
X105632643Y-81594360D01*
X105632643Y-81594360D02*
X105632643Y-81403884D01*
X105632643Y-81403884D02*
X105585024Y-81308646D01*
X105585024Y-81308646D02*
X105537404Y-81261027D01*
X105537404Y-81261027D02*
X105442166Y-81213408D01*
X105442166Y-81213408D02*
X105156452Y-81213408D01*
X105156452Y-81213408D02*
X105061214Y-81261027D01*
X105061214Y-81261027D02*
X105013595Y-81308646D01*
X105013595Y-81308646D02*
X104965976Y-81403884D01*
X104965976Y-81403884D02*
X104965976Y-81594360D01*
X104965976Y-81594360D02*
X105013595Y-81689598D01*
X105585024Y-82499122D02*
X105632643Y-82403884D01*
X105632643Y-82403884D02*
X105632643Y-82213408D01*
X105632643Y-82213408D02*
X105585024Y-82118170D01*
X105585024Y-82118170D02*
X105489785Y-82070551D01*
X105489785Y-82070551D02*
X105108833Y-82070551D01*
X105108833Y-82070551D02*
X105013595Y-82118170D01*
X105013595Y-82118170D02*
X104965976Y-82213408D01*
X104965976Y-82213408D02*
X104965976Y-82403884D01*
X104965976Y-82403884D02*
X105013595Y-82499122D01*
X105013595Y-82499122D02*
X105108833Y-82546741D01*
X105108833Y-82546741D02*
X105204071Y-82546741D01*
X105204071Y-82546741D02*
X105299309Y-82070551D01*
X105632643Y-82975313D02*
X104965976Y-82975313D01*
X104632643Y-82975313D02*
X104680262Y-82927694D01*
X104680262Y-82927694D02*
X104727881Y-82975313D01*
X104727881Y-82975313D02*
X104680262Y-83022932D01*
X104680262Y-83022932D02*
X104632643Y-82975313D01*
X104632643Y-82975313D02*
X104727881Y-82975313D01*
X104965976Y-83356265D02*
X105632643Y-83594360D01*
X105632643Y-83594360D02*
X104965976Y-83832455D01*
X105585024Y-84594360D02*
X105632643Y-84499122D01*
X105632643Y-84499122D02*
X105632643Y-84308646D01*
X105632643Y-84308646D02*
X105585024Y-84213408D01*
X105585024Y-84213408D02*
X105489785Y-84165789D01*
X105489785Y-84165789D02*
X105108833Y-84165789D01*
X105108833Y-84165789D02*
X105013595Y-84213408D01*
X105013595Y-84213408D02*
X104965976Y-84308646D01*
X104965976Y-84308646D02*
X104965976Y-84499122D01*
X104965976Y-84499122D02*
X105013595Y-84594360D01*
X105013595Y-84594360D02*
X105108833Y-84641979D01*
X105108833Y-84641979D02*
X105204071Y-84641979D01*
X105204071Y-84641979D02*
X105299309Y-84165789D01*
X105632643Y-85070551D02*
X104965976Y-85070551D01*
X105156452Y-85070551D02*
X105061214Y-85118170D01*
X105061214Y-85118170D02*
X105013595Y-85165789D01*
X105013595Y-85165789D02*
X104965976Y-85261027D01*
X104965976Y-85261027D02*
X104965976Y-85356265D01*
X107242587Y-79403884D02*
X106242587Y-79403884D01*
X106242587Y-79403884D02*
X106242587Y-79641979D01*
X106242587Y-79641979D02*
X106290206Y-79784836D01*
X106290206Y-79784836D02*
X106385444Y-79880074D01*
X106385444Y-79880074D02*
X106480682Y-79927693D01*
X106480682Y-79927693D02*
X106671158Y-79975312D01*
X106671158Y-79975312D02*
X106814015Y-79975312D01*
X106814015Y-79975312D02*
X107004491Y-79927693D01*
X107004491Y-79927693D02*
X107099729Y-79880074D01*
X107099729Y-79880074D02*
X107194968Y-79784836D01*
X107194968Y-79784836D02*
X107242587Y-79641979D01*
X107242587Y-79641979D02*
X107242587Y-79403884D01*
X107194968Y-80784836D02*
X107242587Y-80689598D01*
X107242587Y-80689598D02*
X107242587Y-80499122D01*
X107242587Y-80499122D02*
X107194968Y-80403884D01*
X107194968Y-80403884D02*
X107099729Y-80356265D01*
X107099729Y-80356265D02*
X106718777Y-80356265D01*
X106718777Y-80356265D02*
X106623539Y-80403884D01*
X106623539Y-80403884D02*
X106575920Y-80499122D01*
X106575920Y-80499122D02*
X106575920Y-80689598D01*
X106575920Y-80689598D02*
X106623539Y-80784836D01*
X106623539Y-80784836D02*
X106718777Y-80832455D01*
X106718777Y-80832455D02*
X106814015Y-80832455D01*
X106814015Y-80832455D02*
X106909253Y-80356265D01*
X107242587Y-81403884D02*
X107194968Y-81308646D01*
X107194968Y-81308646D02*
X107099729Y-81261027D01*
X107099729Y-81261027D02*
X106242587Y-81261027D01*
X107242587Y-81784837D02*
X106575920Y-81784837D01*
X106242587Y-81784837D02*
X106290206Y-81737218D01*
X106290206Y-81737218D02*
X106337825Y-81784837D01*
X106337825Y-81784837D02*
X106290206Y-81832456D01*
X106290206Y-81832456D02*
X106242587Y-81784837D01*
X106242587Y-81784837D02*
X106337825Y-81784837D01*
X106575920Y-82165789D02*
X107242587Y-82403884D01*
X107242587Y-82403884D02*
X106575920Y-82641979D01*
X107194968Y-83403884D02*
X107242587Y-83308646D01*
X107242587Y-83308646D02*
X107242587Y-83118170D01*
X107242587Y-83118170D02*
X107194968Y-83022932D01*
X107194968Y-83022932D02*
X107099729Y-82975313D01*
X107099729Y-82975313D02*
X106718777Y-82975313D01*
X106718777Y-82975313D02*
X106623539Y-83022932D01*
X106623539Y-83022932D02*
X106575920Y-83118170D01*
X106575920Y-83118170D02*
X106575920Y-83308646D01*
X106575920Y-83308646D02*
X106623539Y-83403884D01*
X106623539Y-83403884D02*
X106718777Y-83451503D01*
X106718777Y-83451503D02*
X106814015Y-83451503D01*
X106814015Y-83451503D02*
X106909253Y-82975313D01*
X107242587Y-83880075D02*
X106575920Y-83880075D01*
X106766396Y-83880075D02*
X106671158Y-83927694D01*
X106671158Y-83927694D02*
X106623539Y-83975313D01*
X106623539Y-83975313D02*
X106575920Y-84070551D01*
X106575920Y-84070551D02*
X106575920Y-84165789D01*
X106575920Y-84403885D02*
X107242587Y-84641980D01*
X106575920Y-84880075D02*
X107242587Y-84641980D01*
X107242587Y-84641980D02*
X107480682Y-84546742D01*
X107480682Y-84546742D02*
X107528301Y-84499123D01*
X107528301Y-84499123D02*
X107575920Y-84403885D01*
X106718777Y-86356266D02*
X106766396Y-86499123D01*
X106766396Y-86499123D02*
X106814015Y-86546742D01*
X106814015Y-86546742D02*
X106909253Y-86594361D01*
X106909253Y-86594361D02*
X107052110Y-86594361D01*
X107052110Y-86594361D02*
X107147348Y-86546742D01*
X107147348Y-86546742D02*
X107194968Y-86499123D01*
X107194968Y-86499123D02*
X107242587Y-86403885D01*
X107242587Y-86403885D02*
X107242587Y-86022933D01*
X107242587Y-86022933D02*
X106242587Y-86022933D01*
X106242587Y-86022933D02*
X106242587Y-86356266D01*
X106242587Y-86356266D02*
X106290206Y-86451504D01*
X106290206Y-86451504D02*
X106337825Y-86499123D01*
X106337825Y-86499123D02*
X106433063Y-86546742D01*
X106433063Y-86546742D02*
X106528301Y-86546742D01*
X106528301Y-86546742D02*
X106623539Y-86499123D01*
X106623539Y-86499123D02*
X106671158Y-86451504D01*
X106671158Y-86451504D02*
X106718777Y-86356266D01*
X106718777Y-86356266D02*
X106718777Y-86022933D01*
X107242587Y-87165790D02*
X107194968Y-87070552D01*
X107194968Y-87070552D02*
X107147348Y-87022933D01*
X107147348Y-87022933D02*
X107052110Y-86975314D01*
X107052110Y-86975314D02*
X106766396Y-86975314D01*
X106766396Y-86975314D02*
X106671158Y-87022933D01*
X106671158Y-87022933D02*
X106623539Y-87070552D01*
X106623539Y-87070552D02*
X106575920Y-87165790D01*
X106575920Y-87165790D02*
X106575920Y-87308647D01*
X106575920Y-87308647D02*
X106623539Y-87403885D01*
X106623539Y-87403885D02*
X106671158Y-87451504D01*
X106671158Y-87451504D02*
X106766396Y-87499123D01*
X106766396Y-87499123D02*
X107052110Y-87499123D01*
X107052110Y-87499123D02*
X107147348Y-87451504D01*
X107147348Y-87451504D02*
X107194968Y-87403885D01*
X107194968Y-87403885D02*
X107242587Y-87308647D01*
X107242587Y-87308647D02*
X107242587Y-87165790D01*
X107242587Y-87832457D02*
X106575920Y-88356266D01*
X106575920Y-87832457D02*
X107242587Y-88356266D01*
X107242587Y-90070552D02*
X106766396Y-89737219D01*
X107242587Y-89499124D02*
X106242587Y-89499124D01*
X106242587Y-89499124D02*
X106242587Y-89880076D01*
X106242587Y-89880076D02*
X106290206Y-89975314D01*
X106290206Y-89975314D02*
X106337825Y-90022933D01*
X106337825Y-90022933D02*
X106433063Y-90070552D01*
X106433063Y-90070552D02*
X106575920Y-90070552D01*
X106575920Y-90070552D02*
X106671158Y-90022933D01*
X106671158Y-90022933D02*
X106718777Y-89975314D01*
X106718777Y-89975314D02*
X106766396Y-89880076D01*
X106766396Y-89880076D02*
X106766396Y-89499124D01*
X107194968Y-90880076D02*
X107242587Y-90784838D01*
X107242587Y-90784838D02*
X107242587Y-90594362D01*
X107242587Y-90594362D02*
X107194968Y-90499124D01*
X107194968Y-90499124D02*
X107099729Y-90451505D01*
X107099729Y-90451505D02*
X106718777Y-90451505D01*
X106718777Y-90451505D02*
X106623539Y-90499124D01*
X106623539Y-90499124D02*
X106575920Y-90594362D01*
X106575920Y-90594362D02*
X106575920Y-90784838D01*
X106575920Y-90784838D02*
X106623539Y-90880076D01*
X106623539Y-90880076D02*
X106718777Y-90927695D01*
X106718777Y-90927695D02*
X106814015Y-90927695D01*
X106814015Y-90927695D02*
X106909253Y-90451505D01*
X106575920Y-91356267D02*
X107575920Y-91356267D01*
X106623539Y-91356267D02*
X106575920Y-91451505D01*
X106575920Y-91451505D02*
X106575920Y-91641981D01*
X106575920Y-91641981D02*
X106623539Y-91737219D01*
X106623539Y-91737219D02*
X106671158Y-91784838D01*
X106671158Y-91784838D02*
X106766396Y-91832457D01*
X106766396Y-91832457D02*
X107052110Y-91832457D01*
X107052110Y-91832457D02*
X107147348Y-91784838D01*
X107147348Y-91784838D02*
X107194968Y-91737219D01*
X107194968Y-91737219D02*
X107242587Y-91641981D01*
X107242587Y-91641981D02*
X107242587Y-91451505D01*
X107242587Y-91451505D02*
X107194968Y-91356267D01*
X107242587Y-92403886D02*
X107194968Y-92308648D01*
X107194968Y-92308648D02*
X107147348Y-92261029D01*
X107147348Y-92261029D02*
X107052110Y-92213410D01*
X107052110Y-92213410D02*
X106766396Y-92213410D01*
X106766396Y-92213410D02*
X106671158Y-92261029D01*
X106671158Y-92261029D02*
X106623539Y-92308648D01*
X106623539Y-92308648D02*
X106575920Y-92403886D01*
X106575920Y-92403886D02*
X106575920Y-92546743D01*
X106575920Y-92546743D02*
X106623539Y-92641981D01*
X106623539Y-92641981D02*
X106671158Y-92689600D01*
X106671158Y-92689600D02*
X106766396Y-92737219D01*
X106766396Y-92737219D02*
X107052110Y-92737219D01*
X107052110Y-92737219D02*
X107147348Y-92689600D01*
X107147348Y-92689600D02*
X107194968Y-92641981D01*
X107194968Y-92641981D02*
X107242587Y-92546743D01*
X107242587Y-92546743D02*
X107242587Y-92403886D01*
X107242587Y-93165791D02*
X106575920Y-93165791D01*
X106766396Y-93165791D02*
X106671158Y-93213410D01*
X106671158Y-93213410D02*
X106623539Y-93261029D01*
X106623539Y-93261029D02*
X106575920Y-93356267D01*
X106575920Y-93356267D02*
X106575920Y-93451505D01*
X106575920Y-93641982D02*
X106575920Y-94022934D01*
X106242587Y-93784839D02*
X107099729Y-93784839D01*
X107099729Y-93784839D02*
X107194968Y-93832458D01*
X107194968Y-93832458D02*
X107242587Y-93927696D01*
X107242587Y-93927696D02*
X107242587Y-94022934D01*
X107194968Y-94737220D02*
X107242587Y-94641982D01*
X107242587Y-94641982D02*
X107242587Y-94451506D01*
X107242587Y-94451506D02*
X107194968Y-94356268D01*
X107194968Y-94356268D02*
X107099729Y-94308649D01*
X107099729Y-94308649D02*
X106718777Y-94308649D01*
X106718777Y-94308649D02*
X106623539Y-94356268D01*
X106623539Y-94356268D02*
X106575920Y-94451506D01*
X106575920Y-94451506D02*
X106575920Y-94641982D01*
X106575920Y-94641982D02*
X106623539Y-94737220D01*
X106623539Y-94737220D02*
X106718777Y-94784839D01*
X106718777Y-94784839D02*
X106814015Y-94784839D01*
X106814015Y-94784839D02*
X106909253Y-94308649D01*
X107242587Y-95213411D02*
X106575920Y-95213411D01*
X106766396Y-95213411D02*
X106671158Y-95261030D01*
X106671158Y-95261030D02*
X106623539Y-95308649D01*
X106623539Y-95308649D02*
X106575920Y-95403887D01*
X106575920Y-95403887D02*
X106575920Y-95499125D01*
X107852531Y-79261027D02*
X108852531Y-79594360D01*
X108852531Y-79594360D02*
X107852531Y-79927693D01*
X108804912Y-80641979D02*
X108852531Y-80546741D01*
X108852531Y-80546741D02*
X108852531Y-80356265D01*
X108852531Y-80356265D02*
X108804912Y-80261027D01*
X108804912Y-80261027D02*
X108709673Y-80213408D01*
X108709673Y-80213408D02*
X108328721Y-80213408D01*
X108328721Y-80213408D02*
X108233483Y-80261027D01*
X108233483Y-80261027D02*
X108185864Y-80356265D01*
X108185864Y-80356265D02*
X108185864Y-80546741D01*
X108185864Y-80546741D02*
X108233483Y-80641979D01*
X108233483Y-80641979D02*
X108328721Y-80689598D01*
X108328721Y-80689598D02*
X108423959Y-80689598D01*
X108423959Y-80689598D02*
X108519197Y-80213408D01*
X108852531Y-81118170D02*
X108185864Y-81118170D01*
X108376340Y-81118170D02*
X108281102Y-81165789D01*
X108281102Y-81165789D02*
X108233483Y-81213408D01*
X108233483Y-81213408D02*
X108185864Y-81308646D01*
X108185864Y-81308646D02*
X108185864Y-81403884D01*
X108804912Y-81689599D02*
X108852531Y-81784837D01*
X108852531Y-81784837D02*
X108852531Y-81975313D01*
X108852531Y-81975313D02*
X108804912Y-82070551D01*
X108804912Y-82070551D02*
X108709673Y-82118170D01*
X108709673Y-82118170D02*
X108662054Y-82118170D01*
X108662054Y-82118170D02*
X108566816Y-82070551D01*
X108566816Y-82070551D02*
X108519197Y-81975313D01*
X108519197Y-81975313D02*
X108519197Y-81832456D01*
X108519197Y-81832456D02*
X108471578Y-81737218D01*
X108471578Y-81737218D02*
X108376340Y-81689599D01*
X108376340Y-81689599D02*
X108328721Y-81689599D01*
X108328721Y-81689599D02*
X108233483Y-81737218D01*
X108233483Y-81737218D02*
X108185864Y-81832456D01*
X108185864Y-81832456D02*
X108185864Y-81975313D01*
X108185864Y-81975313D02*
X108233483Y-82070551D01*
X108852531Y-82546742D02*
X108185864Y-82546742D01*
X107852531Y-82546742D02*
X107900150Y-82499123D01*
X107900150Y-82499123D02*
X107947769Y-82546742D01*
X107947769Y-82546742D02*
X107900150Y-82594361D01*
X107900150Y-82594361D02*
X107852531Y-82546742D01*
X107852531Y-82546742D02*
X107947769Y-82546742D01*
X108852531Y-83165789D02*
X108804912Y-83070551D01*
X108804912Y-83070551D02*
X108757292Y-83022932D01*
X108757292Y-83022932D02*
X108662054Y-82975313D01*
X108662054Y-82975313D02*
X108376340Y-82975313D01*
X108376340Y-82975313D02*
X108281102Y-83022932D01*
X108281102Y-83022932D02*
X108233483Y-83070551D01*
X108233483Y-83070551D02*
X108185864Y-83165789D01*
X108185864Y-83165789D02*
X108185864Y-83308646D01*
X108185864Y-83308646D02*
X108233483Y-83403884D01*
X108233483Y-83403884D02*
X108281102Y-83451503D01*
X108281102Y-83451503D02*
X108376340Y-83499122D01*
X108376340Y-83499122D02*
X108662054Y-83499122D01*
X108662054Y-83499122D02*
X108757292Y-83451503D01*
X108757292Y-83451503D02*
X108804912Y-83403884D01*
X108804912Y-83403884D02*
X108852531Y-83308646D01*
X108852531Y-83308646D02*
X108852531Y-83165789D01*
X108185864Y-83927694D02*
X108852531Y-83927694D01*
X108281102Y-83927694D02*
X108233483Y-83975313D01*
X108233483Y-83975313D02*
X108185864Y-84070551D01*
X108185864Y-84070551D02*
X108185864Y-84213408D01*
X108185864Y-84213408D02*
X108233483Y-84308646D01*
X108233483Y-84308646D02*
X108328721Y-84356265D01*
X108328721Y-84356265D02*
X108852531Y-84356265D01*
X107947769Y-85546742D02*
X107900150Y-85594361D01*
X107900150Y-85594361D02*
X107852531Y-85689599D01*
X107852531Y-85689599D02*
X107852531Y-85927694D01*
X107852531Y-85927694D02*
X107900150Y-86022932D01*
X107900150Y-86022932D02*
X107947769Y-86070551D01*
X107947769Y-86070551D02*
X108043007Y-86118170D01*
X108043007Y-86118170D02*
X108138245Y-86118170D01*
X108138245Y-86118170D02*
X108281102Y-86070551D01*
X108281102Y-86070551D02*
X108852531Y-85499123D01*
X108852531Y-85499123D02*
X108852531Y-86118170D01*
X108757292Y-86546742D02*
X108804912Y-86594361D01*
X108804912Y-86594361D02*
X108852531Y-86546742D01*
X108852531Y-86546742D02*
X108804912Y-86499123D01*
X108804912Y-86499123D02*
X108757292Y-86546742D01*
X108757292Y-86546742D02*
X108852531Y-86546742D01*
X107852531Y-87213408D02*
X107852531Y-87308646D01*
X107852531Y-87308646D02*
X107900150Y-87403884D01*
X107900150Y-87403884D02*
X107947769Y-87451503D01*
X107947769Y-87451503D02*
X108043007Y-87499122D01*
X108043007Y-87499122D02*
X108233483Y-87546741D01*
X108233483Y-87546741D02*
X108471578Y-87546741D01*
X108471578Y-87546741D02*
X108662054Y-87499122D01*
X108662054Y-87499122D02*
X108757292Y-87451503D01*
X108757292Y-87451503D02*
X108804912Y-87403884D01*
X108804912Y-87403884D02*
X108852531Y-87308646D01*
X108852531Y-87308646D02*
X108852531Y-87213408D01*
X108852531Y-87213408D02*
X108804912Y-87118170D01*
X108804912Y-87118170D02*
X108757292Y-87070551D01*
X108757292Y-87070551D02*
X108662054Y-87022932D01*
X108662054Y-87022932D02*
X108471578Y-86975313D01*
X108471578Y-86975313D02*
X108233483Y-86975313D01*
X108233483Y-86975313D02*
X108043007Y-87022932D01*
X108043007Y-87022932D02*
X107947769Y-87070551D01*
X107947769Y-87070551D02*
X107900150Y-87118170D01*
X107900150Y-87118170D02*
X107852531Y-87213408D01*
X108757292Y-87975313D02*
X108804912Y-88022932D01*
X108804912Y-88022932D02*
X108852531Y-87975313D01*
X108852531Y-87975313D02*
X108804912Y-87927694D01*
X108804912Y-87927694D02*
X108757292Y-87975313D01*
X108757292Y-87975313D02*
X108852531Y-87975313D01*
X108852531Y-88975312D02*
X108852531Y-88403884D01*
X108852531Y-88689598D02*
X107852531Y-88689598D01*
X107852531Y-88689598D02*
X107995388Y-88594360D01*
X107995388Y-88594360D02*
X108090626Y-88499122D01*
X108090626Y-88499122D02*
X108138245Y-88403884D01*
X110462475Y-79927693D02*
X110462475Y-79356265D01*
X110462475Y-79641979D02*
X109462475Y-79641979D01*
X109462475Y-79641979D02*
X109605332Y-79546741D01*
X109605332Y-79546741D02*
X109700570Y-79451503D01*
X109700570Y-79451503D02*
X109748189Y-79356265D01*
X110081522Y-80356265D02*
X110081522Y-81118170D01*
X110462475Y-82118169D02*
X110462475Y-81546741D01*
X110462475Y-81832455D02*
X109462475Y-81832455D01*
X109462475Y-81832455D02*
X109605332Y-81737217D01*
X109605332Y-81737217D02*
X109700570Y-81641979D01*
X109700570Y-81641979D02*
X109748189Y-81546741D01*
X110462475Y-83070550D02*
X110462475Y-82499122D01*
X110462475Y-82784836D02*
X109462475Y-82784836D01*
X109462475Y-82784836D02*
X109605332Y-82689598D01*
X109605332Y-82689598D02*
X109700570Y-82594360D01*
X109700570Y-82594360D02*
X109748189Y-82499122D01*
X110081522Y-83499122D02*
X110081522Y-84261027D01*
X109557713Y-84689598D02*
X109510094Y-84737217D01*
X109510094Y-84737217D02*
X109462475Y-84832455D01*
X109462475Y-84832455D02*
X109462475Y-85070550D01*
X109462475Y-85070550D02*
X109510094Y-85165788D01*
X109510094Y-85165788D02*
X109557713Y-85213407D01*
X109557713Y-85213407D02*
X109652951Y-85261026D01*
X109652951Y-85261026D02*
X109748189Y-85261026D01*
X109748189Y-85261026D02*
X109891046Y-85213407D01*
X109891046Y-85213407D02*
X110462475Y-84641979D01*
X110462475Y-84641979D02*
X110462475Y-85261026D01*
X109462475Y-86165788D02*
X109462475Y-85689598D01*
X109462475Y-85689598D02*
X109938665Y-85641979D01*
X109938665Y-85641979D02*
X109891046Y-85689598D01*
X109891046Y-85689598D02*
X109843427Y-85784836D01*
X109843427Y-85784836D02*
X109843427Y-86022931D01*
X109843427Y-86022931D02*
X109891046Y-86118169D01*
X109891046Y-86118169D02*
X109938665Y-86165788D01*
X109938665Y-86165788D02*
X110033903Y-86213407D01*
X110033903Y-86213407D02*
X110271998Y-86213407D01*
X110271998Y-86213407D02*
X110367236Y-86165788D01*
X110367236Y-86165788D02*
X110414856Y-86118169D01*
X110414856Y-86118169D02*
X110462475Y-86022931D01*
X110462475Y-86022931D02*
X110462475Y-85784836D01*
X110462475Y-85784836D02*
X110414856Y-85689598D01*
X110414856Y-85689598D02*
X110367236Y-85641979D01*
X112072419Y-79403884D02*
X111072419Y-79403884D01*
X111072419Y-79403884D02*
X111072419Y-79641979D01*
X111072419Y-79641979D02*
X111120038Y-79784836D01*
X111120038Y-79784836D02*
X111215276Y-79880074D01*
X111215276Y-79880074D02*
X111310514Y-79927693D01*
X111310514Y-79927693D02*
X111500990Y-79975312D01*
X111500990Y-79975312D02*
X111643847Y-79975312D01*
X111643847Y-79975312D02*
X111834323Y-79927693D01*
X111834323Y-79927693D02*
X111929561Y-79880074D01*
X111929561Y-79880074D02*
X112024800Y-79784836D01*
X112024800Y-79784836D02*
X112072419Y-79641979D01*
X112072419Y-79641979D02*
X112072419Y-79403884D01*
X112072419Y-80832455D02*
X111548609Y-80832455D01*
X111548609Y-80832455D02*
X111453371Y-80784836D01*
X111453371Y-80784836D02*
X111405752Y-80689598D01*
X111405752Y-80689598D02*
X111405752Y-80499122D01*
X111405752Y-80499122D02*
X111453371Y-80403884D01*
X112024800Y-80832455D02*
X112072419Y-80737217D01*
X112072419Y-80737217D02*
X112072419Y-80499122D01*
X112072419Y-80499122D02*
X112024800Y-80403884D01*
X112024800Y-80403884D02*
X111929561Y-80356265D01*
X111929561Y-80356265D02*
X111834323Y-80356265D01*
X111834323Y-80356265D02*
X111739085Y-80403884D01*
X111739085Y-80403884D02*
X111691466Y-80499122D01*
X111691466Y-80499122D02*
X111691466Y-80737217D01*
X111691466Y-80737217D02*
X111643847Y-80832455D01*
X111405752Y-81213408D02*
X112072419Y-81451503D01*
X112072419Y-81451503D02*
X111405752Y-81689598D01*
X112072419Y-82070551D02*
X111405752Y-82070551D01*
X111072419Y-82070551D02*
X111120038Y-82022932D01*
X111120038Y-82022932D02*
X111167657Y-82070551D01*
X111167657Y-82070551D02*
X111120038Y-82118170D01*
X111120038Y-82118170D02*
X111072419Y-82070551D01*
X111072419Y-82070551D02*
X111167657Y-82070551D01*
X112072419Y-82975312D02*
X111072419Y-82975312D01*
X112024800Y-82975312D02*
X112072419Y-82880074D01*
X112072419Y-82880074D02*
X112072419Y-82689598D01*
X112072419Y-82689598D02*
X112024800Y-82594360D01*
X112024800Y-82594360D02*
X111977180Y-82546741D01*
X111977180Y-82546741D02*
X111881942Y-82499122D01*
X111881942Y-82499122D02*
X111596228Y-82499122D01*
X111596228Y-82499122D02*
X111500990Y-82546741D01*
X111500990Y-82546741D02*
X111453371Y-82594360D01*
X111453371Y-82594360D02*
X111405752Y-82689598D01*
X111405752Y-82689598D02*
X111405752Y-82880074D01*
X111405752Y-82880074D02*
X111453371Y-82975312D01*
X111548609Y-84213408D02*
X111548609Y-84546741D01*
X112072419Y-84689598D02*
X112072419Y-84213408D01*
X112072419Y-84213408D02*
X111072419Y-84213408D01*
X111072419Y-84213408D02*
X111072419Y-84689598D01*
X111977180Y-85118170D02*
X112024800Y-85165789D01*
X112024800Y-85165789D02*
X112072419Y-85118170D01*
X112072419Y-85118170D02*
X112024800Y-85070551D01*
X112024800Y-85070551D02*
X111977180Y-85118170D01*
X111977180Y-85118170D02*
X112072419Y-85118170D01*
X112072419Y-86356265D02*
X111072419Y-86356265D01*
X111072419Y-86356265D02*
X111072419Y-86737217D01*
X111072419Y-86737217D02*
X111120038Y-86832455D01*
X111120038Y-86832455D02*
X111167657Y-86880074D01*
X111167657Y-86880074D02*
X111262895Y-86927693D01*
X111262895Y-86927693D02*
X111405752Y-86927693D01*
X111405752Y-86927693D02*
X111500990Y-86880074D01*
X111500990Y-86880074D02*
X111548609Y-86832455D01*
X111548609Y-86832455D02*
X111596228Y-86737217D01*
X111596228Y-86737217D02*
X111596228Y-86356265D01*
X112072419Y-87499122D02*
X112024800Y-87403884D01*
X112024800Y-87403884D02*
X111977180Y-87356265D01*
X111977180Y-87356265D02*
X111881942Y-87308646D01*
X111881942Y-87308646D02*
X111596228Y-87308646D01*
X111596228Y-87308646D02*
X111500990Y-87356265D01*
X111500990Y-87356265D02*
X111453371Y-87403884D01*
X111453371Y-87403884D02*
X111405752Y-87499122D01*
X111405752Y-87499122D02*
X111405752Y-87641979D01*
X111405752Y-87641979D02*
X111453371Y-87737217D01*
X111453371Y-87737217D02*
X111500990Y-87784836D01*
X111500990Y-87784836D02*
X111596228Y-87832455D01*
X111596228Y-87832455D02*
X111881942Y-87832455D01*
X111881942Y-87832455D02*
X111977180Y-87784836D01*
X111977180Y-87784836D02*
X112024800Y-87737217D01*
X112024800Y-87737217D02*
X112072419Y-87641979D01*
X112072419Y-87641979D02*
X112072419Y-87499122D01*
X111405752Y-88165789D02*
X112072419Y-88356265D01*
X112072419Y-88356265D02*
X111596228Y-88546741D01*
X111596228Y-88546741D02*
X112072419Y-88737217D01*
X112072419Y-88737217D02*
X111405752Y-88927693D01*
X112024800Y-89689598D02*
X112072419Y-89594360D01*
X112072419Y-89594360D02*
X112072419Y-89403884D01*
X112072419Y-89403884D02*
X112024800Y-89308646D01*
X112024800Y-89308646D02*
X111929561Y-89261027D01*
X111929561Y-89261027D02*
X111548609Y-89261027D01*
X111548609Y-89261027D02*
X111453371Y-89308646D01*
X111453371Y-89308646D02*
X111405752Y-89403884D01*
X111405752Y-89403884D02*
X111405752Y-89594360D01*
X111405752Y-89594360D02*
X111453371Y-89689598D01*
X111453371Y-89689598D02*
X111548609Y-89737217D01*
X111548609Y-89737217D02*
X111643847Y-89737217D01*
X111643847Y-89737217D02*
X111739085Y-89261027D01*
X112072419Y-90308646D02*
X112024800Y-90213408D01*
X112024800Y-90213408D02*
X111929561Y-90165789D01*
X111929561Y-90165789D02*
X111072419Y-90165789D01*
X112072419Y-90832456D02*
X112024800Y-90737218D01*
X112024800Y-90737218D02*
X111929561Y-90689599D01*
X111929561Y-90689599D02*
X111072419Y-90689599D01*
X158143734Y-73535024D02*
X158000877Y-73582643D01*
X158000877Y-73582643D02*
X157762782Y-73582643D01*
X157762782Y-73582643D02*
X157667544Y-73535024D01*
X157667544Y-73535024D02*
X157619925Y-73487404D01*
X157619925Y-73487404D02*
X157572306Y-73392166D01*
X157572306Y-73392166D02*
X157572306Y-73296928D01*
X157572306Y-73296928D02*
X157619925Y-73201690D01*
X157619925Y-73201690D02*
X157667544Y-73154071D01*
X157667544Y-73154071D02*
X157762782Y-73106452D01*
X157762782Y-73106452D02*
X157953258Y-73058833D01*
X157953258Y-73058833D02*
X158048496Y-73011214D01*
X158048496Y-73011214D02*
X158096115Y-72963595D01*
X158096115Y-72963595D02*
X158143734Y-72868357D01*
X158143734Y-72868357D02*
X158143734Y-72773119D01*
X158143734Y-72773119D02*
X158096115Y-72677881D01*
X158096115Y-72677881D02*
X158048496Y-72630262D01*
X158048496Y-72630262D02*
X157953258Y-72582643D01*
X157953258Y-72582643D02*
X157715163Y-72582643D01*
X157715163Y-72582643D02*
X157572306Y-72630262D01*
X156762782Y-73535024D02*
X156858020Y-73582643D01*
X156858020Y-73582643D02*
X157048496Y-73582643D01*
X157048496Y-73582643D02*
X157143734Y-73535024D01*
X157143734Y-73535024D02*
X157191353Y-73439785D01*
X157191353Y-73439785D02*
X157191353Y-73058833D01*
X157191353Y-73058833D02*
X157143734Y-72963595D01*
X157143734Y-72963595D02*
X157048496Y-72915976D01*
X157048496Y-72915976D02*
X156858020Y-72915976D01*
X156858020Y-72915976D02*
X156762782Y-72963595D01*
X156762782Y-72963595D02*
X156715163Y-73058833D01*
X156715163Y-73058833D02*
X156715163Y-73154071D01*
X156715163Y-73154071D02*
X157191353Y-73249309D01*
X156286591Y-72915976D02*
X156286591Y-73582643D01*
X156286591Y-73011214D02*
X156238972Y-72963595D01*
X156238972Y-72963595D02*
X156143734Y-72915976D01*
X156143734Y-72915976D02*
X156000877Y-72915976D01*
X156000877Y-72915976D02*
X155905639Y-72963595D01*
X155905639Y-72963595D02*
X155858020Y-73058833D01*
X155858020Y-73058833D02*
X155858020Y-73582643D01*
X155429448Y-73535024D02*
X155334210Y-73582643D01*
X155334210Y-73582643D02*
X155143734Y-73582643D01*
X155143734Y-73582643D02*
X155048496Y-73535024D01*
X155048496Y-73535024D02*
X155000877Y-73439785D01*
X155000877Y-73439785D02*
X155000877Y-73392166D01*
X155000877Y-73392166D02*
X155048496Y-73296928D01*
X155048496Y-73296928D02*
X155143734Y-73249309D01*
X155143734Y-73249309D02*
X155286591Y-73249309D01*
X155286591Y-73249309D02*
X155381829Y-73201690D01*
X155381829Y-73201690D02*
X155429448Y-73106452D01*
X155429448Y-73106452D02*
X155429448Y-73058833D01*
X155429448Y-73058833D02*
X155381829Y-72963595D01*
X155381829Y-72963595D02*
X155286591Y-72915976D01*
X155286591Y-72915976D02*
X155143734Y-72915976D01*
X155143734Y-72915976D02*
X155048496Y-72963595D01*
X154429448Y-73582643D02*
X154524686Y-73535024D01*
X154524686Y-73535024D02*
X154572305Y-73487404D01*
X154572305Y-73487404D02*
X154619924Y-73392166D01*
X154619924Y-73392166D02*
X154619924Y-73106452D01*
X154619924Y-73106452D02*
X154572305Y-73011214D01*
X154572305Y-73011214D02*
X154524686Y-72963595D01*
X154524686Y-72963595D02*
X154429448Y-72915976D01*
X154429448Y-72915976D02*
X154286591Y-72915976D01*
X154286591Y-72915976D02*
X154191353Y-72963595D01*
X154191353Y-72963595D02*
X154143734Y-73011214D01*
X154143734Y-73011214D02*
X154096115Y-73106452D01*
X154096115Y-73106452D02*
X154096115Y-73392166D01*
X154096115Y-73392166D02*
X154143734Y-73487404D01*
X154143734Y-73487404D02*
X154191353Y-73535024D01*
X154191353Y-73535024D02*
X154286591Y-73582643D01*
X154286591Y-73582643D02*
X154429448Y-73582643D01*
X153667543Y-73582643D02*
X153667543Y-72915976D01*
X153667543Y-73106452D02*
X153619924Y-73011214D01*
X153619924Y-73011214D02*
X153572305Y-72963595D01*
X153572305Y-72963595D02*
X153477067Y-72915976D01*
X153477067Y-72915976D02*
X153381829Y-72915976D01*
X158096115Y-75192587D02*
X158096115Y-74192587D01*
X158096115Y-74192587D02*
X157858020Y-74192587D01*
X157858020Y-74192587D02*
X157715163Y-74240206D01*
X157715163Y-74240206D02*
X157619925Y-74335444D01*
X157619925Y-74335444D02*
X157572306Y-74430682D01*
X157572306Y-74430682D02*
X157524687Y-74621158D01*
X157524687Y-74621158D02*
X157524687Y-74764015D01*
X157524687Y-74764015D02*
X157572306Y-74954491D01*
X157572306Y-74954491D02*
X157619925Y-75049729D01*
X157619925Y-75049729D02*
X157715163Y-75144968D01*
X157715163Y-75144968D02*
X157858020Y-75192587D01*
X157858020Y-75192587D02*
X158096115Y-75192587D01*
X156715163Y-75144968D02*
X156810401Y-75192587D01*
X156810401Y-75192587D02*
X157000877Y-75192587D01*
X157000877Y-75192587D02*
X157096115Y-75144968D01*
X157096115Y-75144968D02*
X157143734Y-75049729D01*
X157143734Y-75049729D02*
X157143734Y-74668777D01*
X157143734Y-74668777D02*
X157096115Y-74573539D01*
X157096115Y-74573539D02*
X157000877Y-74525920D01*
X157000877Y-74525920D02*
X156810401Y-74525920D01*
X156810401Y-74525920D02*
X156715163Y-74573539D01*
X156715163Y-74573539D02*
X156667544Y-74668777D01*
X156667544Y-74668777D02*
X156667544Y-74764015D01*
X156667544Y-74764015D02*
X157143734Y-74859253D01*
X156096115Y-75192587D02*
X156191353Y-75144968D01*
X156191353Y-75144968D02*
X156238972Y-75049729D01*
X156238972Y-75049729D02*
X156238972Y-74192587D01*
X155715162Y-75192587D02*
X155715162Y-74525920D01*
X155715162Y-74192587D02*
X155762781Y-74240206D01*
X155762781Y-74240206D02*
X155715162Y-74287825D01*
X155715162Y-74287825D02*
X155667543Y-74240206D01*
X155667543Y-74240206D02*
X155715162Y-74192587D01*
X155715162Y-74192587D02*
X155715162Y-74287825D01*
X155334210Y-74525920D02*
X155096115Y-75192587D01*
X155096115Y-75192587D02*
X154858020Y-74525920D01*
X154096115Y-75144968D02*
X154191353Y-75192587D01*
X154191353Y-75192587D02*
X154381829Y-75192587D01*
X154381829Y-75192587D02*
X154477067Y-75144968D01*
X154477067Y-75144968D02*
X154524686Y-75049729D01*
X154524686Y-75049729D02*
X154524686Y-74668777D01*
X154524686Y-74668777D02*
X154477067Y-74573539D01*
X154477067Y-74573539D02*
X154381829Y-74525920D01*
X154381829Y-74525920D02*
X154191353Y-74525920D01*
X154191353Y-74525920D02*
X154096115Y-74573539D01*
X154096115Y-74573539D02*
X154048496Y-74668777D01*
X154048496Y-74668777D02*
X154048496Y-74764015D01*
X154048496Y-74764015D02*
X154524686Y-74859253D01*
X153619924Y-75192587D02*
X153619924Y-74525920D01*
X153619924Y-74716396D02*
X153572305Y-74621158D01*
X153572305Y-74621158D02*
X153524686Y-74573539D01*
X153524686Y-74573539D02*
X153429448Y-74525920D01*
X153429448Y-74525920D02*
X153334210Y-74525920D01*
X153096114Y-74525920D02*
X152858019Y-75192587D01*
X152619924Y-74525920D02*
X152858019Y-75192587D01*
X152858019Y-75192587D02*
X152953257Y-75430682D01*
X152953257Y-75430682D02*
X153000876Y-75478301D01*
X153000876Y-75478301D02*
X153096114Y-75525920D01*
X151143733Y-74668777D02*
X151000876Y-74716396D01*
X151000876Y-74716396D02*
X150953257Y-74764015D01*
X150953257Y-74764015D02*
X150905638Y-74859253D01*
X150905638Y-74859253D02*
X150905638Y-75002110D01*
X150905638Y-75002110D02*
X150953257Y-75097348D01*
X150953257Y-75097348D02*
X151000876Y-75144968D01*
X151000876Y-75144968D02*
X151096114Y-75192587D01*
X151096114Y-75192587D02*
X151477066Y-75192587D01*
X151477066Y-75192587D02*
X151477066Y-74192587D01*
X151477066Y-74192587D02*
X151143733Y-74192587D01*
X151143733Y-74192587D02*
X151048495Y-74240206D01*
X151048495Y-74240206D02*
X151000876Y-74287825D01*
X151000876Y-74287825D02*
X150953257Y-74383063D01*
X150953257Y-74383063D02*
X150953257Y-74478301D01*
X150953257Y-74478301D02*
X151000876Y-74573539D01*
X151000876Y-74573539D02*
X151048495Y-74621158D01*
X151048495Y-74621158D02*
X151143733Y-74668777D01*
X151143733Y-74668777D02*
X151477066Y-74668777D01*
X150334209Y-75192587D02*
X150429447Y-75144968D01*
X150429447Y-75144968D02*
X150477066Y-75097348D01*
X150477066Y-75097348D02*
X150524685Y-75002110D01*
X150524685Y-75002110D02*
X150524685Y-74716396D01*
X150524685Y-74716396D02*
X150477066Y-74621158D01*
X150477066Y-74621158D02*
X150429447Y-74573539D01*
X150429447Y-74573539D02*
X150334209Y-74525920D01*
X150334209Y-74525920D02*
X150191352Y-74525920D01*
X150191352Y-74525920D02*
X150096114Y-74573539D01*
X150096114Y-74573539D02*
X150048495Y-74621158D01*
X150048495Y-74621158D02*
X150000876Y-74716396D01*
X150000876Y-74716396D02*
X150000876Y-75002110D01*
X150000876Y-75002110D02*
X150048495Y-75097348D01*
X150048495Y-75097348D02*
X150096114Y-75144968D01*
X150096114Y-75144968D02*
X150191352Y-75192587D01*
X150191352Y-75192587D02*
X150334209Y-75192587D01*
X149667542Y-75192587D02*
X149143733Y-74525920D01*
X149667542Y-74525920D02*
X149143733Y-75192587D01*
X147429447Y-75192587D02*
X147762780Y-74716396D01*
X148000875Y-75192587D02*
X148000875Y-74192587D01*
X148000875Y-74192587D02*
X147619923Y-74192587D01*
X147619923Y-74192587D02*
X147524685Y-74240206D01*
X147524685Y-74240206D02*
X147477066Y-74287825D01*
X147477066Y-74287825D02*
X147429447Y-74383063D01*
X147429447Y-74383063D02*
X147429447Y-74525920D01*
X147429447Y-74525920D02*
X147477066Y-74621158D01*
X147477066Y-74621158D02*
X147524685Y-74668777D01*
X147524685Y-74668777D02*
X147619923Y-74716396D01*
X147619923Y-74716396D02*
X148000875Y-74716396D01*
X146619923Y-75144968D02*
X146715161Y-75192587D01*
X146715161Y-75192587D02*
X146905637Y-75192587D01*
X146905637Y-75192587D02*
X147000875Y-75144968D01*
X147000875Y-75144968D02*
X147048494Y-75049729D01*
X147048494Y-75049729D02*
X147048494Y-74668777D01*
X147048494Y-74668777D02*
X147000875Y-74573539D01*
X147000875Y-74573539D02*
X146905637Y-74525920D01*
X146905637Y-74525920D02*
X146715161Y-74525920D01*
X146715161Y-74525920D02*
X146619923Y-74573539D01*
X146619923Y-74573539D02*
X146572304Y-74668777D01*
X146572304Y-74668777D02*
X146572304Y-74764015D01*
X146572304Y-74764015D02*
X147048494Y-74859253D01*
X146143732Y-74525920D02*
X146143732Y-75525920D01*
X146143732Y-74573539D02*
X146048494Y-74525920D01*
X146048494Y-74525920D02*
X145858018Y-74525920D01*
X145858018Y-74525920D02*
X145762780Y-74573539D01*
X145762780Y-74573539D02*
X145715161Y-74621158D01*
X145715161Y-74621158D02*
X145667542Y-74716396D01*
X145667542Y-74716396D02*
X145667542Y-75002110D01*
X145667542Y-75002110D02*
X145715161Y-75097348D01*
X145715161Y-75097348D02*
X145762780Y-75144968D01*
X145762780Y-75144968D02*
X145858018Y-75192587D01*
X145858018Y-75192587D02*
X146048494Y-75192587D01*
X146048494Y-75192587D02*
X146143732Y-75144968D01*
X145096113Y-75192587D02*
X145191351Y-75144968D01*
X145191351Y-75144968D02*
X145238970Y-75097348D01*
X145238970Y-75097348D02*
X145286589Y-75002110D01*
X145286589Y-75002110D02*
X145286589Y-74716396D01*
X145286589Y-74716396D02*
X145238970Y-74621158D01*
X145238970Y-74621158D02*
X145191351Y-74573539D01*
X145191351Y-74573539D02*
X145096113Y-74525920D01*
X145096113Y-74525920D02*
X144953256Y-74525920D01*
X144953256Y-74525920D02*
X144858018Y-74573539D01*
X144858018Y-74573539D02*
X144810399Y-74621158D01*
X144810399Y-74621158D02*
X144762780Y-74716396D01*
X144762780Y-74716396D02*
X144762780Y-75002110D01*
X144762780Y-75002110D02*
X144810399Y-75097348D01*
X144810399Y-75097348D02*
X144858018Y-75144968D01*
X144858018Y-75144968D02*
X144953256Y-75192587D01*
X144953256Y-75192587D02*
X145096113Y-75192587D01*
X144334208Y-75192587D02*
X144334208Y-74525920D01*
X144334208Y-74716396D02*
X144286589Y-74621158D01*
X144286589Y-74621158D02*
X144238970Y-74573539D01*
X144238970Y-74573539D02*
X144143732Y-74525920D01*
X144143732Y-74525920D02*
X144048494Y-74525920D01*
X143858017Y-74525920D02*
X143477065Y-74525920D01*
X143715160Y-74192587D02*
X143715160Y-75049729D01*
X143715160Y-75049729D02*
X143667541Y-75144968D01*
X143667541Y-75144968D02*
X143572303Y-75192587D01*
X143572303Y-75192587D02*
X143477065Y-75192587D01*
X142762779Y-75144968D02*
X142858017Y-75192587D01*
X142858017Y-75192587D02*
X143048493Y-75192587D01*
X143048493Y-75192587D02*
X143143731Y-75144968D01*
X143143731Y-75144968D02*
X143191350Y-75049729D01*
X143191350Y-75049729D02*
X143191350Y-74668777D01*
X143191350Y-74668777D02*
X143143731Y-74573539D01*
X143143731Y-74573539D02*
X143048493Y-74525920D01*
X143048493Y-74525920D02*
X142858017Y-74525920D01*
X142858017Y-74525920D02*
X142762779Y-74573539D01*
X142762779Y-74573539D02*
X142715160Y-74668777D01*
X142715160Y-74668777D02*
X142715160Y-74764015D01*
X142715160Y-74764015D02*
X143191350Y-74859253D01*
X142286588Y-75192587D02*
X142286588Y-74525920D01*
X142286588Y-74716396D02*
X142238969Y-74621158D01*
X142238969Y-74621158D02*
X142191350Y-74573539D01*
X142191350Y-74573539D02*
X142096112Y-74525920D01*
X142096112Y-74525920D02*
X142000874Y-74525920D01*
X158238972Y-75802531D02*
X157905639Y-76802531D01*
X157905639Y-76802531D02*
X157572306Y-75802531D01*
X156858020Y-76754912D02*
X156953258Y-76802531D01*
X156953258Y-76802531D02*
X157143734Y-76802531D01*
X157143734Y-76802531D02*
X157238972Y-76754912D01*
X157238972Y-76754912D02*
X157286591Y-76659673D01*
X157286591Y-76659673D02*
X157286591Y-76278721D01*
X157286591Y-76278721D02*
X157238972Y-76183483D01*
X157238972Y-76183483D02*
X157143734Y-76135864D01*
X157143734Y-76135864D02*
X156953258Y-76135864D01*
X156953258Y-76135864D02*
X156858020Y-76183483D01*
X156858020Y-76183483D02*
X156810401Y-76278721D01*
X156810401Y-76278721D02*
X156810401Y-76373959D01*
X156810401Y-76373959D02*
X157286591Y-76469197D01*
X156381829Y-76802531D02*
X156381829Y-76135864D01*
X156381829Y-76326340D02*
X156334210Y-76231102D01*
X156334210Y-76231102D02*
X156286591Y-76183483D01*
X156286591Y-76183483D02*
X156191353Y-76135864D01*
X156191353Y-76135864D02*
X156096115Y-76135864D01*
X155810400Y-76754912D02*
X155715162Y-76802531D01*
X155715162Y-76802531D02*
X155524686Y-76802531D01*
X155524686Y-76802531D02*
X155429448Y-76754912D01*
X155429448Y-76754912D02*
X155381829Y-76659673D01*
X155381829Y-76659673D02*
X155381829Y-76612054D01*
X155381829Y-76612054D02*
X155429448Y-76516816D01*
X155429448Y-76516816D02*
X155524686Y-76469197D01*
X155524686Y-76469197D02*
X155667543Y-76469197D01*
X155667543Y-76469197D02*
X155762781Y-76421578D01*
X155762781Y-76421578D02*
X155810400Y-76326340D01*
X155810400Y-76326340D02*
X155810400Y-76278721D01*
X155810400Y-76278721D02*
X155762781Y-76183483D01*
X155762781Y-76183483D02*
X155667543Y-76135864D01*
X155667543Y-76135864D02*
X155524686Y-76135864D01*
X155524686Y-76135864D02*
X155429448Y-76183483D01*
X154953257Y-76802531D02*
X154953257Y-76135864D01*
X154953257Y-75802531D02*
X155000876Y-75850150D01*
X155000876Y-75850150D02*
X154953257Y-75897769D01*
X154953257Y-75897769D02*
X154905638Y-75850150D01*
X154905638Y-75850150D02*
X154953257Y-75802531D01*
X154953257Y-75802531D02*
X154953257Y-75897769D01*
X154334210Y-76802531D02*
X154429448Y-76754912D01*
X154429448Y-76754912D02*
X154477067Y-76707292D01*
X154477067Y-76707292D02*
X154524686Y-76612054D01*
X154524686Y-76612054D02*
X154524686Y-76326340D01*
X154524686Y-76326340D02*
X154477067Y-76231102D01*
X154477067Y-76231102D02*
X154429448Y-76183483D01*
X154429448Y-76183483D02*
X154334210Y-76135864D01*
X154334210Y-76135864D02*
X154191353Y-76135864D01*
X154191353Y-76135864D02*
X154096115Y-76183483D01*
X154096115Y-76183483D02*
X154048496Y-76231102D01*
X154048496Y-76231102D02*
X154000877Y-76326340D01*
X154000877Y-76326340D02*
X154000877Y-76612054D01*
X154000877Y-76612054D02*
X154048496Y-76707292D01*
X154048496Y-76707292D02*
X154096115Y-76754912D01*
X154096115Y-76754912D02*
X154191353Y-76802531D01*
X154191353Y-76802531D02*
X154334210Y-76802531D01*
X153572305Y-76135864D02*
X153572305Y-76802531D01*
X153572305Y-76231102D02*
X153524686Y-76183483D01*
X153524686Y-76183483D02*
X153429448Y-76135864D01*
X153429448Y-76135864D02*
X153286591Y-76135864D01*
X153286591Y-76135864D02*
X153191353Y-76183483D01*
X153191353Y-76183483D02*
X153143734Y-76278721D01*
X153143734Y-76278721D02*
X153143734Y-76802531D01*
X151953257Y-75897769D02*
X151905638Y-75850150D01*
X151905638Y-75850150D02*
X151810400Y-75802531D01*
X151810400Y-75802531D02*
X151572305Y-75802531D01*
X151572305Y-75802531D02*
X151477067Y-75850150D01*
X151477067Y-75850150D02*
X151429448Y-75897769D01*
X151429448Y-75897769D02*
X151381829Y-75993007D01*
X151381829Y-75993007D02*
X151381829Y-76088245D01*
X151381829Y-76088245D02*
X151429448Y-76231102D01*
X151429448Y-76231102D02*
X152000876Y-76802531D01*
X152000876Y-76802531D02*
X151381829Y-76802531D01*
X150953257Y-76707292D02*
X150905638Y-76754912D01*
X150905638Y-76754912D02*
X150953257Y-76802531D01*
X150953257Y-76802531D02*
X151000876Y-76754912D01*
X151000876Y-76754912D02*
X150953257Y-76707292D01*
X150953257Y-76707292D02*
X150953257Y-76802531D01*
X150286591Y-75802531D02*
X150191353Y-75802531D01*
X150191353Y-75802531D02*
X150096115Y-75850150D01*
X150096115Y-75850150D02*
X150048496Y-75897769D01*
X150048496Y-75897769D02*
X150000877Y-75993007D01*
X150000877Y-75993007D02*
X149953258Y-76183483D01*
X149953258Y-76183483D02*
X149953258Y-76421578D01*
X149953258Y-76421578D02*
X150000877Y-76612054D01*
X150000877Y-76612054D02*
X150048496Y-76707292D01*
X150048496Y-76707292D02*
X150096115Y-76754912D01*
X150096115Y-76754912D02*
X150191353Y-76802531D01*
X150191353Y-76802531D02*
X150286591Y-76802531D01*
X150286591Y-76802531D02*
X150381829Y-76754912D01*
X150381829Y-76754912D02*
X150429448Y-76707292D01*
X150429448Y-76707292D02*
X150477067Y-76612054D01*
X150477067Y-76612054D02*
X150524686Y-76421578D01*
X150524686Y-76421578D02*
X150524686Y-76183483D01*
X150524686Y-76183483D02*
X150477067Y-75993007D01*
X150477067Y-75993007D02*
X150429448Y-75897769D01*
X150429448Y-75897769D02*
X150381829Y-75850150D01*
X150381829Y-75850150D02*
X150286591Y-75802531D01*
X149524686Y-76707292D02*
X149477067Y-76754912D01*
X149477067Y-76754912D02*
X149524686Y-76802531D01*
X149524686Y-76802531D02*
X149572305Y-76754912D01*
X149572305Y-76754912D02*
X149524686Y-76707292D01*
X149524686Y-76707292D02*
X149524686Y-76802531D01*
X148524687Y-76802531D02*
X149096115Y-76802531D01*
X148810401Y-76802531D02*
X148810401Y-75802531D01*
X148810401Y-75802531D02*
X148905639Y-75945388D01*
X148905639Y-75945388D02*
X149000877Y-76040626D01*
X149000877Y-76040626D02*
X149096115Y-76088245D01*
X157572306Y-78412475D02*
X158143734Y-78412475D01*
X157858020Y-78412475D02*
X157858020Y-77412475D01*
X157858020Y-77412475D02*
X157953258Y-77555332D01*
X157953258Y-77555332D02*
X158048496Y-77650570D01*
X158048496Y-77650570D02*
X158143734Y-77698189D01*
X157143734Y-78031522D02*
X156381830Y-78031522D01*
X155381830Y-78412475D02*
X155953258Y-78412475D01*
X155667544Y-78412475D02*
X155667544Y-77412475D01*
X155667544Y-77412475D02*
X155762782Y-77555332D01*
X155762782Y-77555332D02*
X155858020Y-77650570D01*
X155858020Y-77650570D02*
X155953258Y-77698189D01*
X154429449Y-78412475D02*
X155000877Y-78412475D01*
X154715163Y-78412475D02*
X154715163Y-77412475D01*
X154715163Y-77412475D02*
X154810401Y-77555332D01*
X154810401Y-77555332D02*
X154905639Y-77650570D01*
X154905639Y-77650570D02*
X155000877Y-77698189D01*
X154000877Y-78031522D02*
X153238973Y-78031522D01*
X152810401Y-77507713D02*
X152762782Y-77460094D01*
X152762782Y-77460094D02*
X152667544Y-77412475D01*
X152667544Y-77412475D02*
X152429449Y-77412475D01*
X152429449Y-77412475D02*
X152334211Y-77460094D01*
X152334211Y-77460094D02*
X152286592Y-77507713D01*
X152286592Y-77507713D02*
X152238973Y-77602951D01*
X152238973Y-77602951D02*
X152238973Y-77698189D01*
X152238973Y-77698189D02*
X152286592Y-77841046D01*
X152286592Y-77841046D02*
X152858020Y-78412475D01*
X152858020Y-78412475D02*
X152238973Y-78412475D01*
X151334211Y-77412475D02*
X151810401Y-77412475D01*
X151810401Y-77412475D02*
X151858020Y-77888665D01*
X151858020Y-77888665D02*
X151810401Y-77841046D01*
X151810401Y-77841046D02*
X151715163Y-77793427D01*
X151715163Y-77793427D02*
X151477068Y-77793427D01*
X151477068Y-77793427D02*
X151381830Y-77841046D01*
X151381830Y-77841046D02*
X151334211Y-77888665D01*
X151334211Y-77888665D02*
X151286592Y-77983903D01*
X151286592Y-77983903D02*
X151286592Y-78221998D01*
X151286592Y-78221998D02*
X151334211Y-78317236D01*
X151334211Y-78317236D02*
X151381830Y-78364856D01*
X151381830Y-78364856D02*
X151477068Y-78412475D01*
X151477068Y-78412475D02*
X151715163Y-78412475D01*
X151715163Y-78412475D02*
X151810401Y-78364856D01*
X151810401Y-78364856D02*
X151858020Y-78317236D01*
X158096115Y-80022419D02*
X158096115Y-79022419D01*
X158096115Y-79022419D02*
X157858020Y-79022419D01*
X157858020Y-79022419D02*
X157715163Y-79070038D01*
X157715163Y-79070038D02*
X157619925Y-79165276D01*
X157619925Y-79165276D02*
X157572306Y-79260514D01*
X157572306Y-79260514D02*
X157524687Y-79450990D01*
X157524687Y-79450990D02*
X157524687Y-79593847D01*
X157524687Y-79593847D02*
X157572306Y-79784323D01*
X157572306Y-79784323D02*
X157619925Y-79879561D01*
X157619925Y-79879561D02*
X157715163Y-79974800D01*
X157715163Y-79974800D02*
X157858020Y-80022419D01*
X157858020Y-80022419D02*
X158096115Y-80022419D01*
X156667544Y-80022419D02*
X156667544Y-79498609D01*
X156667544Y-79498609D02*
X156715163Y-79403371D01*
X156715163Y-79403371D02*
X156810401Y-79355752D01*
X156810401Y-79355752D02*
X157000877Y-79355752D01*
X157000877Y-79355752D02*
X157096115Y-79403371D01*
X156667544Y-79974800D02*
X156762782Y-80022419D01*
X156762782Y-80022419D02*
X157000877Y-80022419D01*
X157000877Y-80022419D02*
X157096115Y-79974800D01*
X157096115Y-79974800D02*
X157143734Y-79879561D01*
X157143734Y-79879561D02*
X157143734Y-79784323D01*
X157143734Y-79784323D02*
X157096115Y-79689085D01*
X157096115Y-79689085D02*
X157000877Y-79641466D01*
X157000877Y-79641466D02*
X156762782Y-79641466D01*
X156762782Y-79641466D02*
X156667544Y-79593847D01*
X156286591Y-79355752D02*
X156048496Y-80022419D01*
X156048496Y-80022419D02*
X155810401Y-79355752D01*
X155429448Y-80022419D02*
X155429448Y-79355752D01*
X155429448Y-79022419D02*
X155477067Y-79070038D01*
X155477067Y-79070038D02*
X155429448Y-79117657D01*
X155429448Y-79117657D02*
X155381829Y-79070038D01*
X155381829Y-79070038D02*
X155429448Y-79022419D01*
X155429448Y-79022419D02*
X155429448Y-79117657D01*
X154524687Y-80022419D02*
X154524687Y-79022419D01*
X154524687Y-79974800D02*
X154619925Y-80022419D01*
X154619925Y-80022419D02*
X154810401Y-80022419D01*
X154810401Y-80022419D02*
X154905639Y-79974800D01*
X154905639Y-79974800D02*
X154953258Y-79927180D01*
X154953258Y-79927180D02*
X155000877Y-79831942D01*
X155000877Y-79831942D02*
X155000877Y-79546228D01*
X155000877Y-79546228D02*
X154953258Y-79450990D01*
X154953258Y-79450990D02*
X154905639Y-79403371D01*
X154905639Y-79403371D02*
X154810401Y-79355752D01*
X154810401Y-79355752D02*
X154619925Y-79355752D01*
X154619925Y-79355752D02*
X154524687Y-79403371D01*
X153286591Y-79498609D02*
X152953258Y-79498609D01*
X152810401Y-80022419D02*
X153286591Y-80022419D01*
X153286591Y-80022419D02*
X153286591Y-79022419D01*
X153286591Y-79022419D02*
X152810401Y-79022419D01*
X152381829Y-79927180D02*
X152334210Y-79974800D01*
X152334210Y-79974800D02*
X152381829Y-80022419D01*
X152381829Y-80022419D02*
X152429448Y-79974800D01*
X152429448Y-79974800D02*
X152381829Y-79927180D01*
X152381829Y-79927180D02*
X152381829Y-80022419D01*
X151143734Y-80022419D02*
X151143734Y-79022419D01*
X151143734Y-79022419D02*
X150762782Y-79022419D01*
X150762782Y-79022419D02*
X150667544Y-79070038D01*
X150667544Y-79070038D02*
X150619925Y-79117657D01*
X150619925Y-79117657D02*
X150572306Y-79212895D01*
X150572306Y-79212895D02*
X150572306Y-79355752D01*
X150572306Y-79355752D02*
X150619925Y-79450990D01*
X150619925Y-79450990D02*
X150667544Y-79498609D01*
X150667544Y-79498609D02*
X150762782Y-79546228D01*
X150762782Y-79546228D02*
X151143734Y-79546228D01*
X150000877Y-80022419D02*
X150096115Y-79974800D01*
X150096115Y-79974800D02*
X150143734Y-79927180D01*
X150143734Y-79927180D02*
X150191353Y-79831942D01*
X150191353Y-79831942D02*
X150191353Y-79546228D01*
X150191353Y-79546228D02*
X150143734Y-79450990D01*
X150143734Y-79450990D02*
X150096115Y-79403371D01*
X150096115Y-79403371D02*
X150000877Y-79355752D01*
X150000877Y-79355752D02*
X149858020Y-79355752D01*
X149858020Y-79355752D02*
X149762782Y-79403371D01*
X149762782Y-79403371D02*
X149715163Y-79450990D01*
X149715163Y-79450990D02*
X149667544Y-79546228D01*
X149667544Y-79546228D02*
X149667544Y-79831942D01*
X149667544Y-79831942D02*
X149715163Y-79927180D01*
X149715163Y-79927180D02*
X149762782Y-79974800D01*
X149762782Y-79974800D02*
X149858020Y-80022419D01*
X149858020Y-80022419D02*
X150000877Y-80022419D01*
X149334210Y-79355752D02*
X149143734Y-80022419D01*
X149143734Y-80022419D02*
X148953258Y-79546228D01*
X148953258Y-79546228D02*
X148762782Y-80022419D01*
X148762782Y-80022419D02*
X148572306Y-79355752D01*
X147810401Y-79974800D02*
X147905639Y-80022419D01*
X147905639Y-80022419D02*
X148096115Y-80022419D01*
X148096115Y-80022419D02*
X148191353Y-79974800D01*
X148191353Y-79974800D02*
X148238972Y-79879561D01*
X148238972Y-79879561D02*
X148238972Y-79498609D01*
X148238972Y-79498609D02*
X148191353Y-79403371D01*
X148191353Y-79403371D02*
X148096115Y-79355752D01*
X148096115Y-79355752D02*
X147905639Y-79355752D01*
X147905639Y-79355752D02*
X147810401Y-79403371D01*
X147810401Y-79403371D02*
X147762782Y-79498609D01*
X147762782Y-79498609D02*
X147762782Y-79593847D01*
X147762782Y-79593847D02*
X148238972Y-79689085D01*
X147191353Y-80022419D02*
X147286591Y-79974800D01*
X147286591Y-79974800D02*
X147334210Y-79879561D01*
X147334210Y-79879561D02*
X147334210Y-79022419D01*
X146667543Y-80022419D02*
X146762781Y-79974800D01*
X146762781Y-79974800D02*
X146810400Y-79879561D01*
X146810400Y-79879561D02*
X146810400Y-79022419D01*
D10*
X123704510Y-120679400D02*
X124847368Y-120679400D01*
D12*
X143561904Y-129904819D02*
X143561904Y-130714342D01*
X143561904Y-130714342D02*
X143514285Y-130809580D01*
X143514285Y-130809580D02*
X143466666Y-130857200D01*
X143466666Y-130857200D02*
X143371428Y-130904819D01*
X143371428Y-130904819D02*
X143180952Y-130904819D01*
X143180952Y-130904819D02*
X143085714Y-130857200D01*
X143085714Y-130857200D02*
X143038095Y-130809580D01*
X143038095Y-130809580D02*
X142990476Y-130714342D01*
X142990476Y-130714342D02*
X142990476Y-129904819D01*
X142609523Y-129904819D02*
X141990476Y-129904819D01*
X141990476Y-129904819D02*
X142323809Y-130285771D01*
X142323809Y-130285771D02*
X142180952Y-130285771D01*
X142180952Y-130285771D02*
X142085714Y-130333390D01*
X142085714Y-130333390D02*
X142038095Y-130381009D01*
X142038095Y-130381009D02*
X141990476Y-130476247D01*
X141990476Y-130476247D02*
X141990476Y-130714342D01*
X141990476Y-130714342D02*
X142038095Y-130809580D01*
X142038095Y-130809580D02*
X142085714Y-130857200D01*
X142085714Y-130857200D02*
X142180952Y-130904819D01*
X142180952Y-130904819D02*
X142466666Y-130904819D01*
X142466666Y-130904819D02*
X142561904Y-130857200D01*
X142561904Y-130857200D02*
X142609523Y-130809580D01*
D11*
X141225200Y-125943734D02*
X141177580Y-125800877D01*
X141177580Y-125800877D02*
X141177580Y-125562782D01*
X141177580Y-125562782D02*
X141225200Y-125467544D01*
X141225200Y-125467544D02*
X141272819Y-125419925D01*
X141272819Y-125419925D02*
X141368057Y-125372306D01*
X141368057Y-125372306D02*
X141463295Y-125372306D01*
X141463295Y-125372306D02*
X141558533Y-125419925D01*
X141558533Y-125419925D02*
X141606152Y-125467544D01*
X141606152Y-125467544D02*
X141653771Y-125562782D01*
X141653771Y-125562782D02*
X141701390Y-125753258D01*
X141701390Y-125753258D02*
X141749009Y-125848496D01*
X141749009Y-125848496D02*
X141796628Y-125896115D01*
X141796628Y-125896115D02*
X141891866Y-125943734D01*
X141891866Y-125943734D02*
X141987104Y-125943734D01*
X141987104Y-125943734D02*
X142082342Y-125896115D01*
X142082342Y-125896115D02*
X142129961Y-125848496D01*
X142129961Y-125848496D02*
X142177580Y-125753258D01*
X142177580Y-125753258D02*
X142177580Y-125515163D01*
X142177580Y-125515163D02*
X142129961Y-125372306D01*
X141177580Y-124943734D02*
X142177580Y-124943734D01*
X142177580Y-124943734D02*
X142177580Y-124705639D01*
X142177580Y-124705639D02*
X142129961Y-124562782D01*
X142129961Y-124562782D02*
X142034723Y-124467544D01*
X142034723Y-124467544D02*
X141939485Y-124419925D01*
X141939485Y-124419925D02*
X141749009Y-124372306D01*
X141749009Y-124372306D02*
X141606152Y-124372306D01*
X141606152Y-124372306D02*
X141415676Y-124419925D01*
X141415676Y-124419925D02*
X141320438Y-124467544D01*
X141320438Y-124467544D02*
X141225200Y-124562782D01*
X141225200Y-124562782D02*
X141177580Y-124705639D01*
X141177580Y-124705639D02*
X141177580Y-124943734D01*
X141463295Y-123991353D02*
X141463295Y-123515163D01*
X141177580Y-124086591D02*
X142177580Y-123753258D01*
X142177580Y-123753258D02*
X141177580Y-123419925D01*
X149677580Y-126038972D02*
X148677580Y-125705639D01*
X148677580Y-125705639D02*
X149677580Y-125372306D01*
X148677580Y-125038972D02*
X149344247Y-125038972D01*
X149677580Y-125038972D02*
X149629961Y-125086591D01*
X149629961Y-125086591D02*
X149582342Y-125038972D01*
X149582342Y-125038972D02*
X149629961Y-124991353D01*
X149629961Y-124991353D02*
X149677580Y-125038972D01*
X149677580Y-125038972D02*
X149582342Y-125038972D01*
X149344247Y-124562782D02*
X148677580Y-124562782D01*
X149249009Y-124562782D02*
X149296628Y-124515163D01*
X149296628Y-124515163D02*
X149344247Y-124419925D01*
X149344247Y-124419925D02*
X149344247Y-124277068D01*
X149344247Y-124277068D02*
X149296628Y-124181830D01*
X149296628Y-124181830D02*
X149201390Y-124134211D01*
X149201390Y-124134211D02*
X148677580Y-124134211D01*
X137177580Y-125991353D02*
X136177580Y-125324687D01*
X137177580Y-125324687D02*
X136177580Y-125991353D01*
X136225200Y-124991353D02*
X136177580Y-124848496D01*
X136177580Y-124848496D02*
X136177580Y-124610401D01*
X136177580Y-124610401D02*
X136225200Y-124515163D01*
X136225200Y-124515163D02*
X136272819Y-124467544D01*
X136272819Y-124467544D02*
X136368057Y-124419925D01*
X136368057Y-124419925D02*
X136463295Y-124419925D01*
X136463295Y-124419925D02*
X136558533Y-124467544D01*
X136558533Y-124467544D02*
X136606152Y-124515163D01*
X136606152Y-124515163D02*
X136653771Y-124610401D01*
X136653771Y-124610401D02*
X136701390Y-124800877D01*
X136701390Y-124800877D02*
X136749009Y-124896115D01*
X136749009Y-124896115D02*
X136796628Y-124943734D01*
X136796628Y-124943734D02*
X136891866Y-124991353D01*
X136891866Y-124991353D02*
X136987104Y-124991353D01*
X136987104Y-124991353D02*
X137082342Y-124943734D01*
X137082342Y-124943734D02*
X137129961Y-124896115D01*
X137129961Y-124896115D02*
X137177580Y-124800877D01*
X137177580Y-124800877D02*
X137177580Y-124562782D01*
X137177580Y-124562782D02*
X137129961Y-124419925D01*
X136177580Y-123991353D02*
X137177580Y-123991353D01*
X136701390Y-123991353D02*
X136701390Y-123419925D01*
X136177580Y-123419925D02*
X137177580Y-123419925D01*
X137177580Y-122943734D02*
X136368057Y-122943734D01*
X136368057Y-122943734D02*
X136272819Y-122896115D01*
X136272819Y-122896115D02*
X136225200Y-122848496D01*
X136225200Y-122848496D02*
X136177580Y-122753258D01*
X136177580Y-122753258D02*
X136177580Y-122562782D01*
X136177580Y-122562782D02*
X136225200Y-122467544D01*
X136225200Y-122467544D02*
X136272819Y-122419925D01*
X136272819Y-122419925D02*
X136368057Y-122372306D01*
X136368057Y-122372306D02*
X137177580Y-122372306D01*
X137177580Y-122038972D02*
X137177580Y-121467544D01*
X136177580Y-121753258D02*
X137177580Y-121753258D01*
X139629961Y-125372306D02*
X139677580Y-125467544D01*
X139677580Y-125467544D02*
X139677580Y-125610401D01*
X139677580Y-125610401D02*
X139629961Y-125753258D01*
X139629961Y-125753258D02*
X139534723Y-125848496D01*
X139534723Y-125848496D02*
X139439485Y-125896115D01*
X139439485Y-125896115D02*
X139249009Y-125943734D01*
X139249009Y-125943734D02*
X139106152Y-125943734D01*
X139106152Y-125943734D02*
X138915676Y-125896115D01*
X138915676Y-125896115D02*
X138820438Y-125848496D01*
X138820438Y-125848496D02*
X138725200Y-125753258D01*
X138725200Y-125753258D02*
X138677580Y-125610401D01*
X138677580Y-125610401D02*
X138677580Y-125515163D01*
X138677580Y-125515163D02*
X138725200Y-125372306D01*
X138725200Y-125372306D02*
X138772819Y-125324687D01*
X138772819Y-125324687D02*
X139106152Y-125324687D01*
X139106152Y-125324687D02*
X139106152Y-125515163D01*
X138677580Y-124896115D02*
X139677580Y-124896115D01*
X139677580Y-124896115D02*
X139677580Y-124515163D01*
X139677580Y-124515163D02*
X139629961Y-124419925D01*
X139629961Y-124419925D02*
X139582342Y-124372306D01*
X139582342Y-124372306D02*
X139487104Y-124324687D01*
X139487104Y-124324687D02*
X139344247Y-124324687D01*
X139344247Y-124324687D02*
X139249009Y-124372306D01*
X139249009Y-124372306D02*
X139201390Y-124419925D01*
X139201390Y-124419925D02*
X139153771Y-124515163D01*
X139153771Y-124515163D02*
X139153771Y-124896115D01*
X138677580Y-123896115D02*
X139677580Y-123896115D01*
X139677580Y-123229449D02*
X139677580Y-123134211D01*
X139677580Y-123134211D02*
X139629961Y-123038973D01*
X139629961Y-123038973D02*
X139582342Y-122991354D01*
X139582342Y-122991354D02*
X139487104Y-122943735D01*
X139487104Y-122943735D02*
X139296628Y-122896116D01*
X139296628Y-122896116D02*
X139058533Y-122896116D01*
X139058533Y-122896116D02*
X138868057Y-122943735D01*
X138868057Y-122943735D02*
X138772819Y-122991354D01*
X138772819Y-122991354D02*
X138725200Y-123038973D01*
X138725200Y-123038973D02*
X138677580Y-123134211D01*
X138677580Y-123134211D02*
X138677580Y-123229449D01*
X138677580Y-123229449D02*
X138725200Y-123324687D01*
X138725200Y-123324687D02*
X138772819Y-123372306D01*
X138772819Y-123372306D02*
X138868057Y-123419925D01*
X138868057Y-123419925D02*
X139058533Y-123467544D01*
X139058533Y-123467544D02*
X139296628Y-123467544D01*
X139296628Y-123467544D02*
X139487104Y-123419925D01*
X139487104Y-123419925D02*
X139582342Y-123372306D01*
X139582342Y-123372306D02*
X139629961Y-123324687D01*
X139629961Y-123324687D02*
X139677580Y-123229449D01*
X138677580Y-121943735D02*
X138677580Y-122515163D01*
X138677580Y-122229449D02*
X139677580Y-122229449D01*
X139677580Y-122229449D02*
X139534723Y-122324687D01*
X139534723Y-122324687D02*
X139439485Y-122419925D01*
X139439485Y-122419925D02*
X139391866Y-122515163D01*
X147129961Y-125622306D02*
X147177580Y-125717544D01*
X147177580Y-125717544D02*
X147177580Y-125860401D01*
X147177580Y-125860401D02*
X147129961Y-126003258D01*
X147129961Y-126003258D02*
X147034723Y-126098496D01*
X147034723Y-126098496D02*
X146939485Y-126146115D01*
X146939485Y-126146115D02*
X146749009Y-126193734D01*
X146749009Y-126193734D02*
X146606152Y-126193734D01*
X146606152Y-126193734D02*
X146415676Y-126146115D01*
X146415676Y-126146115D02*
X146320438Y-126098496D01*
X146320438Y-126098496D02*
X146225200Y-126003258D01*
X146225200Y-126003258D02*
X146177580Y-125860401D01*
X146177580Y-125860401D02*
X146177580Y-125765163D01*
X146177580Y-125765163D02*
X146225200Y-125622306D01*
X146225200Y-125622306D02*
X146272819Y-125574687D01*
X146272819Y-125574687D02*
X146606152Y-125574687D01*
X146606152Y-125574687D02*
X146606152Y-125765163D01*
X146844247Y-125146115D02*
X146177580Y-125146115D01*
X146749009Y-125146115D02*
X146796628Y-125098496D01*
X146796628Y-125098496D02*
X146844247Y-125003258D01*
X146844247Y-125003258D02*
X146844247Y-124860401D01*
X146844247Y-124860401D02*
X146796628Y-124765163D01*
X146796628Y-124765163D02*
X146701390Y-124717544D01*
X146701390Y-124717544D02*
X146177580Y-124717544D01*
X146177580Y-123812782D02*
X147177580Y-123812782D01*
X146225200Y-123812782D02*
X146177580Y-123908020D01*
X146177580Y-123908020D02*
X146177580Y-124098496D01*
X146177580Y-124098496D02*
X146225200Y-124193734D01*
X146225200Y-124193734D02*
X146272819Y-124241353D01*
X146272819Y-124241353D02*
X146368057Y-124288972D01*
X146368057Y-124288972D02*
X146653771Y-124288972D01*
X146653771Y-124288972D02*
X146749009Y-124241353D01*
X146749009Y-124241353D02*
X146796628Y-124193734D01*
X146796628Y-124193734D02*
X146844247Y-124098496D01*
X146844247Y-124098496D02*
X146844247Y-123908020D01*
X146844247Y-123908020D02*
X146796628Y-123812782D01*
X143725200Y-125943734D02*
X143677580Y-125800877D01*
X143677580Y-125800877D02*
X143677580Y-125562782D01*
X143677580Y-125562782D02*
X143725200Y-125467544D01*
X143725200Y-125467544D02*
X143772819Y-125419925D01*
X143772819Y-125419925D02*
X143868057Y-125372306D01*
X143868057Y-125372306D02*
X143963295Y-125372306D01*
X143963295Y-125372306D02*
X144058533Y-125419925D01*
X144058533Y-125419925D02*
X144106152Y-125467544D01*
X144106152Y-125467544D02*
X144153771Y-125562782D01*
X144153771Y-125562782D02*
X144201390Y-125753258D01*
X144201390Y-125753258D02*
X144249009Y-125848496D01*
X144249009Y-125848496D02*
X144296628Y-125896115D01*
X144296628Y-125896115D02*
X144391866Y-125943734D01*
X144391866Y-125943734D02*
X144487104Y-125943734D01*
X144487104Y-125943734D02*
X144582342Y-125896115D01*
X144582342Y-125896115D02*
X144629961Y-125848496D01*
X144629961Y-125848496D02*
X144677580Y-125753258D01*
X144677580Y-125753258D02*
X144677580Y-125515163D01*
X144677580Y-125515163D02*
X144629961Y-125372306D01*
X143772819Y-124372306D02*
X143725200Y-124419925D01*
X143725200Y-124419925D02*
X143677580Y-124562782D01*
X143677580Y-124562782D02*
X143677580Y-124658020D01*
X143677580Y-124658020D02*
X143725200Y-124800877D01*
X143725200Y-124800877D02*
X143820438Y-124896115D01*
X143820438Y-124896115D02*
X143915676Y-124943734D01*
X143915676Y-124943734D02*
X144106152Y-124991353D01*
X144106152Y-124991353D02*
X144249009Y-124991353D01*
X144249009Y-124991353D02*
X144439485Y-124943734D01*
X144439485Y-124943734D02*
X144534723Y-124896115D01*
X144534723Y-124896115D02*
X144629961Y-124800877D01*
X144629961Y-124800877D02*
X144677580Y-124658020D01*
X144677580Y-124658020D02*
X144677580Y-124562782D01*
X144677580Y-124562782D02*
X144629961Y-124419925D01*
X144629961Y-124419925D02*
X144582342Y-124372306D01*
X143677580Y-123467544D02*
X143677580Y-123943734D01*
X143677580Y-123943734D02*
X144677580Y-123943734D01*
X124507419Y-116516666D02*
X125221704Y-116516666D01*
X125221704Y-116516666D02*
X125364561Y-116469047D01*
X125364561Y-116469047D02*
X125459800Y-116373809D01*
X125459800Y-116373809D02*
X125507419Y-116230952D01*
X125507419Y-116230952D02*
X125507419Y-116135714D01*
X125507419Y-117516666D02*
X125507419Y-116945238D01*
X125507419Y-117230952D02*
X124507419Y-117230952D01*
X124507419Y-117230952D02*
X124650276Y-117135714D01*
X124650276Y-117135714D02*
X124745514Y-117040476D01*
X124745514Y-117040476D02*
X124793133Y-116945238D01*
D13*
%TO.C,U3*%
X135550000Y-118200000D02*
X135550000Y-121200000D01*
X135550000Y-118200000D02*
X150050000Y-118200000D01*
D11*
X135550000Y-121200000D02*
X133300000Y-121200000D01*
X135550000Y-126200000D02*
X133300000Y-126200000D01*
X135550000Y-126200000D02*
X135550000Y-129200000D01*
D13*
X150050000Y-118200000D02*
X150050000Y-121200000D01*
D11*
X150050000Y-121200000D02*
X152300000Y-121200000D01*
X150050000Y-126200000D02*
X150050000Y-129200000D01*
X150050000Y-126200000D02*
X152350000Y-126200000D01*
D13*
X150050000Y-129200000D02*
X135550000Y-129200000D01*
D11*
X133300000Y-126200000D02*
G75*
G02*
X133300000Y-121200000I0J2500000D01*
G01*
X152300000Y-121200000D02*
G75*
G02*
X152300000Y-126200000I0J-2500000D01*
G01*
X134550000Y-123700000D02*
G75*
G02*
X132050000Y-123700000I-1250000J0D01*
G01*
X132050000Y-123700000D02*
G75*
G02*
X134550000Y-123700000I1250000J0D01*
G01*
X153550000Y-123700000D02*
G75*
G02*
X151050000Y-123700000I-1250000J0D01*
G01*
X151050000Y-123700000D02*
G75*
G02*
X153550000Y-123700000I1250000J0D01*
G01*
%TO.C,J1*%
X123475000Y-113425000D02*
X130225000Y-113425000D01*
X130225000Y-120175000D01*
X123475000Y-120175000D01*
X123475000Y-113425000D01*
%TD*%
M02*
