%TF.GenerationSoftware,KiCad,Pcbnew,8.0.8-unknown-202501170223~559b1827ca~ubuntu24.04.1*%
%TF.CreationDate,2025-02-03T18:23:23-05:00*%
%TF.ProjectId,delivery-box-reporter-lora,64656c69-7665-4727-992d-626f782d7265,rev?*%
%TF.SameCoordinates,Original*%
%TF.FileFunction,Profile,NP*%
%FSLAX46Y46*%
G04 Gerber Fmt 4.6, Leading zero omitted, Abs format (unit mm)*
G04 Created by KiCad (PCBNEW 8.0.8-unknown-202501170223~559b1827ca~ubuntu24.04.1) date 2025-02-03 18:23:23*
%MOMM*%
%LPD*%
G01*
G04 APERTURE LIST*
%TA.AperFunction,Profile*%
%ADD10C,0.050000*%
%TD*%
G04 APERTURE END LIST*
D10*
X122800000Y-56275000D02*
X122800000Y-55275000D01*
X162800000Y-129900000D02*
X122800000Y-129900000D01*
X87210000Y-105240000D02*
X87210000Y-55610000D01*
X163100000Y-55300000D02*
X162800000Y-77900000D01*
X122800000Y-55275000D02*
X163100000Y-55300000D01*
X117065000Y-55610000D02*
X117065000Y-105240000D01*
X160850000Y-89900000D02*
G75*
G02*
X159850000Y-88900000I0J1000000D01*
G01*
X159850000Y-78900000D02*
X159850000Y-88900000D01*
X162800000Y-89900000D02*
X162800000Y-129900000D01*
X122800000Y-129900000D02*
X122800000Y-104910000D01*
X159850000Y-78900000D02*
G75*
G02*
X160850000Y-77900000I1000000J0D01*
G01*
X122800000Y-104910000D02*
X122800000Y-56275000D01*
X134400000Y-123700000D02*
G75*
G02*
X132200000Y-123700000I-1100000J0D01*
G01*
X132200000Y-123700000D02*
G75*
G02*
X134400000Y-123700000I1100000J0D01*
G01*
X162800000Y-89900000D02*
X160850000Y-89900000D01*
X162800000Y-77900000D02*
X160850000Y-77900000D01*
X87210000Y-55610000D02*
X117065000Y-55610000D01*
X153400000Y-123700000D02*
G75*
G02*
X151200000Y-123700000I-1100000J0D01*
G01*
X151200000Y-123700000D02*
G75*
G02*
X153400000Y-123700000I1100000J0D01*
G01*
X117065000Y-105240000D02*
X87210000Y-105240000D01*
M02*
