M48
; DRILL file {KiCad 8.0.8-unknown-202501170223~559b1827ca~ubuntu24.04.1} date 2025-02-03T18:23:19-0500
; FORMAT={-:-/ absolute / inch / decimal}
; #@! TF.CreationDate,2025-02-03T18:23:19-05:00
; #@! TF.GenerationSoftware,Kicad,Pcbnew,8.0.8-unknown-202501170223~559b1827ca~ubuntu24.04.1
; #@! TF.FileFunction,Plated,1,2,PTH
FMAT,2
INCH
; #@! TA.AperFunction,Plated,PTH,ComponentDrill
T1C0.0295
; #@! TA.AperFunction,Plated,PTH,ComponentDrill
T2C0.0394
%
G90
G05
T1
X6.147Y-4.5925
X6.197Y-4.5925
X6.247Y-4.5925
T2
X3.5742Y-3.1047
X3.5742Y-3.2047
X3.5742Y-3.3047
X3.5742Y-3.4047
X3.5742Y-3.5047
X3.5742Y-3.6047
X3.5742Y-3.7047
X3.5742Y-3.8047
X3.825Y-2.6087
X3.925Y-2.6087
X4.025Y-2.6087
X4.125Y-2.6087
X4.225Y-2.6087
X4.4742Y-3.1047
X4.4742Y-3.2047
X4.4742Y-3.3047
X4.4742Y-3.4047
X4.4742Y-3.5047
X4.4742Y-3.6047
X4.4742Y-3.7047
X4.4742Y-3.8047
X4.9291Y-4.015
X4.9291Y-4.115
X4.9291Y-4.215
X4.9291Y-4.315
X4.9941Y-4.5295
X4.9941Y-4.6673
X5.2614Y-2.848
X5.2614Y-3.748
X5.3614Y-2.848
X5.3614Y-3.748
X5.372Y-4.7028
X5.372Y-5.0374
X5.4614Y-2.848
X5.4614Y-3.748
X5.472Y-4.7028
X5.472Y-5.0374
X5.5614Y-2.848
X5.5614Y-3.748
X5.572Y-4.7028
X5.572Y-5.0374
X5.6614Y-2.848
X5.6614Y-3.748
X5.672Y-4.7028
X5.672Y-5.0374
X5.7614Y-2.848
X5.7614Y-3.748
X5.772Y-4.7028
X5.772Y-5.0374
X5.8614Y-2.848
X5.8614Y-3.748
X5.8642Y-2.6122
X5.872Y-4.7028
X5.872Y-5.0374
X5.9614Y-2.848
X5.9614Y-3.748
X5.9642Y-2.6122
X6.0642Y-2.6122
X6.1642Y-2.6122
X6.2642Y-2.6122
M30
