%TF.GenerationSoftware,KiCad,Pcbnew,8.0.7-unknown-202501031822~9d36205ced~ubuntu24.04.1*%
%TF.CreationDate,2025-01-11T19:30:58-05:00*%
%TF.ProjectId,delivery-box-reporter-lora,64656c69-7665-4727-992d-626f782d7265,rev?*%
%TF.SameCoordinates,Original*%
%TF.FileFunction,Copper,L1,Top*%
%TF.FilePolarity,Positive*%
%FSLAX46Y46*%
G04 Gerber Fmt 4.6, Leading zero omitted, Abs format (unit mm)*
G04 Created by KiCad (PCBNEW 8.0.7-unknown-202501031822~9d36205ced~ubuntu24.04.1) date 2025-01-11 19:30:58*
%MOMM*%
%LPD*%
G01*
G04 APERTURE LIST*
G04 Aperture macros list*
%AMRoundRect*
0 Rectangle with rounded corners*
0 $1 Rounding radius*
0 $2 $3 $4 $5 $6 $7 $8 $9 X,Y pos of 4 corners*
0 Add a 4 corners polygon primitive as box body*
4,1,4,$2,$3,$4,$5,$6,$7,$8,$9,$2,$3,0*
0 Add four circle primitives for the rounded corners*
1,1,$1+$1,$2,$3*
1,1,$1+$1,$4,$5*
1,1,$1+$1,$6,$7*
1,1,$1+$1,$8,$9*
0 Add four rect primitives between the rounded corners*
20,1,$1+$1,$2,$3,$4,$5,0*
20,1,$1+$1,$4,$5,$6,$7,0*
20,1,$1+$1,$6,$7,$8,$9,0*
20,1,$1+$1,$8,$9,$2,$3,0*%
G04 Aperture macros list end*
%TA.AperFunction,ComponentPad*%
%ADD10R,2.000000X1.600000*%
%TD*%
%TA.AperFunction,ComponentPad*%
%ADD11O,2.000000X1.600000*%
%TD*%
%TA.AperFunction,SMDPad,CuDef*%
%ADD12RoundRect,0.250000X-0.262500X-0.450000X0.262500X-0.450000X0.262500X0.450000X-0.262500X0.450000X0*%
%TD*%
%TA.AperFunction,ComponentPad*%
%ADD13R,1.700000X1.700000*%
%TD*%
%TA.AperFunction,ComponentPad*%
%ADD14O,1.700000X1.700000*%
%TD*%
%TA.AperFunction,ComponentPad*%
%ADD15R,1.050000X1.500000*%
%TD*%
%TA.AperFunction,ComponentPad*%
%ADD16O,1.050000X1.500000*%
%TD*%
%TA.AperFunction,SMDPad,CuDef*%
%ADD17RoundRect,0.150000X-0.587500X-0.150000X0.587500X-0.150000X0.587500X0.150000X-0.587500X0.150000X0*%
%TD*%
%TA.AperFunction,ComponentPad*%
%ADD18R,2.000000X2.000000*%
%TD*%
%TA.AperFunction,ComponentPad*%
%ADD19O,1.600000X2.000000*%
%TD*%
%TA.AperFunction,SMDPad,CuDef*%
%ADD20RoundRect,0.250000X0.375000X0.625000X-0.375000X0.625000X-0.375000X-0.625000X0.375000X-0.625000X0*%
%TD*%
%TA.AperFunction,SMDPad,CuDef*%
%ADD21RoundRect,0.150000X-0.512500X-0.150000X0.512500X-0.150000X0.512500X0.150000X-0.512500X0.150000X0*%
%TD*%
%TA.AperFunction,ComponentPad*%
%ADD22O,1.500000X2.000000*%
%TD*%
%TA.AperFunction,ComponentPad*%
%ADD23R,1.524000X1.524000*%
%TD*%
%TA.AperFunction,ComponentPad*%
%ADD24C,1.524000*%
%TD*%
%TA.AperFunction,Conductor*%
%ADD25C,0.200000*%
%TD*%
G04 APERTURE END LIST*
D10*
%TO.P,DISP1,1,Gnd*%
%TO.N,Net-(DISP1-Gnd)*%
X125200000Y-109600000D03*
D11*
%TO.P,DISP1,2,Vcc*%
%TO.N,+3.3V*%
X125200000Y-107060000D03*
%TO.P,DISP1,3,SCL*%
%TO.N,Net-(DISP1-SCL)*%
X125200000Y-104520000D03*
%TO.P,DISP1,4,SDA*%
%TO.N,Net-(DISP1-SDA)*%
X125200000Y-101980000D03*
%TD*%
D12*
%TO.P,R2,1*%
%TO.N,Net-(Q2-B)*%
X142575000Y-115150000D03*
%TO.P,R2,2*%
%TO.N,Net-(U1-MOSI{slash}D7)*%
X144400000Y-115150000D03*
%TD*%
D13*
%TO.P,U8,1,3.3v*%
%TO.N,/Receiver/3v3B*%
X112370000Y-65930000D03*
D14*
%TO.P,U8,2,RST*%
%TO.N,unconnected-(U8-RST-Pad2)*%
X109830000Y-65930000D03*
%TO.P,U8,3,RX*%
%TO.N,/Receiver/SS TX*%
X107290000Y-65930000D03*
%TO.P,U8,4,TX*%
%TO.N,/Receiver/SS RX*%
X104750000Y-65930000D03*
%TO.P,U8,5,GND*%
%TO.N,Net-(U7-GND)*%
X102210000Y-65930000D03*
%TD*%
D15*
%TO.P,U5,1,GND*%
%TO.N,Earth*%
X156135000Y-116650000D03*
D16*
%TO.P,U5,2,VI*%
%TO.N,Net-(J1-Pin_1)*%
X157405000Y-116650000D03*
%TO.P,U5,3,VO*%
%TO.N,+3.3V*%
X158675000Y-116650000D03*
%TD*%
D17*
%TO.P,U4,1,RESET*%
%TO.N,Net-(D1-A)*%
X156675000Y-121850000D03*
%TO.P,U4,2,V_{DD}*%
%TO.N,+3.3V*%
X156675000Y-123750000D03*
%TO.P,U4,3,GND*%
%TO.N,Earth*%
X158550000Y-122800000D03*
%TD*%
D13*
%TO.P,U6,1,3.3v*%
%TO.N,+3.3V*%
X159110000Y-66350000D03*
D14*
%TO.P,U6,2,RST*%
%TO.N,unconnected-(U6-RST-Pad2)*%
X156570000Y-66350000D03*
%TO.P,U6,3,RX*%
%TO.N,/SS TX*%
X154030000Y-66350000D03*
%TO.P,U6,4,TX*%
%TO.N,/SS RX*%
X151490000Y-66350000D03*
%TO.P,U6,5,GND*%
%TO.N,Earth*%
X148950000Y-66350000D03*
%TD*%
D12*
%TO.P,R1,1*%
%TO.N,Earth*%
X131475000Y-119200000D03*
%TO.P,R1,2*%
%TO.N,Net-(U1-CS{slash}D8)*%
X133300000Y-119200000D03*
%TD*%
%TO.P,R3,1*%
%TO.N,Earth*%
X136750000Y-116600000D03*
%TO.P,R3,2*%
%TO.N,Net-(Q2-B)*%
X138575000Y-116600000D03*
%TD*%
D18*
%TO.P,U7,1,~{RST}*%
%TO.N,unconnected-(U7-~{RST}-Pad1)*%
X95840000Y-78530000D03*
D11*
%TO.P,U7,2,A0*%
%TO.N,unconnected-(U7-A0-Pad2)*%
X95840000Y-81070000D03*
%TO.P,U7,3,D0*%
%TO.N,unconnected-(U7-D0-Pad3)*%
X95840000Y-83610000D03*
%TO.P,U7,4,SCK/D5*%
%TO.N,/Receiver/SS RX*%
X95840000Y-86150000D03*
%TO.P,U7,5,MISO/D6*%
%TO.N,/Receiver/SS TX*%
X95840000Y-88690000D03*
%TO.P,U7,6,MOSI/D7*%
%TO.N,unconnected-(U7-MOSI{slash}D7-Pad6)*%
X95840000Y-91230000D03*
%TO.P,U7,7,CS/D8*%
%TO.N,unconnected-(U7-CS{slash}D8-Pad7)*%
X95840000Y-93770000D03*
%TO.P,U7,8,3V3*%
%TO.N,/Receiver/3v3B*%
X95840000Y-96310000D03*
%TO.P,U7,9,5V*%
%TO.N,unconnected-(U7-5V-Pad9)*%
X118700000Y-96310000D03*
%TO.P,U7,10,GND*%
%TO.N,Net-(U7-GND)*%
X118700000Y-93770000D03*
%TO.P,U7,11,D4*%
%TO.N,unconnected-(U7-D4-Pad11)*%
X118700000Y-91230000D03*
%TO.P,U7,12,D3*%
%TO.N,unconnected-(U7-D3-Pad12)*%
X118700000Y-88690000D03*
%TO.P,U7,13,SDA/D2*%
%TO.N,unconnected-(U7-SDA{slash}D2-Pad13)*%
X118700000Y-86150000D03*
%TO.P,U7,14,SCL/D1*%
%TO.N,unconnected-(U7-SCL{slash}D1-Pad14)*%
X118700000Y-83610000D03*
%TO.P,U7,15,RX*%
%TO.N,unconnected-(U7-RX-Pad15)*%
X118700000Y-81070000D03*
%TO.P,U7,16,TX*%
%TO.N,unconnected-(U7-TX-Pad16)*%
X118700000Y-78530000D03*
%TD*%
D18*
%TO.P,U1,1,~{RST}*%
%TO.N,Net-(D1-A)*%
X133640000Y-95200000D03*
D19*
%TO.P,U1,2,A0*%
%TO.N,unconnected-(U1-A0-Pad2)*%
X136180000Y-95200000D03*
%TO.P,U1,3,D0*%
%TO.N,Net-(D1-K)*%
X138720000Y-95200000D03*
%TO.P,U1,4,SCK/D5*%
%TO.N,/SS RX*%
X141260000Y-95200000D03*
%TO.P,U1,5,MISO/D6*%
%TO.N,/SS TX*%
X143800000Y-95200000D03*
%TO.P,U1,6,MOSI/D7*%
%TO.N,Net-(U1-MOSI{slash}D7)*%
X146340000Y-95200000D03*
%TO.P,U1,7,CS/D8*%
%TO.N,Net-(U1-CS{slash}D8)*%
X148880000Y-95200000D03*
%TO.P,U1,8,3V3*%
%TO.N,+3.3V*%
X151420000Y-95200000D03*
%TO.P,U1,9,5V*%
%TO.N,unconnected-(U1-5V-Pad9)*%
X151420000Y-72340000D03*
%TO.P,U1,10,GND*%
%TO.N,Earth*%
X148880000Y-72340000D03*
%TO.P,U1,11,D4*%
%TO.N,unconnected-(U1-D4-Pad11)*%
X146340000Y-72340000D03*
%TO.P,U1,12,D3*%
%TO.N,unconnected-(U1-D3-Pad12)*%
X143800000Y-72340000D03*
%TO.P,U1,13,SDA/D2*%
%TO.N,Net-(DISP1-SDA)*%
X141260000Y-72340000D03*
%TO.P,U1,14,SCL/D1*%
%TO.N,Net-(DISP1-SCL)*%
X138720000Y-72340000D03*
%TO.P,U1,15,RX*%
%TO.N,unconnected-(U1-RX-Pad15)*%
X136180000Y-72340000D03*
%TO.P,U1,16,TX*%
%TO.N,unconnected-(U1-TX-Pad16)*%
X133640000Y-72340000D03*
%TD*%
D20*
%TO.P,D1,1,K*%
%TO.N,Net-(D1-K)*%
X138287500Y-98200000D03*
%TO.P,D1,2,A*%
%TO.N,Net-(D1-A)*%
X135487500Y-98200000D03*
%TD*%
D21*
%TO.P,Q2,1,B*%
%TO.N,Net-(Q2-B)*%
X131675000Y-114500000D03*
%TO.P,Q2,2,E*%
%TO.N,Earth*%
X131675000Y-116400000D03*
%TO.P,Q2,3,C*%
%TO.N,Net-(DISP1-Gnd)*%
X133950000Y-115450000D03*
%TD*%
D13*
%TO.P,U3,1,Vin*%
%TO.N,+3.3V*%
X149150000Y-119450000D03*
D22*
%TO.P,U3,2,GND*%
%TO.N,Earth*%
X146610000Y-119450000D03*
%TO.P,U3,3,SCL*%
%TO.N,Net-(DISP1-SCL)*%
X144070000Y-119450000D03*
%TO.P,U3,4,SDA*%
%TO.N,Net-(DISP1-SDA)*%
X141530000Y-119450000D03*
%TO.P,U3,5,GPIO1*%
%TO.N,unconnected-(U3-GPIO1-Pad5)*%
X138990000Y-119450000D03*
%TO.P,U3,6,XSHUT*%
%TO.N,Net-(U1-CS{slash}D8)*%
X136450000Y-119450000D03*
%TD*%
D13*
%TO.P,U3,1,Vin*%
%TO.N,+3.3V*%
X149150000Y-127950000D03*
D22*
%TO.P,U3,2,GND*%
%TO.N,Earth*%
X146610000Y-127950000D03*
%TO.P,U3,3,SCL*%
%TO.N,Net-(DISP1-SCL)*%
X144070000Y-127950000D03*
%TO.P,U3,4,SDA*%
%TO.N,Net-(DISP1-SDA)*%
X141530000Y-127950000D03*
%TO.P,U3,5,GPIO1*%
%TO.N,unconnected-(U3-GPIO1-Pad5)*%
X138990000Y-127950000D03*
%TO.P,U3,6,XSHUT*%
%TO.N,Net-(U1-CS{slash}D8)*%
X136450000Y-127950000D03*
%TD*%
D23*
%TO.P,J1,1,Pin_1*%
%TO.N,Net-(J1-Pin_1)*%
X126850000Y-115050000D03*
D24*
%TO.P,J1,2,Pin_2*%
%TO.N,Earth*%
X126850000Y-118550000D03*
%TD*%
D25*
%TO.N,Net-(D1-K)*%
X138720000Y-95200000D02*
X138720000Y-97280000D01*
X138720000Y-97280000D02*
X137800000Y-98200000D01*
%TO.N,Net-(D1-A)*%
X142700000Y-98350000D02*
X141450000Y-99600000D01*
X151641321Y-93100000D02*
X144144365Y-93100000D01*
X156675000Y-122371948D02*
X157703052Y-123400000D01*
X135487500Y-97047500D02*
X133640000Y-95200000D01*
X142700000Y-94544365D02*
X142700000Y-98350000D01*
X141450000Y-99600000D02*
X136887500Y-99600000D01*
X135487500Y-98200000D02*
X135487500Y-97047500D01*
X157703052Y-123400000D02*
X159328052Y-123400000D01*
X159587500Y-101046179D02*
X151641321Y-93100000D01*
X159587500Y-123140552D02*
X159587500Y-101046179D01*
X144144365Y-93100000D02*
X142700000Y-94544365D01*
X156675000Y-121850000D02*
X156675000Y-122371948D01*
X159328052Y-123400000D02*
X159587500Y-123140552D01*
X136887500Y-99600000D02*
X135487500Y-98200000D01*
%TO.N,Earth*%
X158550000Y-120950000D02*
X156135000Y-118535000D01*
X158550000Y-122800000D02*
X158550000Y-120950000D01*
X131475000Y-119200000D02*
X131475000Y-124375000D01*
X126800000Y-118550000D02*
X130825000Y-118550000D01*
X131675000Y-116400000D02*
X131700000Y-116400000D01*
X148950000Y-66350000D02*
X148950000Y-72270000D01*
X156135000Y-118535000D02*
X156135000Y-116650000D01*
X132500000Y-125400000D02*
X142600000Y-125400000D01*
X131475000Y-124375000D02*
X132500000Y-125400000D01*
X146610000Y-121390000D02*
X146610000Y-119450000D01*
X148950000Y-72270000D02*
X148880000Y-72340000D01*
X130825000Y-118550000D02*
X131475000Y-119200000D01*
X131475000Y-116600000D02*
X131675000Y-116400000D01*
X131475000Y-119200000D02*
X131475000Y-116600000D01*
X131900000Y-116600000D02*
X136750000Y-116600000D01*
X142600000Y-125400000D02*
X146610000Y-121390000D01*
X131700000Y-116400000D02*
X131900000Y-116600000D01*
%TO.N,Net-(Q2-B)*%
X141125000Y-116600000D02*
X142575000Y-115150000D01*
X138575000Y-116600000D02*
X141125000Y-116600000D01*
X136475000Y-114500000D02*
X138575000Y-116600000D01*
X131675000Y-114500000D02*
X136475000Y-114500000D01*
%TO.N,Net-(DISP1-Gnd)*%
X131050000Y-115450000D02*
X125200000Y-109600000D01*
X133950000Y-115450000D02*
X131050000Y-115450000D01*
%TO.N,Net-(U1-MOSI{slash}D7)*%
X146340000Y-106660000D02*
X146340000Y-95200000D01*
X144400000Y-108600000D02*
X146340000Y-106660000D01*
X144400000Y-115150000D02*
X144400000Y-108600000D01*
%TO.N,+3.3V*%
X159110000Y-66350000D02*
X159110000Y-100002993D01*
X152375000Y-119450000D02*
X149150000Y-119450000D01*
X155350000Y-127950000D02*
X149150000Y-127950000D01*
X160450000Y-122850000D02*
X155350000Y-127950000D01*
X158550000Y-116775000D02*
X158675000Y-116650000D01*
X159110000Y-100002993D02*
X160450000Y-101342993D01*
X149150000Y-118350000D02*
X151420000Y-116080000D01*
X151420000Y-116080000D02*
X151420000Y-116000000D01*
X123773067Y-126173067D02*
X144826933Y-126173067D01*
X149150000Y-121850000D02*
X149150000Y-119450000D01*
X156675000Y-123750000D02*
X152375000Y-119450000D01*
X151420000Y-116000000D02*
X151420000Y-95200000D01*
X125200000Y-107060000D02*
X125060000Y-107200000D01*
X123600000Y-126000000D02*
X123773067Y-126173067D01*
X149150000Y-119450000D02*
X149150000Y-118350000D01*
X123600000Y-107900000D02*
X123600000Y-126000000D01*
X144826933Y-126173067D02*
X149150000Y-121850000D01*
X124300000Y-107200000D02*
X123600000Y-107900000D01*
X160450000Y-101342993D02*
X160450000Y-122850000D01*
X125060000Y-107200000D02*
X124300000Y-107200000D01*
%TO.N,Net-(DISP1-SCL)*%
X124400000Y-70600000D02*
X137600000Y-70600000D01*
X124138000Y-103458000D02*
X124138000Y-70862000D01*
X124138000Y-70862000D02*
X124400000Y-70600000D01*
X138720000Y-71720000D02*
X138720000Y-72340000D01*
X137600000Y-70600000D02*
X138720000Y-71720000D01*
X125200000Y-104520000D02*
X124138000Y-103458000D01*
%TO.N,Net-(U1-CS{slash}D8)*%
X142800000Y-120240440D02*
X142040440Y-121000000D01*
X148880000Y-95200000D02*
X148880000Y-112671155D01*
X142800000Y-118751155D02*
X142800000Y-120240440D01*
X136200000Y-119200000D02*
X136450000Y-119450000D01*
X133300000Y-119200000D02*
X136200000Y-119200000D01*
X142040440Y-121000000D02*
X138000000Y-121000000D01*
X148880000Y-112671155D02*
X142800000Y-118751155D01*
X138000000Y-121000000D02*
X136450000Y-119450000D01*
%TO.N,Net-(DISP1-SDA)*%
X141050000Y-118970000D02*
X141530000Y-119450000D01*
X125200000Y-101980000D02*
X127020000Y-101980000D01*
X141260000Y-81160000D02*
X141260000Y-72340000D01*
X141300000Y-81200000D02*
X141260000Y-81160000D01*
X132300000Y-96700000D02*
X132300000Y-93200000D01*
X126277630Y-101980000D02*
X135297630Y-111000000D01*
X140250000Y-111000000D02*
X143387500Y-114137500D01*
X143387500Y-117592500D02*
X141530000Y-119450000D01*
X125200000Y-101980000D02*
X126277630Y-101980000D01*
X127020000Y-101980000D02*
X132300000Y-96700000D01*
X135297630Y-111000000D02*
X140250000Y-111000000D01*
X132300000Y-93200000D02*
X141300000Y-84200000D01*
X143387500Y-114137500D02*
X143387500Y-117592500D01*
X141300000Y-84200000D02*
X141300000Y-81200000D01*
%TO.N,/SS RX*%
X153200000Y-68060000D02*
X153200000Y-83260000D01*
X153200000Y-83260000D02*
X141260000Y-95200000D01*
X151490000Y-66350000D02*
X153200000Y-68060000D01*
%TD*%
M02*
