%TF.GenerationSoftware,KiCad,Pcbnew,8.0.8-unknown-202501170223~559b1827ca~ubuntu24.04.1*%
%TF.CreationDate,2025-02-03T18:23:22-05:00*%
%TF.ProjectId,delivery-box-reporter-lora,64656c69-7665-4727-992d-626f782d7265,rev?*%
%TF.SameCoordinates,Original*%
%TF.FileFunction,Copper,L2,Bot*%
%TF.FilePolarity,Positive*%
%FSLAX46Y46*%
G04 Gerber Fmt 4.6, Leading zero omitted, Abs format (unit mm)*
G04 Created by KiCad (PCBNEW 8.0.8-unknown-202501170223~559b1827ca~ubuntu24.04.1) date 2025-02-03 18:23:22*
%MOMM*%
%LPD*%
G01*
G04 APERTURE LIST*
%TA.AperFunction,ComponentPad*%
%ADD10R,1.600000X1.700000*%
%TD*%
%TA.AperFunction,ComponentPad*%
%ADD11O,1.500000X2.000000*%
%TD*%
%TA.AperFunction,ComponentPad*%
%ADD12R,1.700000X1.700000*%
%TD*%
%TA.AperFunction,ComponentPad*%
%ADD13O,1.700000X1.700000*%
%TD*%
%TA.AperFunction,ComponentPad*%
%ADD14R,1.050000X1.500000*%
%TD*%
%TA.AperFunction,ComponentPad*%
%ADD15O,1.050000X1.500000*%
%TD*%
%TA.AperFunction,ComponentPad*%
%ADD16R,2.000000X2.000000*%
%TD*%
%TA.AperFunction,ComponentPad*%
%ADD17O,2.000000X1.600000*%
%TD*%
%TA.AperFunction,ComponentPad*%
%ADD18R,2.000000X1.600000*%
%TD*%
%TA.AperFunction,ComponentPad*%
%ADD19O,1.600000X2.000000*%
%TD*%
%TA.AperFunction,ComponentPad*%
%ADD20R,1.524000X1.524000*%
%TD*%
%TA.AperFunction,ComponentPad*%
%ADD21C,1.524000*%
%TD*%
%TA.AperFunction,Conductor*%
%ADD22C,0.200000*%
%TD*%
G04 APERTURE END LIST*
D10*
%TO.P,U3,1,Vin*%
%TO.N,+3.3V*%
X149150000Y-119450000D03*
D11*
%TO.P,U3,2,GND*%
%TO.N,Earth*%
X146610000Y-119450000D03*
%TO.P,U3,3,SCL*%
%TO.N,Net-(DISP1-SCL)*%
X144070000Y-119450000D03*
%TO.P,U3,4,SDA*%
%TO.N,Net-(DISP1-SDA)*%
X141530000Y-119450000D03*
%TO.P,U3,5,GPIO1*%
%TO.N,unconnected-(U3-GPIO1-Pad5)*%
X138990000Y-119450000D03*
%TO.P,U3,6,XSHUT*%
%TO.N,Net-(U1-CS{slash}D8)*%
X136450000Y-119450000D03*
%TD*%
D10*
%TO.P,U3,1,Vin*%
%TO.N,+3.3V*%
X149150000Y-127950000D03*
D11*
%TO.P,U3,2,GND*%
%TO.N,Earth*%
X146610000Y-127950000D03*
%TO.P,U3,3,SCL*%
%TO.N,Net-(DISP1-SCL)*%
X144070000Y-127950000D03*
%TO.P,U3,4,SDA*%
%TO.N,Net-(DISP1-SDA)*%
X141530000Y-127950000D03*
%TO.P,U3,5,GPIO1*%
%TO.N,unconnected-(U3-GPIO1-Pad5)*%
X138990000Y-127950000D03*
%TO.P,U3,6,XSHUT*%
%TO.N,Net-(U1-CS{slash}D8)*%
X136450000Y-127950000D03*
%TD*%
D12*
%TO.P,U8,1,GND*%
%TO.N,Net-(U7-GND)*%
X107315000Y-66260000D03*
D13*
%TO.P,U8,2,TX*%
%TO.N,/Receiver/SS RX*%
X104775000Y-66260000D03*
%TO.P,U8,3,RX*%
%TO.N,/Receiver/SS TX*%
X102235000Y-66260000D03*
%TO.P,U8,4,RST*%
%TO.N,unconnected-(U8-RST-Pad4)*%
X99695000Y-66260000D03*
%TO.P,U8,5,3.3v*%
%TO.N,/Receiver/3v3B*%
X97155000Y-66260000D03*
%TD*%
D14*
%TO.P,U5,1,GND*%
%TO.N,Earth*%
X156135000Y-116650000D03*
D15*
%TO.P,U5,2,VI*%
%TO.N,Net-(J1-Pin_1)*%
X157405000Y-116650000D03*
%TO.P,U5,3,VO*%
%TO.N,+3.3V*%
X158675000Y-116650000D03*
%TD*%
D12*
%TO.P,U6,1,GND*%
%TO.N,Earth*%
X159110000Y-66350000D03*
D13*
%TO.P,U6,2,TX*%
%TO.N,/SS RX*%
X156570000Y-66350000D03*
%TO.P,U6,3,RX*%
%TO.N,/SS TX*%
X154030000Y-66350000D03*
%TO.P,U6,4,RST*%
%TO.N,unconnected-(U6-RST-Pad4)*%
X151490000Y-66350000D03*
%TO.P,U6,5,3.3v*%
%TO.N,+3.3V*%
X148950000Y-66350000D03*
%TD*%
D16*
%TO.P,U7,1,~{RST}*%
%TO.N,unconnected-(U7-~{RST}-Pad1)*%
X90785000Y-78860000D03*
D17*
%TO.P,U7,2,A0*%
%TO.N,unconnected-(U7-A0-Pad2)*%
X90785000Y-81400000D03*
%TO.P,U7,3,D0*%
%TO.N,unconnected-(U7-D0-Pad3)*%
X90785000Y-83940000D03*
%TO.P,U7,4,SCK/D5*%
%TO.N,/Receiver/SS RX*%
X90785000Y-86480000D03*
%TO.P,U7,5,MISO/D6*%
%TO.N,/Receiver/SS TX*%
X90785000Y-89020000D03*
%TO.P,U7,6,MOSI/D7*%
%TO.N,unconnected-(U7-MOSI{slash}D7-Pad6)*%
X90785000Y-91560000D03*
%TO.P,U7,7,CS/D8*%
%TO.N,unconnected-(U7-CS{slash}D8-Pad7)*%
X90785000Y-94100000D03*
%TO.P,U7,8,3V3*%
%TO.N,/Receiver/3v3B*%
X90785000Y-96640000D03*
%TO.P,U7,9,5V*%
%TO.N,unconnected-(U7-5V-Pad9)*%
X113645000Y-96640000D03*
%TO.P,U7,10,GND*%
%TO.N,Net-(U7-GND)*%
X113645000Y-94100000D03*
%TO.P,U7,11,D4*%
%TO.N,unconnected-(U7-D4-Pad11)*%
X113645000Y-91560000D03*
%TO.P,U7,12,D3*%
%TO.N,unconnected-(U7-D3-Pad12)*%
X113645000Y-89020000D03*
%TO.P,U7,13,SDA/D2*%
%TO.N,unconnected-(U7-SDA{slash}D2-Pad13)*%
X113645000Y-86480000D03*
%TO.P,U7,14,SCL/D1*%
%TO.N,unconnected-(U7-SCL{slash}D1-Pad14)*%
X113645000Y-83940000D03*
%TO.P,U7,15,RX*%
%TO.N,unconnected-(U7-RX-Pad15)*%
X113645000Y-81400000D03*
%TO.P,U7,16,TX*%
%TO.N,unconnected-(U7-TX-Pad16)*%
X113645000Y-78860000D03*
%TD*%
D18*
%TO.P,DISP1,1,Gnd*%
%TO.N,Net-(DISP1-Gnd)*%
X125200000Y-109600000D03*
D17*
%TO.P,DISP1,2,Vcc*%
%TO.N,+3.3V*%
X125200000Y-107060000D03*
%TO.P,DISP1,3,SCL*%
%TO.N,Net-(DISP1-SCL)*%
X125200000Y-104520000D03*
%TO.P,DISP1,4,SDA*%
%TO.N,Net-(DISP1-SDA)*%
X125200000Y-101980000D03*
%TD*%
D16*
%TO.P,U1,1,~{RST}*%
%TO.N,Net-(D1-A)*%
X133640000Y-95200000D03*
D19*
%TO.P,U1,2,A0*%
%TO.N,unconnected-(U1-A0-Pad2)*%
X136180000Y-95200000D03*
%TO.P,U1,3,D0*%
%TO.N,Net-(D1-K)*%
X138720000Y-95200000D03*
%TO.P,U1,4,SCK/D5*%
%TO.N,/SS RX*%
X141260000Y-95200000D03*
%TO.P,U1,5,MISO/D6*%
%TO.N,/SS TX*%
X143800000Y-95200000D03*
%TO.P,U1,6,MOSI/D7*%
%TO.N,Net-(U1-MOSI{slash}D7)*%
X146340000Y-95200000D03*
%TO.P,U1,7,CS/D8*%
%TO.N,Net-(U1-CS{slash}D8)*%
X148880000Y-95200000D03*
%TO.P,U1,8,3V3*%
%TO.N,+3.3V*%
X151420000Y-95200000D03*
%TO.P,U1,9,5V*%
%TO.N,unconnected-(U1-5V-Pad9)*%
X151420000Y-72340000D03*
%TO.P,U1,10,GND*%
%TO.N,Earth*%
X148880000Y-72340000D03*
%TO.P,U1,11,D4*%
%TO.N,unconnected-(U1-D4-Pad11)*%
X146340000Y-72340000D03*
%TO.P,U1,12,D3*%
%TO.N,unconnected-(U1-D3-Pad12)*%
X143800000Y-72340000D03*
%TO.P,U1,13,SDA/D2*%
%TO.N,Net-(DISP1-SDA)*%
X141260000Y-72340000D03*
%TO.P,U1,14,SCL/D1*%
%TO.N,Net-(DISP1-SCL)*%
X138720000Y-72340000D03*
%TO.P,U1,15,RX*%
%TO.N,unconnected-(U1-RX-Pad15)*%
X136180000Y-72340000D03*
%TO.P,U1,16,TX*%
%TO.N,unconnected-(U1-TX-Pad16)*%
X133640000Y-72340000D03*
%TD*%
D20*
%TO.P,J1,1,Pin_1*%
%TO.N,Net-(J1-Pin_1)*%
X126850000Y-115050000D03*
D21*
%TO.P,J1,2,Pin_2*%
%TO.N,Earth*%
X126850000Y-118550000D03*
%TD*%
D22*
%TO.N,/Receiver/SS RX*%
X90785000Y-86480000D02*
X104775000Y-72490000D01*
X104775000Y-72490000D02*
X104775000Y-66260000D01*
%TO.N,/Receiver/SS TX*%
X90785000Y-89020000D02*
X88370000Y-86605000D01*
X88370000Y-86605000D02*
X88370000Y-70005000D01*
X88370000Y-70005000D02*
X89820000Y-68555000D01*
X100345000Y-68555000D02*
X102235000Y-66665000D01*
X89820000Y-68555000D02*
X100345000Y-68555000D01*
X102235000Y-66665000D02*
X102235000Y-66260000D01*
%TO.N,/Receiver/3v3B*%
X87810000Y-93665000D02*
X87810000Y-68680000D01*
X90785000Y-96640000D02*
X87810000Y-93665000D01*
X87810000Y-68680000D02*
X90230000Y-66260000D01*
X90230000Y-66260000D02*
X97155000Y-66260000D01*
%TO.N,Net-(U7-GND)*%
X115970000Y-91775000D02*
X115970000Y-69255000D01*
X113645000Y-94100000D02*
X115970000Y-91775000D01*
X115970000Y-69255000D02*
X115795000Y-69255000D01*
X115795000Y-69255000D02*
X112800000Y-66260000D01*
X112800000Y-66260000D02*
X107315000Y-66260000D01*
%TO.N,+3.3V*%
X151420000Y-95200000D02*
X155420000Y-91200000D01*
X155420000Y-91200000D02*
X155420000Y-64720000D01*
X155420000Y-64720000D02*
X154750000Y-64050000D01*
X149100000Y-65050000D02*
X149000000Y-65050000D01*
X154750000Y-64050000D02*
X150100000Y-64050000D01*
X150100000Y-64050000D02*
X149100000Y-65050000D01*
X149000000Y-66300000D02*
X148950000Y-66350000D01*
X149000000Y-65050000D02*
X149000000Y-66300000D01*
%TO.N,Earth*%
X159110000Y-66350000D02*
X159110000Y-92710000D01*
X159110000Y-92710000D02*
X159500000Y-93100000D01*
%TO.N,/SS TX*%
X143800000Y-95200000D02*
X147440000Y-91560000D01*
X147440000Y-91560000D02*
X147440000Y-72024365D01*
X147440000Y-72024365D02*
X150514365Y-68950000D01*
X150514365Y-68950000D02*
X152275000Y-68950000D01*
X152275000Y-68950000D02*
X153875000Y-67350000D01*
X153875000Y-67350000D02*
X153875000Y-66505000D01*
X153875000Y-66505000D02*
X154030000Y-66350000D01*
%TO.N,Earth*%
X147960000Y-129300000D02*
X146610000Y-127950000D01*
X148880000Y-72530000D02*
X148880000Y-72340000D01*
X159500000Y-121700000D02*
X151900000Y-129300000D01*
X149410000Y-116650000D02*
X156135000Y-116650000D01*
X146610000Y-119450000D02*
X149410000Y-116650000D01*
X159500000Y-93100000D02*
X159500000Y-121700000D01*
X151900000Y-129300000D02*
X147960000Y-129300000D01*
X146610000Y-127950000D02*
X146610000Y-119450000D01*
%TO.N,+3.3V*%
X158675000Y-116650000D02*
X158675000Y-118575000D01*
X152850000Y-119450000D02*
X149150000Y-119450000D01*
X158675000Y-118575000D02*
X157250000Y-120000000D01*
X149150000Y-127950000D02*
X149150000Y-119450000D01*
X157250000Y-120000000D02*
X153400000Y-120000000D01*
X153400000Y-120000000D02*
X152850000Y-119450000D01*
%TO.N,Net-(DISP1-SCL)*%
X144070000Y-106720000D02*
X141870000Y-104520000D01*
X144070000Y-119450000D02*
X144070000Y-106720000D01*
X144070000Y-127950000D02*
X144070000Y-119450000D01*
X141870000Y-104520000D02*
X125200000Y-104520000D01*
%TO.N,Net-(U1-CS{slash}D8)*%
X136450000Y-127950000D02*
X136450000Y-119450000D01*
%TO.N,Net-(DISP1-SDA)*%
X141530000Y-127950000D02*
X141530000Y-119450000D01*
%TO.N,unconnected-(U3-GPIO1-Pad5)*%
X138990000Y-127950000D02*
X138990000Y-119450000D01*
%TO.N,Net-(J1-Pin_1)*%
X125838000Y-115050000D02*
X123600000Y-112812000D01*
X123600000Y-100850000D02*
X124450000Y-100000000D01*
X124450000Y-100000000D02*
X141705000Y-100000000D01*
X123600000Y-112812000D02*
X123600000Y-100850000D01*
X141705000Y-100000000D02*
X157405000Y-115700000D01*
X126800000Y-115050000D02*
X125838000Y-115050000D01*
X157405000Y-115700000D02*
X157405000Y-116650000D01*
%TD*%
M02*
