%TF.GenerationSoftware,KiCad,Pcbnew,8.0.8-unknown-202501170223~559b1827ca~ubuntu24.04.1*%
%TF.CreationDate,2025-02-03T18:23:22-05:00*%
%TF.ProjectId,delivery-box-reporter-lora,64656c69-7665-4727-992d-626f782d7265,rev?*%
%TF.SameCoordinates,Original*%
%TF.FileFunction,Soldermask,Bot*%
%TF.FilePolarity,Negative*%
%FSLAX46Y46*%
G04 Gerber Fmt 4.6, Leading zero omitted, Abs format (unit mm)*
G04 Created by KiCad (PCBNEW 8.0.8-unknown-202501170223~559b1827ca~ubuntu24.04.1) date 2025-02-03 18:23:22*
%MOMM*%
%LPD*%
G01*
G04 APERTURE LIST*
%ADD10R,1.600000X1.700000*%
%ADD11O,1.500000X2.000000*%
%ADD12R,1.700000X1.700000*%
%ADD13O,1.700000X1.700000*%
%ADD14R,1.050000X1.500000*%
%ADD15O,1.050000X1.500000*%
%ADD16R,2.000000X2.000000*%
%ADD17O,2.000000X1.600000*%
%ADD18R,2.000000X1.600000*%
%ADD19O,1.600000X2.000000*%
%ADD20R,1.524000X1.524000*%
%ADD21C,1.524000*%
G04 APERTURE END LIST*
D10*
%TO.C,U3*%
X149150000Y-119450000D03*
D11*
X146610000Y-119450000D03*
X144070000Y-119450000D03*
X141530000Y-119450000D03*
X138990000Y-119450000D03*
X136450000Y-119450000D03*
%TD*%
D10*
%TO.C,U3*%
X149150000Y-127950000D03*
D11*
X146610000Y-127950000D03*
X144070000Y-127950000D03*
X141530000Y-127950000D03*
X138990000Y-127950000D03*
X136450000Y-127950000D03*
%TD*%
D12*
%TO.C,U8*%
X107315000Y-66260000D03*
D13*
X104775000Y-66260000D03*
X102235000Y-66260000D03*
X99695000Y-66260000D03*
X97155000Y-66260000D03*
%TD*%
D14*
%TO.C,U5*%
X156135000Y-116650000D03*
D15*
X157405000Y-116650000D03*
X158675000Y-116650000D03*
%TD*%
D12*
%TO.C,U6*%
X159110000Y-66350000D03*
D13*
X156570000Y-66350000D03*
X154030000Y-66350000D03*
X151490000Y-66350000D03*
X148950000Y-66350000D03*
%TD*%
D16*
%TO.C,U7*%
X90785000Y-78860000D03*
D17*
X90785000Y-81400000D03*
X90785000Y-83940000D03*
X90785000Y-86480000D03*
X90785000Y-89020000D03*
X90785000Y-91560000D03*
X90785000Y-94100000D03*
X90785000Y-96640000D03*
X113645000Y-96640000D03*
X113645000Y-94100000D03*
X113645000Y-91560000D03*
X113645000Y-89020000D03*
X113645000Y-86480000D03*
X113645000Y-83940000D03*
X113645000Y-81400000D03*
X113645000Y-78860000D03*
%TD*%
D18*
%TO.C,DISP1*%
X125200000Y-109600000D03*
D17*
X125200000Y-107060000D03*
X125200000Y-104520000D03*
X125200000Y-101980000D03*
%TD*%
D16*
%TO.C,U1*%
X133640000Y-95200000D03*
D19*
X136180000Y-95200000D03*
X138720000Y-95200000D03*
X141260000Y-95200000D03*
X143800000Y-95200000D03*
X146340000Y-95200000D03*
X148880000Y-95200000D03*
X151420000Y-95200000D03*
X151420000Y-72340000D03*
X148880000Y-72340000D03*
X146340000Y-72340000D03*
X143800000Y-72340000D03*
X141260000Y-72340000D03*
X138720000Y-72340000D03*
X136180000Y-72340000D03*
X133640000Y-72340000D03*
%TD*%
D20*
%TO.C,J1*%
X126850000Y-115050000D03*
D21*
X126850000Y-118550000D03*
%TD*%
M02*
